<?xml version="1.0" encoding="utf-8" standalone="no"?>
<!DOCTYPE svg PUBLIC "-//W3C//DTD SVG 1.1//EN"
  "http://www.w3.org/Graphics/SVG/1.1/DTD/svg11.dtd">
<svg height="288pt" version="1.1" viewBox="0 0 360 288" width="360pt" xmlns="http://www.w3.org/2000/svg" xmlns:xlink="http://www.w3.org/1999/xlink">
 <metadata>
  <rdf:RDF xmlns:cc="http://creativecommons.org/ns#" xmlns:dc="http://purl.org/dc/elements/1.1/" xmlns:rdf="http://www.w3.org/1999/02/22-rdf-syntax-ns#">
   <cc:Work>
    <dc:type rdf:resource="http://purl.org/dc/dcmitype/StillImage"/>
    <dc:date>2021-08-08T22:02:21.933085</dc:date>
    <dc:format>image/svg+xml</dc:format>
    <dc:creator>
     <cc:Agent>
      <dc:title>Matplotlib v3.4.2, https://matplotlib.org/</dc:title>
     </cc:Agent>
    </dc:creator>
   </cc:Work>
  </rdf:RDF>
 </metadata>
 <defs>
  <style type="text/css">*{stroke-linecap:butt;stroke-linejoin:round;}</style>
 </defs>
 <g id="figure_1">
  <g id="patch_1">
   <path d="M 0 288 
L 360 288 
L 360 0 
L 0 0 
z
" style="fill:none;"/>
  </g>
  <g id="axes_1">
   <g id="patch_2">
    <path d="M 14.3 246.2 
L 340.129758 246.2 
L 340.129758 10.8 
L 14.3 10.8 
z
" style="fill:none;"/>
   </g>
   <g id="matplotlib.axis_1">
    <g id="xtick_1">
     <g id="line2d_1">
      <defs>
       <path d="M 0 0 
L 0 3.5 
" id="m385bb7e9de" style="stroke:#000000;stroke-width:0.8;"/>
      </defs>
      <g>
       <use style="stroke:#000000;stroke-width:0.8;" x="334.664509" xlink:href="#m385bb7e9de" y="246.2"/>
      </g>
     </g>
     <g id="text_1">
      <!-- −175 -->
      <g transform="translate(320.930915 260.798437)scale(0.1 -0.1)">
       <defs>
        <path d="M 678 2272 
L 4684 2272 
L 4684 1741 
L 678 1741 
L 678 2272 
z
" id="DejaVuSans-2212" transform="scale(0.015625)"/>
        <path d="M 794 531 
L 1825 531 
L 1825 4091 
L 703 3866 
L 703 4441 
L 1819 4666 
L 2450 4666 
L 2450 531 
L 3481 531 
L 3481 0 
L 794 0 
L 794 531 
z
" id="DejaVuSans-31" transform="scale(0.015625)"/>
        <path d="M 525 4666 
L 3525 4666 
L 3525 4397 
L 1831 0 
L 1172 0 
L 2766 4134 
L 525 4134 
L 525 4666 
z
" id="DejaVuSans-37" transform="scale(0.015625)"/>
        <path d="M 691 4666 
L 3169 4666 
L 3169 4134 
L 1269 4134 
L 1269 2991 
Q 1406 3038 1543 3061 
Q 1681 3084 1819 3084 
Q 2600 3084 3056 2656 
Q 3513 2228 3513 1497 
Q 3513 744 3044 326 
Q 2575 -91 1722 -91 
Q 1428 -91 1123 -41 
Q 819 9 494 109 
L 494 744 
Q 775 591 1075 516 
Q 1375 441 1709 441 
Q 2250 441 2565 725 
Q 2881 1009 2881 1497 
Q 2881 1984 2565 2268 
Q 2250 2553 1709 2553 
Q 1456 2553 1204 2497 
Q 953 2441 691 2322 
L 691 4666 
z
" id="DejaVuSans-35" transform="scale(0.015625)"/>
       </defs>
       <use xlink:href="#DejaVuSans-2212"/>
       <use x="83.789062" xlink:href="#DejaVuSans-31"/>
       <use x="147.412109" xlink:href="#DejaVuSans-37"/>
       <use x="211.035156" xlink:href="#DejaVuSans-35"/>
      </g>
     </g>
    </g>
    <g id="xtick_2">
     <g id="line2d_2">
      <g>
       <use style="stroke:#000000;stroke-width:0.8;" x="293.379576" xlink:href="#m385bb7e9de" y="246.2"/>
      </g>
     </g>
     <g id="text_2">
      <!-- −150 -->
      <g transform="translate(279.645982 260.798437)scale(0.1 -0.1)">
       <defs>
        <path d="M 2034 4250 
Q 1547 4250 1301 3770 
Q 1056 3291 1056 2328 
Q 1056 1369 1301 889 
Q 1547 409 2034 409 
Q 2525 409 2770 889 
Q 3016 1369 3016 2328 
Q 3016 3291 2770 3770 
Q 2525 4250 2034 4250 
z
M 2034 4750 
Q 2819 4750 3233 4129 
Q 3647 3509 3647 2328 
Q 3647 1150 3233 529 
Q 2819 -91 2034 -91 
Q 1250 -91 836 529 
Q 422 1150 422 2328 
Q 422 3509 836 4129 
Q 1250 4750 2034 4750 
z
" id="DejaVuSans-30" transform="scale(0.015625)"/>
       </defs>
       <use xlink:href="#DejaVuSans-2212"/>
       <use x="83.789062" xlink:href="#DejaVuSans-31"/>
       <use x="147.412109" xlink:href="#DejaVuSans-35"/>
       <use x="211.035156" xlink:href="#DejaVuSans-30"/>
      </g>
     </g>
    </g>
    <g id="xtick_3">
     <g id="line2d_3">
      <g>
       <use style="stroke:#000000;stroke-width:0.8;" x="252.094642" xlink:href="#m385bb7e9de" y="246.2"/>
      </g>
     </g>
     <g id="text_3">
      <!-- −125 -->
      <g transform="translate(238.361048 260.798437)scale(0.1 -0.1)">
       <defs>
        <path d="M 1228 531 
L 3431 531 
L 3431 0 
L 469 0 
L 469 531 
Q 828 903 1448 1529 
Q 2069 2156 2228 2338 
Q 2531 2678 2651 2914 
Q 2772 3150 2772 3378 
Q 2772 3750 2511 3984 
Q 2250 4219 1831 4219 
Q 1534 4219 1204 4116 
Q 875 4013 500 3803 
L 500 4441 
Q 881 4594 1212 4672 
Q 1544 4750 1819 4750 
Q 2544 4750 2975 4387 
Q 3406 4025 3406 3419 
Q 3406 3131 3298 2873 
Q 3191 2616 2906 2266 
Q 2828 2175 2409 1742 
Q 1991 1309 1228 531 
z
" id="DejaVuSans-32" transform="scale(0.015625)"/>
       </defs>
       <use xlink:href="#DejaVuSans-2212"/>
       <use x="83.789062" xlink:href="#DejaVuSans-31"/>
       <use x="147.412109" xlink:href="#DejaVuSans-32"/>
       <use x="211.035156" xlink:href="#DejaVuSans-35"/>
      </g>
     </g>
    </g>
    <g id="xtick_4">
     <g id="line2d_4">
      <g>
       <use style="stroke:#000000;stroke-width:0.8;" x="210.809709" xlink:href="#m385bb7e9de" y="246.2"/>
      </g>
     </g>
     <g id="text_4">
      <!-- −100 -->
      <g transform="translate(197.076115 260.798437)scale(0.1 -0.1)">
       <use xlink:href="#DejaVuSans-2212"/>
       <use x="83.789062" xlink:href="#DejaVuSans-31"/>
       <use x="147.412109" xlink:href="#DejaVuSans-30"/>
       <use x="211.035156" xlink:href="#DejaVuSans-30"/>
      </g>
     </g>
    </g>
    <g id="xtick_5">
     <g id="line2d_5">
      <g>
       <use style="stroke:#000000;stroke-width:0.8;" x="169.524775" xlink:href="#m385bb7e9de" y="246.2"/>
      </g>
     </g>
     <g id="text_5">
      <!-- −75 -->
      <g transform="translate(158.972431 260.798437)scale(0.1 -0.1)">
       <use xlink:href="#DejaVuSans-2212"/>
       <use x="83.789062" xlink:href="#DejaVuSans-37"/>
       <use x="147.412109" xlink:href="#DejaVuSans-35"/>
      </g>
     </g>
    </g>
    <g id="xtick_6">
     <g id="line2d_6">
      <g>
       <use style="stroke:#000000;stroke-width:0.8;" x="128.239841" xlink:href="#m385bb7e9de" y="246.2"/>
      </g>
     </g>
     <g id="text_6">
      <!-- −50 -->
      <g transform="translate(117.687498 260.798437)scale(0.1 -0.1)">
       <use xlink:href="#DejaVuSans-2212"/>
       <use x="83.789062" xlink:href="#DejaVuSans-35"/>
       <use x="147.412109" xlink:href="#DejaVuSans-30"/>
      </g>
     </g>
    </g>
    <g id="xtick_7">
     <g id="line2d_7">
      <g>
       <use style="stroke:#000000;stroke-width:0.8;" x="86.954908" xlink:href="#m385bb7e9de" y="246.2"/>
      </g>
     </g>
     <g id="text_7">
      <!-- −25 -->
      <g transform="translate(76.402564 260.798437)scale(0.1 -0.1)">
       <use xlink:href="#DejaVuSans-2212"/>
       <use x="83.789062" xlink:href="#DejaVuSans-32"/>
       <use x="147.412109" xlink:href="#DejaVuSans-35"/>
      </g>
     </g>
    </g>
    <g id="xtick_8">
     <g id="line2d_8">
      <g>
       <use style="stroke:#000000;stroke-width:0.8;" x="45.669974" xlink:href="#m385bb7e9de" y="246.2"/>
      </g>
     </g>
     <g id="text_8">
      <!-- 0 -->
      <g transform="translate(42.488724 260.798437)scale(0.1 -0.1)">
       <use xlink:href="#DejaVuSans-30"/>
      </g>
     </g>
    </g>
    <g id="text_9">
     <!-- Frequency / (ppm) -->
     <g transform="translate(131.402379 274.476562)scale(0.1 -0.1)">
      <defs>
       <path d="M 628 4666 
L 3309 4666 
L 3309 4134 
L 1259 4134 
L 1259 2759 
L 3109 2759 
L 3109 2228 
L 1259 2228 
L 1259 0 
L 628 0 
L 628 4666 
z
" id="DejaVuSans-46" transform="scale(0.015625)"/>
       <path d="M 2631 2963 
Q 2534 3019 2420 3045 
Q 2306 3072 2169 3072 
Q 1681 3072 1420 2755 
Q 1159 2438 1159 1844 
L 1159 0 
L 581 0 
L 581 3500 
L 1159 3500 
L 1159 2956 
Q 1341 3275 1631 3429 
Q 1922 3584 2338 3584 
Q 2397 3584 2469 3576 
Q 2541 3569 2628 3553 
L 2631 2963 
z
" id="DejaVuSans-72" transform="scale(0.015625)"/>
       <path d="M 3597 1894 
L 3597 1613 
L 953 1613 
Q 991 1019 1311 708 
Q 1631 397 2203 397 
Q 2534 397 2845 478 
Q 3156 559 3463 722 
L 3463 178 
Q 3153 47 2828 -22 
Q 2503 -91 2169 -91 
Q 1331 -91 842 396 
Q 353 884 353 1716 
Q 353 2575 817 3079 
Q 1281 3584 2069 3584 
Q 2775 3584 3186 3129 
Q 3597 2675 3597 1894 
z
M 3022 2063 
Q 3016 2534 2758 2815 
Q 2500 3097 2075 3097 
Q 1594 3097 1305 2825 
Q 1016 2553 972 2059 
L 3022 2063 
z
" id="DejaVuSans-65" transform="scale(0.015625)"/>
       <path d="M 947 1747 
Q 947 1113 1208 752 
Q 1469 391 1925 391 
Q 2381 391 2643 752 
Q 2906 1113 2906 1747 
Q 2906 2381 2643 2742 
Q 2381 3103 1925 3103 
Q 1469 3103 1208 2742 
Q 947 2381 947 1747 
z
M 2906 525 
Q 2725 213 2448 61 
Q 2172 -91 1784 -91 
Q 1150 -91 751 415 
Q 353 922 353 1747 
Q 353 2572 751 3078 
Q 1150 3584 1784 3584 
Q 2172 3584 2448 3432 
Q 2725 3281 2906 2969 
L 2906 3500 
L 3481 3500 
L 3481 -1331 
L 2906 -1331 
L 2906 525 
z
" id="DejaVuSans-71" transform="scale(0.015625)"/>
       <path d="M 544 1381 
L 544 3500 
L 1119 3500 
L 1119 1403 
Q 1119 906 1312 657 
Q 1506 409 1894 409 
Q 2359 409 2629 706 
Q 2900 1003 2900 1516 
L 2900 3500 
L 3475 3500 
L 3475 0 
L 2900 0 
L 2900 538 
Q 2691 219 2414 64 
Q 2138 -91 1772 -91 
Q 1169 -91 856 284 
Q 544 659 544 1381 
z
M 1991 3584 
L 1991 3584 
z
" id="DejaVuSans-75" transform="scale(0.015625)"/>
       <path d="M 3513 2113 
L 3513 0 
L 2938 0 
L 2938 2094 
Q 2938 2591 2744 2837 
Q 2550 3084 2163 3084 
Q 1697 3084 1428 2787 
Q 1159 2491 1159 1978 
L 1159 0 
L 581 0 
L 581 3500 
L 1159 3500 
L 1159 2956 
Q 1366 3272 1645 3428 
Q 1925 3584 2291 3584 
Q 2894 3584 3203 3211 
Q 3513 2838 3513 2113 
z
" id="DejaVuSans-6e" transform="scale(0.015625)"/>
       <path d="M 3122 3366 
L 3122 2828 
Q 2878 2963 2633 3030 
Q 2388 3097 2138 3097 
Q 1578 3097 1268 2742 
Q 959 2388 959 1747 
Q 959 1106 1268 751 
Q 1578 397 2138 397 
Q 2388 397 2633 464 
Q 2878 531 3122 666 
L 3122 134 
Q 2881 22 2623 -34 
Q 2366 -91 2075 -91 
Q 1284 -91 818 406 
Q 353 903 353 1747 
Q 353 2603 823 3093 
Q 1294 3584 2113 3584 
Q 2378 3584 2631 3529 
Q 2884 3475 3122 3366 
z
" id="DejaVuSans-63" transform="scale(0.015625)"/>
       <path d="M 2059 -325 
Q 1816 -950 1584 -1140 
Q 1353 -1331 966 -1331 
L 506 -1331 
L 506 -850 
L 844 -850 
Q 1081 -850 1212 -737 
Q 1344 -625 1503 -206 
L 1606 56 
L 191 3500 
L 800 3500 
L 1894 763 
L 2988 3500 
L 3597 3500 
L 2059 -325 
z
" id="DejaVuSans-79" transform="scale(0.015625)"/>
       <path id="DejaVuSans-20" transform="scale(0.015625)"/>
       <path d="M 1625 4666 
L 2156 4666 
L 531 -594 
L 0 -594 
L 1625 4666 
z
" id="DejaVuSans-2f" transform="scale(0.015625)"/>
       <path d="M 1984 4856 
Q 1566 4138 1362 3434 
Q 1159 2731 1159 2009 
Q 1159 1288 1364 580 
Q 1569 -128 1984 -844 
L 1484 -844 
Q 1016 -109 783 600 
Q 550 1309 550 2009 
Q 550 2706 781 3412 
Q 1013 4119 1484 4856 
L 1984 4856 
z
" id="DejaVuSans-28" transform="scale(0.015625)"/>
       <path d="M 1159 525 
L 1159 -1331 
L 581 -1331 
L 581 3500 
L 1159 3500 
L 1159 2969 
Q 1341 3281 1617 3432 
Q 1894 3584 2278 3584 
Q 2916 3584 3314 3078 
Q 3713 2572 3713 1747 
Q 3713 922 3314 415 
Q 2916 -91 2278 -91 
Q 1894 -91 1617 61 
Q 1341 213 1159 525 
z
M 3116 1747 
Q 3116 2381 2855 2742 
Q 2594 3103 2138 3103 
Q 1681 3103 1420 2742 
Q 1159 2381 1159 1747 
Q 1159 1113 1420 752 
Q 1681 391 2138 391 
Q 2594 391 2855 752 
Q 3116 1113 3116 1747 
z
" id="DejaVuSans-70" transform="scale(0.015625)"/>
       <path d="M 3328 2828 
Q 3544 3216 3844 3400 
Q 4144 3584 4550 3584 
Q 5097 3584 5394 3201 
Q 5691 2819 5691 2113 
L 5691 0 
L 5113 0 
L 5113 2094 
Q 5113 2597 4934 2840 
Q 4756 3084 4391 3084 
Q 3944 3084 3684 2787 
Q 3425 2491 3425 1978 
L 3425 0 
L 2847 0 
L 2847 2094 
Q 2847 2600 2669 2842 
Q 2491 3084 2119 3084 
Q 1678 3084 1418 2786 
Q 1159 2488 1159 1978 
L 1159 0 
L 581 0 
L 581 3500 
L 1159 3500 
L 1159 2956 
Q 1356 3278 1631 3431 
Q 1906 3584 2284 3584 
Q 2666 3584 2933 3390 
Q 3200 3197 3328 2828 
z
" id="DejaVuSans-6d" transform="scale(0.015625)"/>
       <path d="M 513 4856 
L 1013 4856 
Q 1481 4119 1714 3412 
Q 1947 2706 1947 2009 
Q 1947 1309 1714 600 
Q 1481 -109 1013 -844 
L 513 -844 
Q 928 -128 1133 580 
Q 1338 1288 1338 2009 
Q 1338 2731 1133 3434 
Q 928 4138 513 4856 
z
" id="DejaVuSans-29" transform="scale(0.015625)"/>
      </defs>
      <use xlink:href="#DejaVuSans-46"/>
      <use x="50.269531" xlink:href="#DejaVuSans-72"/>
      <use x="89.132812" xlink:href="#DejaVuSans-65"/>
      <use x="150.65625" xlink:href="#DejaVuSans-71"/>
      <use x="214.132812" xlink:href="#DejaVuSans-75"/>
      <use x="277.511719" xlink:href="#DejaVuSans-65"/>
      <use x="339.035156" xlink:href="#DejaVuSans-6e"/>
      <use x="402.414062" xlink:href="#DejaVuSans-63"/>
      <use x="457.394531" xlink:href="#DejaVuSans-79"/>
      <use x="516.574219" xlink:href="#DejaVuSans-20"/>
      <use x="548.361328" xlink:href="#DejaVuSans-2f"/>
      <use x="582.052734" xlink:href="#DejaVuSans-20"/>
      <use x="613.839844" xlink:href="#DejaVuSans-28"/>
      <use x="652.853516" xlink:href="#DejaVuSans-70"/>
      <use x="716.330078" xlink:href="#DejaVuSans-70"/>
      <use x="779.806641" xlink:href="#DejaVuSans-6d"/>
      <use x="877.21875" xlink:href="#DejaVuSans-29"/>
     </g>
    </g>
   </g>
   <g id="line2d_9">
    <path clip-path="url(#p8f8b891d84)" d="M 340.129758 235.5 
L 328.532427 235.42718 
L 327.42792 235.351565 
L 325.218904 235.472918 
L 310.860305 235.451427 
L 308.099036 235.366823 
L 306.994528 235.108921 
L 306.442274 234.771995 
L 305.890021 234.620243 
L 304.785513 235.232389 
L 303.681005 235.383764 
L 299.815228 235.438943 
L 289.322406 235.340291 
L 287.665644 235.215774 
L 286.561137 234.940221 
L 286.008883 234.565188 
L 285.456629 233.716015 
L 284.904375 232.027281 
L 284.352121 231.093554 
L 283.247614 234.233488 
L 282.69536 234.761268 
L 282.143106 235.023087 
L 281.038598 235.219579 
L 278.277329 235.326168 
L 272.202537 235.272132 
L 268.889014 235.090814 
L 267.232253 234.830437 
L 266.127745 234.397725 
L 265.575491 233.941296 
L 265.023237 233.193073 
L 264.470984 231.546878 
L 263.91873 227.907613 
L 263.366476 220.193882 
L 262.814222 215.129912 
L 261.709714 229.780278 
L 261.157461 232.269734 
L 260.605207 233.514731 
L 260.052953 234.074698 
L 259.500699 234.447196 
L 258.396191 234.79093 
L 256.187176 235.015258 
L 252.873653 235.023055 
L 250.112384 234.870756 
L 247.903369 234.540953 
L 246.798861 234.205364 
L 245.694353 233.589849 
L 245.1421 233.014198 
L 244.589846 232.274792 
L 244.037592 230.868815 
L 243.485338 228.641911 
L 242.933084 223.667748 
L 242.38083 212.972618 
L 241.828577 188.705495 
L 241.276323 170.246636 
L 240.171815 217.273039 
L 239.619561 225.339919 
L 239.067308 229.400421 
L 238.515054 231.201874 
L 237.9628 232.420998 
L 236.858292 233.543838 
L 235.753785 234.057118 
L 234.097023 234.379248 
L 232.440262 234.482274 
L 230.231246 234.392695 
L 228.574485 234.180405 
L 226.917723 233.682041 
L 226.365469 233.477683 
L 225.260962 232.745594 
L 224.156454 231.394482 
L 223.6042 230.103453 
L 223.051947 228.509606 
L 222.499693 225.385132 
L 221.947439 220.618895 
L 221.395185 209.798688 
L 220.842931 187.25246 
L 219.738424 84.571093 
L 218.633916 193.363484 
L 218.081662 212.19164 
L 217.529408 221.724344 
L 216.977154 225.895419 
L 216.424901 228.763046 
L 215.320393 231.39251 
L 214.215885 232.617362 
L 213.111378 233.258339 
L 211.454616 233.697598 
L 210.350109 233.824221 
L 208.693347 233.805282 
L 207.036586 233.581437 
L 205.379824 232.943645 
L 204.82757 232.685688 
L 203.723063 231.71291 
L 202.618555 229.899847 
L 201.514047 226.027618 
L 200.961793 221.774935 
L 200.40954 215.549513 
L 199.857286 201.158319 
L 199.305032 172.22177 
L 198.200524 21.5 
L 197.096017 175.614182 
L 196.543763 202.507978 
L 195.991509 216.199759 
L 195.439255 222.105908 
L 194.887001 226.229318 
L 193.782494 229.984323 
L 192.677986 231.754461 
L 191.573478 232.707975 
L 189.916717 233.407115 
L 188.812209 233.67131 
L 187.707702 233.810961 
L 186.05094 233.830029 
L 184.394179 233.622854 
L 183.289671 233.284439 
L 182.185163 232.6614 
L 181.080656 231.468396 
L 179.976148 228.899272 
L 179.423894 226.057412 
L 178.87164 221.985549 
L 178.319387 212.505374 
L 177.767133 193.889174 
L 176.662625 87.463963 
L 175.558117 192.695191 
L 175.005864 212.05705 
L 174.45361 221.803093 
L 173.901356 226.000992 
L 173.349102 228.905716 
L 172.244594 231.547352 
L 171.140087 232.790101 
L 169.483325 233.638011 
L 168.378818 233.953074 
L 167.27431 234.140434 
L 165.617549 234.269709 
L 163.408533 234.178418 
L 162.304026 234.000924 
L 161.199518 233.672071 
L 160.647264 233.461789 
L 159.542756 232.645404 
L 158.438249 230.891535 
L 157.885995 228.97363 
L 157.333741 226.192588 
L 156.781487 219.812212 
L 156.229233 207.226826 
L 155.124726 134.706957 
L 154.020218 203.933053 
L 153.467964 218.513865 
L 152.915711 225.581827 
L 152.363457 228.679227 
L 151.811203 230.729898 
L 150.706695 232.611109 
L 149.602188 233.48391 
L 147.945426 234.071183 
L 146.840918 234.27585 
L 145.184157 234.418348 
L 142.975142 234.373296 
L 141.31838 234.176287 
L 139.661619 233.647905 
L 139.109365 233.406551 
L 138.004857 232.48864 
L 136.90035 230.540822 
L 136.348096 228.43944 
L 135.795842 225.365857 
L 135.243588 218.414259 
L 134.691334 204.650698 
L 133.586827 124.671376 
L 133.034573 157.192015 
L 132.482319 198.189375 
L 131.930065 215.851073 
L 131.377811 224.139601 
L 130.825557 227.82551 
L 130.273304 230.176985 
L 129.168796 232.356129 
L 128.064288 233.364591 
L 126.407527 234.052007 
L 125.303019 234.298178 
L 123.646258 234.493555 
L 120.884989 234.494566 
L 118.675973 234.18553 
L 117.571466 233.814834 
L 116.466958 233.110599 
L 115.36245 231.607918 
L 114.810196 230.001516 
L 114.257943 227.618623 
L 113.705689 222.309695 
L 113.153435 211.741746 
L 112.048927 149.781795 
L 111.496674 172.093775 
L 110.94442 204.485884 
L 110.392166 219.444838 
L 109.839912 226.264785 
L 109.287658 229.342462 
L 108.735404 231.238138 
L 108.183151 232.24932 
L 107.630897 233.016387 
L 106.526389 233.839937 
L 104.869628 234.412722 
L 103.212866 234.708723 
L 99.899343 234.898098 
L 97.138074 234.811275 
L 95.481313 234.542157 
L 94.929059 234.391505 
L 93.824551 233.779121 
L 93.272297 233.127187 
L 92.720043 232.142482 
L 92.16779 229.981601 
L 91.615536 225.651175 
L 90.511028 200.018324 
L 89.958774 208.016751 
L 89.40652 221.690862 
L 88.854267 228.42928 
L 88.302013 231.422566 
L 87.749759 232.792688 
L 87.197505 233.608885 
L 86.092997 234.384135 
L 84.98849 234.743147 
L 82.779475 235.054119 
L 78.913698 235.216361 
L 75.047921 235.191765 
L 72.838906 234.994687 
L 71.734398 234.671986 
L 71.182144 234.349263 
L 70.62989 233.651146 
L 70.077637 232.243074 
L 69.525383 228.486765 
L 68.973129 223.822361 
L 68.420875 226.030064 
L 67.868621 230.615873 
L 67.316367 233.016835 
L 66.764114 234.059152 
L 66.21186 234.54221 
L 65.107352 234.978822 
L 63.450591 235.214714 
L 59.584814 235.360217 
L 52.405514 235.378572 
L 50.196499 235.274286 
L 49.091991 235.036343 
L 48.539737 234.706559 
L 47.987483 233.835285 
L 47.43523 232.711688 
L 46.882976 233.132097 
L 46.330722 234.242284 
L 45.778468 234.857826 
L 45.226214 235.119653 
L 44.121707 235.311937 
L 41.360438 235.421049 
L 31.419869 235.463242 
L 27.554092 235.395192 
L 26.449584 235.154871 
L 25.89733 234.921475 
L 25.345077 234.98584 
L 24.240569 235.354226 
L 22.583807 235.453562 
L 14.3 235.490796 
L 14.3 235.490796 
" style="fill:none;stroke:#000000;stroke-linecap:square;stroke-width:1.2;"/>
   </g>
   <g id="patch_3">
    <path d="M 14.3 246.2 
L 14.3 10.8 
" style="fill:none;stroke:#000000;stroke-linecap:square;stroke-linejoin:miter;stroke-width:0.8;"/>
   </g>
   <g id="patch_4">
    <path d="M 340.129758 246.2 
L 340.129758 10.8 
" style="fill:none;stroke:#000000;stroke-linecap:square;stroke-linejoin:miter;stroke-width:0.8;"/>
   </g>
   <g id="patch_5">
    <path d="M 14.3 246.2 
L 340.129758 246.2 
" style="fill:none;stroke:#000000;stroke-linecap:square;stroke-linejoin:miter;stroke-width:0.8;"/>
   </g>
   <g id="patch_6">
    <path d="M 14.3 10.8 
L 340.129758 10.8 
" style="fill:none;stroke:#000000;stroke-linecap:square;stroke-linejoin:miter;stroke-width:0.8;"/>
   </g>
  </g>
 </g>
 <defs>
  <clipPath id="p8f8b891d84">
   <rect height="235.4" width="325.829758" x="14.3" y="10.8"/>
  </clipPath>
 </defs>
</svg>
