<?xml version="1.0" encoding="utf-8" standalone="no"?>
<!DOCTYPE svg PUBLIC "-//W3C//DTD SVG 1.1//EN"
  "http://www.w3.org/Graphics/SVG/1.1/DTD/svg11.dtd">
<!-- Created with matplotlib (https://matplotlib.org/) -->
<svg height="288pt" version="1.1" viewBox="0 0 360 288" width="360pt" xmlns="http://www.w3.org/2000/svg" xmlns:xlink="http://www.w3.org/1999/xlink">
 <metadata>
  <rdf:RDF xmlns:cc="http://creativecommons.org/ns#" xmlns:dc="http://purl.org/dc/elements/1.1/" xmlns:rdf="http://www.w3.org/1999/02/22-rdf-syntax-ns#">
   <cc:Work>
    <dc:type rdf:resource="http://purl.org/dc/dcmitype/StillImage"/>
    <dc:date>2021-08-09T15:09:41.650340</dc:date>
    <dc:format>image/svg+xml</dc:format>
    <dc:creator>
     <cc:Agent>
      <dc:title>Matplotlib v3.3.4, https://matplotlib.org/</dc:title>
     </cc:Agent>
    </dc:creator>
   </cc:Work>
  </rdf:RDF>
 </metadata>
 <defs>
  <style type="text/css">*{stroke-linecap:butt;stroke-linejoin:round;}</style>
 </defs>
 <g id="figure_1">
  <g id="patch_1">
   <path d="M 0 288 
L 360 288 
L 360 0 
L 0 0 
z
" style="fill:none;"/>
  </g>
  <g id="axes_1">
   <g id="patch_2">
    <path d="M 14.3 260.2 
L 349.2 260.2 
L 349.2 10.8 
L 14.3 10.8 
z
" style="fill:none;"/>
   </g>
   <g id="matplotlib.axis_1">
    <g id="xtick_1">
     <g id="line2d_1">
      <defs>
       <path d="M 0 0 
L 0 3.5 
" id="md72c6a6dcf" style="stroke:#000000;stroke-width:0.8;"/>
      </defs>
      <g>
       <use style="stroke:#000000;stroke-width:0.8;" x="333.977273" xlink:href="#md72c6a6dcf" y="260.2"/>
      </g>
     </g>
     <g id="text_1">
      <!-- 0 -->
      <g transform="translate(330.796023 274.798437)scale(0.1 -0.1)">
       <defs>
        <path d="M 31.78125 66.40625 
Q 24.171875 66.40625 20.328125 58.90625 
Q 16.5 51.421875 16.5 36.375 
Q 16.5 21.390625 20.328125 13.890625 
Q 24.171875 6.390625 31.78125 6.390625 
Q 39.453125 6.390625 43.28125 13.890625 
Q 47.125 21.390625 47.125 36.375 
Q 47.125 51.421875 43.28125 58.90625 
Q 39.453125 66.40625 31.78125 66.40625 
z
M 31.78125 74.21875 
Q 44.046875 74.21875 50.515625 64.515625 
Q 56.984375 54.828125 56.984375 36.375 
Q 56.984375 17.96875 50.515625 8.265625 
Q 44.046875 -1.421875 31.78125 -1.421875 
Q 19.53125 -1.421875 13.0625 8.265625 
Q 6.59375 17.96875 6.59375 36.375 
Q 6.59375 54.828125 13.0625 64.515625 
Q 19.53125 74.21875 31.78125 74.21875 
z
" id="DejaVuSans-48"/>
       </defs>
       <use xlink:href="#DejaVuSans-48"/>
      </g>
     </g>
    </g>
    <g id="xtick_2">
     <g id="line2d_2">
      <g>
       <use style="stroke:#000000;stroke-width:0.8;" x="261.831646" xlink:href="#md72c6a6dcf" y="260.2"/>
      </g>
     </g>
     <g id="text_2">
      <!-- 50 -->
      <g transform="translate(255.469146 274.798437)scale(0.1 -0.1)">
       <defs>
        <path d="M 10.796875 72.90625 
L 49.515625 72.90625 
L 49.515625 64.59375 
L 19.828125 64.59375 
L 19.828125 46.734375 
Q 21.96875 47.46875 24.109375 47.828125 
Q 26.265625 48.1875 28.421875 48.1875 
Q 40.625 48.1875 47.75 41.5 
Q 54.890625 34.8125 54.890625 23.390625 
Q 54.890625 11.625 47.5625 5.09375 
Q 40.234375 -1.421875 26.90625 -1.421875 
Q 22.3125 -1.421875 17.546875 -0.640625 
Q 12.796875 0.140625 7.71875 1.703125 
L 7.71875 11.625 
Q 12.109375 9.234375 16.796875 8.0625 
Q 21.484375 6.890625 26.703125 6.890625 
Q 35.15625 6.890625 40.078125 11.328125 
Q 45.015625 15.765625 45.015625 23.390625 
Q 45.015625 31 40.078125 35.4375 
Q 35.15625 39.890625 26.703125 39.890625 
Q 22.75 39.890625 18.8125 39.015625 
Q 14.890625 38.140625 10.796875 36.28125 
z
" id="DejaVuSans-53"/>
       </defs>
       <use xlink:href="#DejaVuSans-53"/>
       <use x="63.623047" xlink:href="#DejaVuSans-48"/>
      </g>
     </g>
    </g>
    <g id="xtick_3">
     <g id="line2d_3">
      <g>
       <use style="stroke:#000000;stroke-width:0.8;" x="189.686019" xlink:href="#md72c6a6dcf" y="260.2"/>
      </g>
     </g>
     <g id="text_3">
      <!-- 100 -->
      <g transform="translate(180.142269 274.798437)scale(0.1 -0.1)">
       <defs>
        <path d="M 12.40625 8.296875 
L 28.515625 8.296875 
L 28.515625 63.921875 
L 10.984375 60.40625 
L 10.984375 69.390625 
L 28.421875 72.90625 
L 38.28125 72.90625 
L 38.28125 8.296875 
L 54.390625 8.296875 
L 54.390625 0 
L 12.40625 0 
z
" id="DejaVuSans-49"/>
       </defs>
       <use xlink:href="#DejaVuSans-49"/>
       <use x="63.623047" xlink:href="#DejaVuSans-48"/>
       <use x="127.246094" xlink:href="#DejaVuSans-48"/>
      </g>
     </g>
    </g>
    <g id="xtick_4">
     <g id="line2d_4">
      <g>
       <use style="stroke:#000000;stroke-width:0.8;" x="117.540392" xlink:href="#md72c6a6dcf" y="260.2"/>
      </g>
     </g>
     <g id="text_4">
      <!-- 150 -->
      <g transform="translate(107.996642 274.798437)scale(0.1 -0.1)">
       <use xlink:href="#DejaVuSans-49"/>
       <use x="63.623047" xlink:href="#DejaVuSans-53"/>
       <use x="127.246094" xlink:href="#DejaVuSans-48"/>
      </g>
     </g>
    </g>
    <g id="xtick_5">
     <g id="line2d_5">
      <g>
       <use style="stroke:#000000;stroke-width:0.8;" x="45.394765" xlink:href="#md72c6a6dcf" y="260.2"/>
      </g>
     </g>
     <g id="text_5">
      <!-- 200 -->
      <g transform="translate(35.851015 274.798437)scale(0.1 -0.1)">
       <defs>
        <path d="M 19.1875 8.296875 
L 53.609375 8.296875 
L 53.609375 0 
L 7.328125 0 
L 7.328125 8.296875 
Q 12.9375 14.109375 22.625 23.890625 
Q 32.328125 33.6875 34.8125 36.53125 
Q 39.546875 41.84375 41.421875 45.53125 
Q 43.3125 49.21875 43.3125 52.78125 
Q 43.3125 58.59375 39.234375 62.25 
Q 35.15625 65.921875 28.609375 65.921875 
Q 23.96875 65.921875 18.8125 64.3125 
Q 13.671875 62.703125 7.8125 59.421875 
L 7.8125 69.390625 
Q 13.765625 71.78125 18.9375 73 
Q 24.125 74.21875 28.421875 74.21875 
Q 39.75 74.21875 46.484375 68.546875 
Q 53.21875 62.890625 53.21875 53.421875 
Q 53.21875 48.921875 51.53125 44.890625 
Q 49.859375 40.875 45.40625 35.40625 
Q 44.1875 33.984375 37.640625 27.21875 
Q 31.109375 20.453125 19.1875 8.296875 
z
" id="DejaVuSans-50"/>
       </defs>
       <use xlink:href="#DejaVuSans-50"/>
       <use x="63.623047" xlink:href="#DejaVuSans-48"/>
       <use x="127.246094" xlink:href="#DejaVuSans-48"/>
      </g>
     </g>
    </g>
   </g>
   <g id="line2d_6">
    <path clip-path="url(#p169a3828ac)" d="M 333.977273 248.86339 
L 320.99106 248.781528 
L 316.662322 248.272773 
L 315.21941 248.388485 
L 312.333585 248.78109 
L 309.44776 248.858966 
L 302.233197 248.774993 
L 300.790284 248.449932 
L 299.347372 247.621718 
L 297.904459 246.453486 
L 296.461547 245.859519 
L 295.018634 246.452795 
L 293.575722 247.620289 
L 292.132809 248.447393 
L 290.689897 248.770293 
L 287.804072 248.855983 
L 283.475334 248.803966 
L 282.032421 248.474558 
L 280.589509 247.056027 
L 279.146596 243.424729 
L 277.703684 238.313866 
L 276.260771 235.708176 
L 274.817859 238.311122 
L 273.374946 243.418359 
L 271.932034 247.04382 
L 270.489121 248.446002 
L 269.046209 248.753516 
L 266.160383 248.837714 
L 264.717471 248.828884 
L 263.274558 248.672946 
L 261.831646 247.607998 
L 260.388733 243.037797 
L 258.945821 231.325681 
L 257.502908 214.849524 
L 256.059996 206.442756 
L 254.617083 214.836278 
L 253.174171 231.292422 
L 251.731258 242.970351 
L 250.288346 247.431042 
L 248.845433 248.350165 
L 247.40252 248.642878 
L 245.959608 248.717897 
L 244.516695 248.340868 
L 243.073783 245.540225 
L 241.63087 233.532065 
L 240.187958 202.71184 
L 238.745045 159.38165 
L 237.302133 137.244902 
L 235.85922 159.322291 
L 234.416308 202.551278 
L 232.973395 233.202453 
L 231.530483 244.610795 
L 230.08757 246.637511 
L 228.644657 247.804847 
L 227.201745 248.427633 
L 225.758832 248.517161 
L 224.31592 248.075815 
L 222.873007 244.467125 
L 221.430095 229.038205 
L 219.987182 189.388772 
L 218.54427 133.66981 
L 217.101357 105.138299 
L 215.658445 133.438956 
L 214.215532 188.759124 
L 212.77262 227.713195 
L 211.329707 240.673635 
L 209.886794 241.043655 
L 208.443882 244.77161 
L 207.000969 247.27003 
L 205.558057 247.825546 
L 204.115144 247.53459 
L 202.672232 243.197147 
L 201.229319 224.446244 
L 199.786407 176.085962 
L 198.343494 108.146668 
L 196.900582 73.268601 
L 195.457669 107.676966 
L 194.014757 174.792554 
L 192.571844 221.685547 
L 191.128931 235.176223 
L 189.686019 232.59463 
L 188.243106 240.170946 
L 186.800194 245.527264 
L 185.357281 246.811004 
L 183.914369 246.867488 
L 182.471456 242.224678 
L 181.028544 221.82208 
L 179.585631 168.939562 
L 178.142719 94.672913 
L 176.699806 56.414516 
L 175.256894 93.872433 
L 173.813981 166.717783 
L 172.371069 217.025966 
L 170.928156 228.135444 
L 169.485243 220.525047 
L 168.042331 233.624918 
L 166.599418 243.142243 
L 165.156506 245.528794 
L 163.713593 246.075074 
L 162.270681 240.797079 
L 160.827768 216.885631 
L 159.384856 154.610483 
L 157.941943 67.093793 
L 156.499031 22.136364 
L 155.056118 66.545613 
L 153.613206 153.048251 
L 152.170293 213.378047 
L 150.72738 230.090191 
L 149.284468 225.827982 
L 147.841555 236.614095 
L 146.398643 244.233806 
L 144.95573 245.647922 
L 143.512818 242.662397 
L 142.069905 225.487719 
L 140.626993 180.817796 
L 139.18408 117.647864 
L 137.741168 85.450597 
L 136.298255 117.686164 
L 134.855343 180.775507 
L 133.41243 225.315866 
L 131.969517 241.161159 
L 130.526605 242.969642 
L 129.083692 245.893262 
L 127.64078 247.694141 
L 126.197867 248.1511 
L 124.754955 248.039956 
L 123.312042 245.616189 
L 121.86913 234.865851 
L 120.426217 207.142181 
L 118.983305 168.128736 
L 117.540392 148.21738 
L 116.09748 168.131856 
L 114.654567 207.128886 
L 113.211654 234.791588 
L 111.768742 245.228169 
L 110.325829 247.235655 
L 108.882917 248.135086 
L 107.440004 248.568766 
L 105.997092 248.672431 
L 104.554179 248.603566 
L 103.111267 247.74397 
L 101.668354 243.967981 
L 100.225442 234.24958 
L 98.782529 220.57342 
L 97.339617 213.59764 
L 95.896704 220.579897 
L 94.453791 234.260926 
L 93.010879 243.978397 
L 91.567966 247.724423 
L 90.125054 248.542176 
L 88.682141 248.74318 
L 85.796316 248.822158 
L 84.353404 248.795963 
L 82.910491 248.569941 
L 81.467579 247.578312 
L 80.024666 245.034266 
L 78.581754 241.451453 
L 77.138841 239.62619 
L 75.695928 241.453732 
L 74.253016 245.038548 
L 72.810103 247.583961 
L 71.367191 248.572874 
L 69.924278 248.794855 
L 65.595541 248.845605 
L 64.152628 248.795836 
L 62.709716 248.584707 
L 61.266803 248.036188 
L 59.823891 247.26787 
L 58.380978 246.873866 
L 56.938065 247.268886 
L 55.495153 248.038236 
L 54.05224 248.587743 
L 52.609328 248.799593 
L 48.28059 248.860459 
L 42.50894 248.813455 
L 38.180202 248.507237 
L 29.522727 248.861787 
L 29.522727 248.861787 
" style="fill:none;stroke:#000000;stroke-linecap:square;stroke-width:1.2;"/>
   </g>
   <g id="patch_3">
    <path d="M 14.3 260.2 
L 14.3 10.8 
" style="fill:none;stroke:#000000;stroke-linecap:square;stroke-linejoin:miter;stroke-width:0.8;"/>
   </g>
   <g id="patch_4">
    <path d="M 349.2 260.2 
L 349.2 10.8 
" style="fill:none;stroke:#000000;stroke-linecap:square;stroke-linejoin:miter;stroke-width:0.8;"/>
   </g>
   <g id="patch_5">
    <path d="M 14.3 260.2 
L 349.2 260.2 
" style="fill:none;stroke:#000000;stroke-linecap:square;stroke-linejoin:miter;stroke-width:0.8;"/>
   </g>
   <g id="patch_6">
    <path d="M 14.3 10.8 
L 349.2 10.8 
" style="fill:none;stroke:#000000;stroke-linecap:square;stroke-linejoin:miter;stroke-width:0.8;"/>
   </g>
  </g>
 </g>
 <defs>
  <clipPath id="p169a3828ac">
   <rect height="249.4" width="334.9" x="14.3" y="10.8"/>
  </clipPath>
 </defs>
</svg>
