<?xml version="1.0" encoding="utf-8" standalone="no"?>
<!DOCTYPE svg PUBLIC "-//W3C//DTD SVG 1.1//EN"
  "http://www.w3.org/Graphics/SVG/1.1/DTD/svg11.dtd">
<!-- Created with matplotlib (https://matplotlib.org/) -->
<svg height="288pt" version="1.1" viewBox="0 0 360 288" width="360pt" xmlns="http://www.w3.org/2000/svg" xmlns:xlink="http://www.w3.org/1999/xlink">
 <metadata>
  <rdf:RDF xmlns:cc="http://creativecommons.org/ns#" xmlns:dc="http://purl.org/dc/elements/1.1/" xmlns:rdf="http://www.w3.org/1999/02/22-rdf-syntax-ns#">
   <cc:Work>
    <dc:type rdf:resource="http://purl.org/dc/dcmitype/StillImage"/>
    <dc:date>2021-08-09T15:09:41.492939</dc:date>
    <dc:format>image/svg+xml</dc:format>
    <dc:creator>
     <cc:Agent>
      <dc:title>Matplotlib v3.3.4, https://matplotlib.org/</dc:title>
     </cc:Agent>
    </dc:creator>
   </cc:Work>
  </rdf:RDF>
 </metadata>
 <defs>
  <style type="text/css">*{stroke-linecap:butt;stroke-linejoin:round;}</style>
 </defs>
 <g id="figure_1">
  <g id="patch_1">
   <path d="M 0 288 
L 360 288 
L 360 0 
L 0 0 
z
" style="fill:none;"/>
  </g>
  <g id="axes_1">
   <g id="patch_2">
    <path d="M 14.3 260.2 
L 349.2 260.2 
L 349.2 10.8 
L 14.3 10.8 
z
" style="fill:none;"/>
   </g>
   <g id="matplotlib.axis_1">
    <g id="xtick_1">
     <g id="line2d_1">
      <defs>
       <path d="M 0 0 
L 0 3.5 
" id="ma117ac348b" style="stroke:#000000;stroke-width:0.8;"/>
      </defs>
      <g>
       <use style="stroke:#000000;stroke-width:0.8;" x="333.977273" xlink:href="#ma117ac348b" y="260.2"/>
      </g>
     </g>
     <g id="text_1">
      <!-- 0 -->
      <g transform="translate(330.796023 274.798437)scale(0.1 -0.1)">
       <defs>
        <path d="M 31.78125 66.40625 
Q 24.171875 66.40625 20.328125 58.90625 
Q 16.5 51.421875 16.5 36.375 
Q 16.5 21.390625 20.328125 13.890625 
Q 24.171875 6.390625 31.78125 6.390625 
Q 39.453125 6.390625 43.28125 13.890625 
Q 47.125 21.390625 47.125 36.375 
Q 47.125 51.421875 43.28125 58.90625 
Q 39.453125 66.40625 31.78125 66.40625 
z
M 31.78125 74.21875 
Q 44.046875 74.21875 50.515625 64.515625 
Q 56.984375 54.828125 56.984375 36.375 
Q 56.984375 17.96875 50.515625 8.265625 
Q 44.046875 -1.421875 31.78125 -1.421875 
Q 19.53125 -1.421875 13.0625 8.265625 
Q 6.59375 17.96875 6.59375 36.375 
Q 6.59375 54.828125 13.0625 64.515625 
Q 19.53125 74.21875 31.78125 74.21875 
z
" id="DejaVuSans-48"/>
       </defs>
       <use xlink:href="#DejaVuSans-48"/>
      </g>
     </g>
    </g>
    <g id="xtick_2">
     <g id="line2d_2">
      <g>
       <use style="stroke:#000000;stroke-width:0.8;" x="259.629398" xlink:href="#ma117ac348b" y="260.2"/>
      </g>
     </g>
     <g id="text_2">
      <!-- 1000 -->
      <g transform="translate(246.904398 274.798437)scale(0.1 -0.1)">
       <defs>
        <path d="M 12.40625 8.296875 
L 28.515625 8.296875 
L 28.515625 63.921875 
L 10.984375 60.40625 
L 10.984375 69.390625 
L 28.421875 72.90625 
L 38.28125 72.90625 
L 38.28125 8.296875 
L 54.390625 8.296875 
L 54.390625 0 
L 12.40625 0 
z
" id="DejaVuSans-49"/>
       </defs>
       <use xlink:href="#DejaVuSans-49"/>
       <use x="63.623047" xlink:href="#DejaVuSans-48"/>
       <use x="127.246094" xlink:href="#DejaVuSans-48"/>
       <use x="190.869141" xlink:href="#DejaVuSans-48"/>
      </g>
     </g>
    </g>
    <g id="xtick_3">
     <g id="line2d_3">
      <g>
       <use style="stroke:#000000;stroke-width:0.8;" x="185.281524" xlink:href="#ma117ac348b" y="260.2"/>
      </g>
     </g>
     <g id="text_3">
      <!-- 2000 -->
      <g transform="translate(172.556524 274.798437)scale(0.1 -0.1)">
       <defs>
        <path d="M 19.1875 8.296875 
L 53.609375 8.296875 
L 53.609375 0 
L 7.328125 0 
L 7.328125 8.296875 
Q 12.9375 14.109375 22.625 23.890625 
Q 32.328125 33.6875 34.8125 36.53125 
Q 39.546875 41.84375 41.421875 45.53125 
Q 43.3125 49.21875 43.3125 52.78125 
Q 43.3125 58.59375 39.234375 62.25 
Q 35.15625 65.921875 28.609375 65.921875 
Q 23.96875 65.921875 18.8125 64.3125 
Q 13.671875 62.703125 7.8125 59.421875 
L 7.8125 69.390625 
Q 13.765625 71.78125 18.9375 73 
Q 24.125 74.21875 28.421875 74.21875 
Q 39.75 74.21875 46.484375 68.546875 
Q 53.21875 62.890625 53.21875 53.421875 
Q 53.21875 48.921875 51.53125 44.890625 
Q 49.859375 40.875 45.40625 35.40625 
Q 44.1875 33.984375 37.640625 27.21875 
Q 31.109375 20.453125 19.1875 8.296875 
z
" id="DejaVuSans-50"/>
       </defs>
       <use xlink:href="#DejaVuSans-50"/>
       <use x="63.623047" xlink:href="#DejaVuSans-48"/>
       <use x="127.246094" xlink:href="#DejaVuSans-48"/>
       <use x="190.869141" xlink:href="#DejaVuSans-48"/>
      </g>
     </g>
    </g>
    <g id="xtick_4">
     <g id="line2d_4">
      <g>
       <use style="stroke:#000000;stroke-width:0.8;" x="110.93365" xlink:href="#ma117ac348b" y="260.2"/>
      </g>
     </g>
     <g id="text_4">
      <!-- 3000 -->
      <g transform="translate(98.20865 274.798437)scale(0.1 -0.1)">
       <defs>
        <path d="M 40.578125 39.3125 
Q 47.65625 37.796875 51.625 33 
Q 55.609375 28.21875 55.609375 21.1875 
Q 55.609375 10.40625 48.1875 4.484375 
Q 40.765625 -1.421875 27.09375 -1.421875 
Q 22.515625 -1.421875 17.65625 -0.515625 
Q 12.796875 0.390625 7.625 2.203125 
L 7.625 11.71875 
Q 11.71875 9.328125 16.59375 8.109375 
Q 21.484375 6.890625 26.8125 6.890625 
Q 36.078125 6.890625 40.9375 10.546875 
Q 45.796875 14.203125 45.796875 21.1875 
Q 45.796875 27.640625 41.28125 31.265625 
Q 36.765625 34.90625 28.71875 34.90625 
L 20.21875 34.90625 
L 20.21875 43.015625 
L 29.109375 43.015625 
Q 36.375 43.015625 40.234375 45.921875 
Q 44.09375 48.828125 44.09375 54.296875 
Q 44.09375 59.90625 40.109375 62.90625 
Q 36.140625 65.921875 28.71875 65.921875 
Q 24.65625 65.921875 20.015625 65.03125 
Q 15.375 64.15625 9.8125 62.3125 
L 9.8125 71.09375 
Q 15.4375 72.65625 20.34375 73.4375 
Q 25.25 74.21875 29.59375 74.21875 
Q 40.828125 74.21875 47.359375 69.109375 
Q 53.90625 64.015625 53.90625 55.328125 
Q 53.90625 49.265625 50.4375 45.09375 
Q 46.96875 40.921875 40.578125 39.3125 
z
" id="DejaVuSans-51"/>
       </defs>
       <use xlink:href="#DejaVuSans-51"/>
       <use x="63.623047" xlink:href="#DejaVuSans-48"/>
       <use x="127.246094" xlink:href="#DejaVuSans-48"/>
       <use x="190.869141" xlink:href="#DejaVuSans-48"/>
      </g>
     </g>
    </g>
    <g id="xtick_5">
     <g id="line2d_5">
      <g>
       <use style="stroke:#000000;stroke-width:0.8;" x="36.585775" xlink:href="#ma117ac348b" y="260.2"/>
      </g>
     </g>
     <g id="text_5">
      <!-- 4000 -->
      <g transform="translate(23.860775 274.798437)scale(0.1 -0.1)">
       <defs>
        <path d="M 37.796875 64.3125 
L 12.890625 25.390625 
L 37.796875 25.390625 
z
M 35.203125 72.90625 
L 47.609375 72.90625 
L 47.609375 25.390625 
L 58.015625 25.390625 
L 58.015625 17.1875 
L 47.609375 17.1875 
L 47.609375 0 
L 37.796875 0 
L 37.796875 17.1875 
L 4.890625 17.1875 
L 4.890625 26.703125 
z
" id="DejaVuSans-52"/>
       </defs>
       <use xlink:href="#DejaVuSans-52"/>
       <use x="63.623047" xlink:href="#DejaVuSans-48"/>
       <use x="127.246094" xlink:href="#DejaVuSans-48"/>
       <use x="190.869141" xlink:href="#DejaVuSans-48"/>
      </g>
     </g>
    </g>
   </g>
   <g id="line2d_6">
    <path clip-path="url(#p8f8a5edb56)" d="M 333.977273 248.862185 
L 280.967238 248.739968 
L 278.885498 248.581271 
L 278.067671 248.603317 
L 276.432018 248.689505 
L 272.268537 248.601316 
L 270.484188 248.402391 
L 269.740709 248.126961 
L 269.145926 247.657827 
L 268.699839 247.338086 
L 268.402448 247.403498 
L 267.064186 248.22077 
L 266.097663 248.333435 
L 264.46201 248.275659 
L 262.826357 248.017258 
L 261.859835 247.667968 
L 261.190704 247.206026 
L 260.670269 246.566935 
L 260.224181 245.617678 
L 259.852442 244.292079 
L 259.480703 242.160109 
L 258.662876 236.957838 
L 258.51418 237.30249 
L 258.216789 239.308658 
L 257.622006 243.510883 
L 257.175919 245.231811 
L 256.729831 246.165706 
L 256.209396 246.743379 
L 255.614613 247.060906 
L 254.871134 247.190189 
L 253.97896 247.107489 
L 253.086785 246.790627 
L 252.343307 246.273403 
L 251.748524 245.56844 
L 251.228089 244.559781 
L 250.782001 243.159257 
L 250.410262 241.311291 
L 250.038523 238.371557 
L 249.666783 233.59592 
L 249.146348 222.984813 
L 248.774609 217.132811 
L 248.700261 216.969704 
L 248.551565 217.901115 
L 248.254174 223.307916 
L 247.659391 234.616264 
L 247.213303 239.233195 
L 246.767216 241.721224 
L 246.321129 243.075532 
L 245.875042 243.800482 
L 245.428954 244.141287 
L 244.982867 244.216446 
L 244.53678 244.073359 
L 244.016345 243.678121 
L 243.49591 242.979996 
L 242.975475 241.90321 
L 242.455039 240.28215 
L 241.934604 237.805486 
L 241.488517 234.560013 
L 241.04243 229.534767 
L 240.67069 223.014695 
L 240.298951 212.805822 
L 239.927212 196.248054 
L 239.555472 169.475313 
L 238.737646 104.29394 
L 238.58895 108.845816 
L 238.291558 134.624415 
L 237.696775 188.564258 
L 237.250688 210.947231 
L 236.804601 223.433834 
L 236.358514 230.730161 
L 235.838079 235.818635 
L 235.317643 238.91101 
L 234.797208 240.850791 
L 234.128077 242.409604 
L 233.607642 243.102112 
L 233.087207 243.448355 
L 232.64112 243.490845 
L 232.269381 243.330594 
L 231.897641 242.952285 
L 231.525902 242.282558 
L 231.154163 241.190406 
L 230.782423 239.441724 
L 230.410684 236.612338 
L 230.038944 231.941326 
L 229.667205 224.239792 
L 228.775031 201.609443 
L 228.626335 203.104548 
L 228.328943 211.417572 
L 227.73416 228.778425 
L 227.288073 236.010975 
L 226.841986 240.074303 
L 226.321551 242.773263 
L 225.801116 244.355321 
L 225.206333 245.444627 
L 224.834593 245.795114 
L 224.61155 245.854611 
L 224.091114 246.564348 
L 223.347636 246.988726 
L 222.381113 247.271105 
L 221.488939 247.313223 
L 220.819808 247.134954 
L 220.373721 246.816242 
L 220.001981 246.317126 
L 219.630242 245.471095 
L 218.812415 243.388392 
L 218.66372 243.556144 
L 218.366328 244.44543 
L 217.697197 246.457 
L 217.176762 247.248551 
L 216.581979 247.708519 
L 215.8385 247.985123 
L 215.243717 248.016348 
L 215.020674 247.858628 
L 214.871978 247.491461 
L 214.648934 246.721055 
L 214.202847 248.101691 
L 213.831108 248.271719 
L 212.790238 248.394613 
L 210.708497 248.410961 
L 209.741975 248.231919 
L 208.701104 247.948931 
L 206.619364 248.497701 
L 205.727189 248.413298 
L 205.35545 248.15706 
L 205.132406 247.62996 
L 204.983711 246.649491 
L 204.686319 242.460529 
L 204.31458 247.539858 
L 204.017188 248.25011 
L 203.645449 248.484076 
L 202.90197 248.608772 
L 200.671534 248.667281 
L 196.805445 248.556803 
L 196.061966 248.325106 
L 195.690226 247.956736 
L 195.467183 247.431812 
L 195.244139 246.148796 
L 195.095443 243.990128 
L 194.946748 238.557166 
L 194.723704 227.534203 
L 194.351965 244.930839 
L 194.128921 247.017242 
L 193.83153 247.919423 
L 193.45979 248.31427 
L 192.939355 248.517849 
L 191.898485 248.639594 
L 189.445005 248.652651 
L 187.437612 248.485871 
L 186.694134 248.241011 
L 186.248046 247.885133 
L 185.950655 247.39482 
L 185.653263 246.34224 
L 185.43022 244.507689 
L 185.281524 241.884535 
L 185.132828 236.141075 
L 184.984133 221.685533 
L 184.761089 192.533525 
L 184.38935 238.667806 
L 184.166306 244.193005 
L 183.868914 246.581995 
L 183.497175 247.626711 
L 183.125436 248.060784 
L 182.605001 248.335395 
L 181.712826 248.513136 
L 180.077173 248.569323 
L 178.292824 248.431073 
L 177.326301 248.154302 
L 176.805866 247.805321 
L 176.434127 247.324858 
L 176.136735 246.617152 
L 175.839344 245.221963 
L 175.6163 243.051428 
L 175.393257 238.145414 
L 175.244561 230.566973 
L 175.095865 212.596475 
L 174.798474 137.072434 
L 174.426734 228.735059 
L 174.203691 239.701085 
L 173.906299 244.446038 
L 173.608908 246.251886 
L 173.237168 247.262102 
L 172.791081 247.824487 
L 172.196298 248.171214 
L 171.378472 248.37251 
L 170.04021 248.45542 
L 168.553252 248.343879 
L 167.58673 248.064153 
L 166.991947 247.653723 
L 166.620208 247.15733 
L 166.322816 246.459809 
L 166.025425 245.173565 
L 165.802381 243.338359 
L 165.579337 239.661352 
L 165.356294 230.67232 
L 165.207598 215.530374 
L 165.058902 177.401703 
L 164.835859 101.429085 
L 164.464119 222.368383 
L 164.241076 236.821628 
L 163.943684 243.080284 
L 163.646293 245.464845 
L 163.274553 246.801405 
L 162.828466 247.54865 
L 162.308031 247.974128 
L 161.564552 248.260617 
L 160.449334 248.425138 
L 158.888029 248.430855 
L 157.698463 248.241869 
L 157.029332 247.930594 
L 156.583245 247.478287 
L 156.285853 246.90588 
L 155.988462 245.814259 
L 155.765418 244.1928 
L 155.542374 240.74807 
L 155.393679 235.815214 
L 155.244983 224.999102 
L 155.096287 197.757651 
L 154.873243 143.804688 
L 154.501504 229.941008 
L 154.27846 240.222359 
L 153.981069 244.675564 
L 153.683677 246.371621 
L 153.311938 247.320759 
L 152.865851 247.848913 
L 152.271068 248.173584 
L 151.378893 248.368622 
L 149.966284 248.422039 
L 148.553674 248.272103 
L 147.6615 247.96834 
L 147.141064 247.585347 
L 146.694977 246.948383 
L 146.397586 246.166182 
L 146.100194 244.724786 
L 145.877151 242.668709 
L 145.654107 238.547886 
L 145.431063 228.467867 
L 145.282368 211.472598 
L 145.133672 168.661173 
L 144.910628 84.382374 
L 144.538889 219.325656 
L 144.315845 235.413288 
L 144.018454 242.384293 
L 143.721062 245.039979 
L 143.349323 246.526552 
L 142.903236 247.354286 
L 142.382801 247.820687 
L 141.71367 248.104755 
L 140.747147 248.260337 
L 139.408886 248.233993 
L 138.368015 248.011016 
L 137.698884 247.668277 
L 137.178449 247.143262 
L 136.80671 246.457978 
L 136.509318 245.516789 
L 136.211927 243.830426 
L 135.988883 241.512543 
L 135.76584 237.075678 
L 135.542796 227.027296 
L 135.3941 211.476711 
L 135.245405 174.53796 
L 134.948013 22.136364 
L 134.576274 208.230845 
L 134.35323 230.392837 
L 134.055839 240.003261 
L 133.758447 243.668457 
L 133.386708 245.724142 
L 132.94062 246.873733 
L 132.494533 247.459297 
L 131.89975 247.871355 
L 131.081924 248.138839 
L 129.892358 248.258848 
L 128.628444 248.158402 
L 127.810617 247.893441 
L 127.290182 247.526005 
L 126.844095 246.917389 
L 126.472355 245.925359 
L 126.174964 244.366478 
L 125.95192 242.138443 
L 125.728877 237.666255 
L 125.505833 226.712711 
L 125.357137 208.222518 
L 125.208442 161.622867 
L 124.985398 70.988978 
L 124.613659 216.978041 
L 124.390615 234.344605 
L 124.093223 241.880261 
L 123.795832 244.756102 
L 123.424093 246.37037 
L 122.978005 247.274212 
L 122.45757 247.789787 
L 121.788439 248.113964 
L 120.821917 248.315026 
L 119.409307 248.363477 
L 118.219741 248.208546 
L 117.476263 247.909006 
L 117.030175 247.530247 
L 116.658436 246.940339 
L 116.361045 246.066164 
L 116.063653 244.336004 
L 115.840609 241.636993 
L 115.617566 235.517313 
L 115.46887 226.037361 
L 115.320174 203.498894 
L 115.022783 111.36271 
L 114.651043 224.213617 
L 114.428 237.621991 
L 114.130608 243.442421 
L 113.833217 245.663876 
L 113.461477 246.910348 
L 113.01539 247.607237 
L 112.494955 248.003161 
L 111.751476 248.266968 
L 110.56191 248.41235 
L 109.074953 248.368798 
L 108.034083 248.14578 
L 107.364952 247.777286 
L 106.918864 247.266868 
L 106.547125 246.436827 
L 106.249734 245.133522 
L 106.02669 243.270962 
L 105.803646 239.530691 
L 105.580603 230.36351 
L 105.431907 214.874009 
L 105.283211 175.821621 
L 105.060168 100.78267 
L 104.688428 222.372518 
L 104.465385 236.802411 
L 104.167993 243.069721 
L 103.870602 245.463092 
L 103.498862 246.807194 
L 103.052775 247.560099 
L 102.53234 247.989933 
L 101.788861 248.280799 
L 100.673643 248.449866 
L 99.112338 248.458674 
L 97.922772 248.265596 
L 97.253641 247.942811 
L 96.807554 247.470732 
L 96.510162 246.871233 
L 96.212771 245.724926 
L 95.989727 244.017952 
L 95.766683 240.383666 
L 95.617988 235.165666 
L 95.469292 223.693564 
L 95.320596 194.762779 
L 95.097552 139.508766 
L 94.725813 229.312734 
L 94.502769 239.95882 
L 94.205378 244.586114 
L 93.907986 246.354879 
L 93.536247 247.349705 
L 93.09016 247.908628 
L 92.495377 248.260568 
L 91.603202 248.490458 
L 90.116245 248.619344 
L 88.1832 248.58354 
L 87.216678 248.397077 
L 86.696243 248.102903 
L 86.324503 247.608073 
L 86.027112 246.688113 
L 85.804068 245.075435 
L 85.655372 242.758183 
L 85.506677 237.660506 
L 85.357981 224.801319 
L 85.134937 200.390579 
L 84.763198 240.187899 
L 84.540154 244.900919 
L 84.242763 246.951157 
L 83.871023 247.854347 
L 83.424936 248.282011 
L 82.830153 248.520735 
L 81.714935 248.683787 
L 79.261455 248.761099 
L 77.031019 248.65321 
L 76.436236 248.45808 
L 76.138844 248.196819 
L 75.915801 247.765533 
L 75.692757 246.705577 
L 75.544061 244.910895 
L 75.395366 240.382387 
L 75.172322 231.837953 
L 74.800583 245.811506 
L 74.577539 247.464653 
L 74.280148 248.184445 
L 73.908408 248.501987 
L 73.313625 248.681345 
L 71.975364 248.788809 
L 67.88623 248.821919 
L 66.250577 248.70183 
L 65.878838 248.495546 
L 65.655794 248.083163 
L 65.507098 247.317323 
L 65.209707 244.257355 
L 64.837968 248.035554 
L 64.540576 248.552743 
L 64.094489 248.73796 
L 63.053619 248.823006 
L 58.295355 248.853274 
L 55.841875 248.755261 
L 55.618831 248.610383 
L 55.470135 248.321519 
L 55.247092 247.783074 
L 54.875352 248.669347 
L 54.503613 248.802959 
L 53.239699 248.853047 
L 45.656216 248.812799 
L 45.135781 248.745607 
L 44.764042 248.841452 
L 42.682301 248.862836 
L 29.522727 248.862206 
L 29.522727 248.862206 
" style="fill:none;stroke:#000000;stroke-linecap:square;stroke-width:1.2;"/>
   </g>
   <g id="patch_3">
    <path d="M 14.3 260.2 
L 14.3 10.8 
" style="fill:none;stroke:#000000;stroke-linecap:square;stroke-linejoin:miter;stroke-width:0.8;"/>
   </g>
   <g id="patch_4">
    <path d="M 349.2 260.2 
L 349.2 10.8 
" style="fill:none;stroke:#000000;stroke-linecap:square;stroke-linejoin:miter;stroke-width:0.8;"/>
   </g>
   <g id="patch_5">
    <path d="M 14.3 260.2 
L 349.2 260.2 
" style="fill:none;stroke:#000000;stroke-linecap:square;stroke-linejoin:miter;stroke-width:0.8;"/>
   </g>
   <g id="patch_6">
    <path d="M 14.3 10.8 
L 349.2 10.8 
" style="fill:none;stroke:#000000;stroke-linecap:square;stroke-linejoin:miter;stroke-width:0.8;"/>
   </g>
  </g>
 </g>
 <defs>
  <clipPath id="p8f8a5edb56">
   <rect height="249.4" width="334.9" x="14.3" y="10.8"/>
  </clipPath>
 </defs>
</svg>
