<?xml version="1.0" encoding="utf-8" standalone="no"?>
<!DOCTYPE svg PUBLIC "-//W3C//DTD SVG 1.1//EN"
  "http://www.w3.org/Graphics/SVG/1.1/DTD/svg11.dtd">
<svg height="288pt" version="1.1" viewBox="0 0 360 288" width="360pt" xmlns="http://www.w3.org/2000/svg" xmlns:xlink="http://www.w3.org/1999/xlink">
 <metadata>
  <rdf:RDF xmlns:cc="http://creativecommons.org/ns#" xmlns:dc="http://purl.org/dc/elements/1.1/" xmlns:rdf="http://www.w3.org/1999/02/22-rdf-syntax-ns#">
   <cc:Work>
    <dc:type rdf:resource="http://purl.org/dc/dcmitype/StillImage"/>
    <dc:date>2021-08-08T22:02:21.616910</dc:date>
    <dc:format>image/svg+xml</dc:format>
    <dc:creator>
     <cc:Agent>
      <dc:title>Matplotlib v3.4.2, https://matplotlib.org/</dc:title>
     </cc:Agent>
    </dc:creator>
   </cc:Work>
  </rdf:RDF>
 </metadata>
 <defs>
  <style type="text/css">*{stroke-linecap:butt;stroke-linejoin:round;}</style>
 </defs>
 <g id="figure_1">
  <g id="patch_1">
   <path d="M 0 288 
L 360 288 
L 360 0 
L 0 0 
z
" style="fill:none;"/>
  </g>
  <g id="axes_1">
   <g id="patch_2">
    <path d="M 14.3 246.2 
L 338.413191 246.2 
L 338.413191 10.8 
L 14.3 10.8 
z
" style="fill:none;"/>
   </g>
   <g id="matplotlib.axis_1">
    <g id="xtick_1">
     <g id="line2d_1">
      <defs>
       <path d="M 0 0 
L 0 3.5 
" id="m5ee8a10000" style="stroke:#000000;stroke-width:0.8;"/>
      </defs>
      <g>
       <use style="stroke:#000000;stroke-width:0.8;" x="331.485776" xlink:href="#m5ee8a10000" y="246.2"/>
      </g>
     </g>
     <g id="text_1">
      <!-- −1000 -->
      <g transform="translate(314.570932 260.798437)scale(0.1 -0.1)">
       <defs>
        <path d="M 678 2272 
L 4684 2272 
L 4684 1741 
L 678 1741 
L 678 2272 
z
" id="DejaVuSans-2212" transform="scale(0.015625)"/>
        <path d="M 794 531 
L 1825 531 
L 1825 4091 
L 703 3866 
L 703 4441 
L 1819 4666 
L 2450 4666 
L 2450 531 
L 3481 531 
L 3481 0 
L 794 0 
L 794 531 
z
" id="DejaVuSans-31" transform="scale(0.015625)"/>
        <path d="M 2034 4250 
Q 1547 4250 1301 3770 
Q 1056 3291 1056 2328 
Q 1056 1369 1301 889 
Q 1547 409 2034 409 
Q 2525 409 2770 889 
Q 3016 1369 3016 2328 
Q 3016 3291 2770 3770 
Q 2525 4250 2034 4250 
z
M 2034 4750 
Q 2819 4750 3233 4129 
Q 3647 3509 3647 2328 
Q 3647 1150 3233 529 
Q 2819 -91 2034 -91 
Q 1250 -91 836 529 
Q 422 1150 422 2328 
Q 422 3509 836 4129 
Q 1250 4750 2034 4750 
z
" id="DejaVuSans-30" transform="scale(0.015625)"/>
       </defs>
       <use xlink:href="#DejaVuSans-2212"/>
       <use x="83.789062" xlink:href="#DejaVuSans-31"/>
       <use x="147.412109" xlink:href="#DejaVuSans-30"/>
       <use x="211.035156" xlink:href="#DejaVuSans-30"/>
       <use x="274.658203" xlink:href="#DejaVuSans-30"/>
      </g>
     </g>
    </g>
    <g id="xtick_2">
     <g id="line2d_2">
      <g>
       <use style="stroke:#000000;stroke-width:0.8;" x="291.675676" xlink:href="#m5ee8a10000" y="246.2"/>
      </g>
     </g>
     <g id="text_2">
      <!-- −750 -->
      <g transform="translate(277.942083 260.798437)scale(0.1 -0.1)">
       <defs>
        <path d="M 525 4666 
L 3525 4666 
L 3525 4397 
L 1831 0 
L 1172 0 
L 2766 4134 
L 525 4134 
L 525 4666 
z
" id="DejaVuSans-37" transform="scale(0.015625)"/>
        <path d="M 691 4666 
L 3169 4666 
L 3169 4134 
L 1269 4134 
L 1269 2991 
Q 1406 3038 1543 3061 
Q 1681 3084 1819 3084 
Q 2600 3084 3056 2656 
Q 3513 2228 3513 1497 
Q 3513 744 3044 326 
Q 2575 -91 1722 -91 
Q 1428 -91 1123 -41 
Q 819 9 494 109 
L 494 744 
Q 775 591 1075 516 
Q 1375 441 1709 441 
Q 2250 441 2565 725 
Q 2881 1009 2881 1497 
Q 2881 1984 2565 2268 
Q 2250 2553 1709 2553 
Q 1456 2553 1204 2497 
Q 953 2441 691 2322 
L 691 4666 
z
" id="DejaVuSans-35" transform="scale(0.015625)"/>
       </defs>
       <use xlink:href="#DejaVuSans-2212"/>
       <use x="83.789062" xlink:href="#DejaVuSans-37"/>
       <use x="147.412109" xlink:href="#DejaVuSans-35"/>
       <use x="211.035156" xlink:href="#DejaVuSans-30"/>
      </g>
     </g>
    </g>
    <g id="xtick_3">
     <g id="line2d_3">
      <g>
       <use style="stroke:#000000;stroke-width:0.8;" x="251.865577" xlink:href="#m5ee8a10000" y="246.2"/>
      </g>
     </g>
     <g id="text_3">
      <!-- −500 -->
      <g transform="translate(238.131983 260.798437)scale(0.1 -0.1)">
       <use xlink:href="#DejaVuSans-2212"/>
       <use x="83.789062" xlink:href="#DejaVuSans-35"/>
       <use x="147.412109" xlink:href="#DejaVuSans-30"/>
       <use x="211.035156" xlink:href="#DejaVuSans-30"/>
      </g>
     </g>
    </g>
    <g id="xtick_4">
     <g id="line2d_4">
      <g>
       <use style="stroke:#000000;stroke-width:0.8;" x="212.055478" xlink:href="#m5ee8a10000" y="246.2"/>
      </g>
     </g>
     <g id="text_4">
      <!-- −250 -->
      <g transform="translate(198.321884 260.798437)scale(0.1 -0.1)">
       <defs>
        <path d="M 1228 531 
L 3431 531 
L 3431 0 
L 469 0 
L 469 531 
Q 828 903 1448 1529 
Q 2069 2156 2228 2338 
Q 2531 2678 2651 2914 
Q 2772 3150 2772 3378 
Q 2772 3750 2511 3984 
Q 2250 4219 1831 4219 
Q 1534 4219 1204 4116 
Q 875 4013 500 3803 
L 500 4441 
Q 881 4594 1212 4672 
Q 1544 4750 1819 4750 
Q 2544 4750 2975 4387 
Q 3406 4025 3406 3419 
Q 3406 3131 3298 2873 
Q 3191 2616 2906 2266 
Q 2828 2175 2409 1742 
Q 1991 1309 1228 531 
z
" id="DejaVuSans-32" transform="scale(0.015625)"/>
       </defs>
       <use xlink:href="#DejaVuSans-2212"/>
       <use x="83.789062" xlink:href="#DejaVuSans-32"/>
       <use x="147.412109" xlink:href="#DejaVuSans-35"/>
       <use x="211.035156" xlink:href="#DejaVuSans-30"/>
      </g>
     </g>
    </g>
    <g id="xtick_5">
     <g id="line2d_5">
      <g>
       <use style="stroke:#000000;stroke-width:0.8;" x="172.245378" xlink:href="#m5ee8a10000" y="246.2"/>
      </g>
     </g>
     <g id="text_5">
      <!-- 0 -->
      <g transform="translate(169.064128 260.798437)scale(0.1 -0.1)">
       <use xlink:href="#DejaVuSans-30"/>
      </g>
     </g>
    </g>
    <g id="xtick_6">
     <g id="line2d_6">
      <g>
       <use style="stroke:#000000;stroke-width:0.8;" x="132.435279" xlink:href="#m5ee8a10000" y="246.2"/>
      </g>
     </g>
     <g id="text_6">
      <!-- 250 -->
      <g transform="translate(122.891529 260.798437)scale(0.1 -0.1)">
       <use xlink:href="#DejaVuSans-32"/>
       <use x="63.623047" xlink:href="#DejaVuSans-35"/>
       <use x="127.246094" xlink:href="#DejaVuSans-30"/>
      </g>
     </g>
    </g>
    <g id="xtick_7">
     <g id="line2d_7">
      <g>
       <use style="stroke:#000000;stroke-width:0.8;" x="92.62518" xlink:href="#m5ee8a10000" y="246.2"/>
      </g>
     </g>
     <g id="text_7">
      <!-- 500 -->
      <g transform="translate(83.08143 260.798437)scale(0.1 -0.1)">
       <use xlink:href="#DejaVuSans-35"/>
       <use x="63.623047" xlink:href="#DejaVuSans-30"/>
       <use x="127.246094" xlink:href="#DejaVuSans-30"/>
      </g>
     </g>
    </g>
    <g id="xtick_8">
     <g id="line2d_8">
      <g>
       <use style="stroke:#000000;stroke-width:0.8;" x="52.81508" xlink:href="#m5ee8a10000" y="246.2"/>
      </g>
     </g>
     <g id="text_8">
      <!-- 750 -->
      <g transform="translate(43.27133 260.798437)scale(0.1 -0.1)">
       <use xlink:href="#DejaVuSans-37"/>
       <use x="63.623047" xlink:href="#DejaVuSans-35"/>
       <use x="127.246094" xlink:href="#DejaVuSans-30"/>
      </g>
     </g>
    </g>
    <g id="text_9">
     <!-- Frequency / (ppm) -->
     <g transform="translate(130.544095 274.476562)scale(0.1 -0.1)">
      <defs>
       <path d="M 628 4666 
L 3309 4666 
L 3309 4134 
L 1259 4134 
L 1259 2759 
L 3109 2759 
L 3109 2228 
L 1259 2228 
L 1259 0 
L 628 0 
L 628 4666 
z
" id="DejaVuSans-46" transform="scale(0.015625)"/>
       <path d="M 2631 2963 
Q 2534 3019 2420 3045 
Q 2306 3072 2169 3072 
Q 1681 3072 1420 2755 
Q 1159 2438 1159 1844 
L 1159 0 
L 581 0 
L 581 3500 
L 1159 3500 
L 1159 2956 
Q 1341 3275 1631 3429 
Q 1922 3584 2338 3584 
Q 2397 3584 2469 3576 
Q 2541 3569 2628 3553 
L 2631 2963 
z
" id="DejaVuSans-72" transform="scale(0.015625)"/>
       <path d="M 3597 1894 
L 3597 1613 
L 953 1613 
Q 991 1019 1311 708 
Q 1631 397 2203 397 
Q 2534 397 2845 478 
Q 3156 559 3463 722 
L 3463 178 
Q 3153 47 2828 -22 
Q 2503 -91 2169 -91 
Q 1331 -91 842 396 
Q 353 884 353 1716 
Q 353 2575 817 3079 
Q 1281 3584 2069 3584 
Q 2775 3584 3186 3129 
Q 3597 2675 3597 1894 
z
M 3022 2063 
Q 3016 2534 2758 2815 
Q 2500 3097 2075 3097 
Q 1594 3097 1305 2825 
Q 1016 2553 972 2059 
L 3022 2063 
z
" id="DejaVuSans-65" transform="scale(0.015625)"/>
       <path d="M 947 1747 
Q 947 1113 1208 752 
Q 1469 391 1925 391 
Q 2381 391 2643 752 
Q 2906 1113 2906 1747 
Q 2906 2381 2643 2742 
Q 2381 3103 1925 3103 
Q 1469 3103 1208 2742 
Q 947 2381 947 1747 
z
M 2906 525 
Q 2725 213 2448 61 
Q 2172 -91 1784 -91 
Q 1150 -91 751 415 
Q 353 922 353 1747 
Q 353 2572 751 3078 
Q 1150 3584 1784 3584 
Q 2172 3584 2448 3432 
Q 2725 3281 2906 2969 
L 2906 3500 
L 3481 3500 
L 3481 -1331 
L 2906 -1331 
L 2906 525 
z
" id="DejaVuSans-71" transform="scale(0.015625)"/>
       <path d="M 544 1381 
L 544 3500 
L 1119 3500 
L 1119 1403 
Q 1119 906 1312 657 
Q 1506 409 1894 409 
Q 2359 409 2629 706 
Q 2900 1003 2900 1516 
L 2900 3500 
L 3475 3500 
L 3475 0 
L 2900 0 
L 2900 538 
Q 2691 219 2414 64 
Q 2138 -91 1772 -91 
Q 1169 -91 856 284 
Q 544 659 544 1381 
z
M 1991 3584 
L 1991 3584 
z
" id="DejaVuSans-75" transform="scale(0.015625)"/>
       <path d="M 3513 2113 
L 3513 0 
L 2938 0 
L 2938 2094 
Q 2938 2591 2744 2837 
Q 2550 3084 2163 3084 
Q 1697 3084 1428 2787 
Q 1159 2491 1159 1978 
L 1159 0 
L 581 0 
L 581 3500 
L 1159 3500 
L 1159 2956 
Q 1366 3272 1645 3428 
Q 1925 3584 2291 3584 
Q 2894 3584 3203 3211 
Q 3513 2838 3513 2113 
z
" id="DejaVuSans-6e" transform="scale(0.015625)"/>
       <path d="M 3122 3366 
L 3122 2828 
Q 2878 2963 2633 3030 
Q 2388 3097 2138 3097 
Q 1578 3097 1268 2742 
Q 959 2388 959 1747 
Q 959 1106 1268 751 
Q 1578 397 2138 397 
Q 2388 397 2633 464 
Q 2878 531 3122 666 
L 3122 134 
Q 2881 22 2623 -34 
Q 2366 -91 2075 -91 
Q 1284 -91 818 406 
Q 353 903 353 1747 
Q 353 2603 823 3093 
Q 1294 3584 2113 3584 
Q 2378 3584 2631 3529 
Q 2884 3475 3122 3366 
z
" id="DejaVuSans-63" transform="scale(0.015625)"/>
       <path d="M 2059 -325 
Q 1816 -950 1584 -1140 
Q 1353 -1331 966 -1331 
L 506 -1331 
L 506 -850 
L 844 -850 
Q 1081 -850 1212 -737 
Q 1344 -625 1503 -206 
L 1606 56 
L 191 3500 
L 800 3500 
L 1894 763 
L 2988 3500 
L 3597 3500 
L 2059 -325 
z
" id="DejaVuSans-79" transform="scale(0.015625)"/>
       <path id="DejaVuSans-20" transform="scale(0.015625)"/>
       <path d="M 1625 4666 
L 2156 4666 
L 531 -594 
L 0 -594 
L 1625 4666 
z
" id="DejaVuSans-2f" transform="scale(0.015625)"/>
       <path d="M 1984 4856 
Q 1566 4138 1362 3434 
Q 1159 2731 1159 2009 
Q 1159 1288 1364 580 
Q 1569 -128 1984 -844 
L 1484 -844 
Q 1016 -109 783 600 
Q 550 1309 550 2009 
Q 550 2706 781 3412 
Q 1013 4119 1484 4856 
L 1984 4856 
z
" id="DejaVuSans-28" transform="scale(0.015625)"/>
       <path d="M 1159 525 
L 1159 -1331 
L 581 -1331 
L 581 3500 
L 1159 3500 
L 1159 2969 
Q 1341 3281 1617 3432 
Q 1894 3584 2278 3584 
Q 2916 3584 3314 3078 
Q 3713 2572 3713 1747 
Q 3713 922 3314 415 
Q 2916 -91 2278 -91 
Q 1894 -91 1617 61 
Q 1341 213 1159 525 
z
M 3116 1747 
Q 3116 2381 2855 2742 
Q 2594 3103 2138 3103 
Q 1681 3103 1420 2742 
Q 1159 2381 1159 1747 
Q 1159 1113 1420 752 
Q 1681 391 2138 391 
Q 2594 391 2855 752 
Q 3116 1113 3116 1747 
z
" id="DejaVuSans-70" transform="scale(0.015625)"/>
       <path d="M 3328 2828 
Q 3544 3216 3844 3400 
Q 4144 3584 4550 3584 
Q 5097 3584 5394 3201 
Q 5691 2819 5691 2113 
L 5691 0 
L 5113 0 
L 5113 2094 
Q 5113 2597 4934 2840 
Q 4756 3084 4391 3084 
Q 3944 3084 3684 2787 
Q 3425 2491 3425 1978 
L 3425 0 
L 2847 0 
L 2847 2094 
Q 2847 2600 2669 2842 
Q 2491 3084 2119 3084 
Q 1678 3084 1418 2786 
Q 1159 2488 1159 1978 
L 1159 0 
L 581 0 
L 581 3500 
L 1159 3500 
L 1159 2956 
Q 1356 3278 1631 3431 
Q 1906 3584 2284 3584 
Q 2666 3584 2933 3390 
Q 3200 3197 3328 2828 
z
" id="DejaVuSans-6d" transform="scale(0.015625)"/>
       <path d="M 513 4856 
L 1013 4856 
Q 1481 4119 1714 3412 
Q 1947 2706 1947 2009 
Q 1947 1309 1714 600 
Q 1481 -109 1013 -844 
L 513 -844 
Q 928 -128 1133 580 
Q 1338 1288 1338 2009 
Q 1338 2731 1133 3434 
Q 928 4138 513 4856 
z
" id="DejaVuSans-29" transform="scale(0.015625)"/>
      </defs>
      <use xlink:href="#DejaVuSans-46"/>
      <use x="50.269531" xlink:href="#DejaVuSans-72"/>
      <use x="89.132812" xlink:href="#DejaVuSans-65"/>
      <use x="150.65625" xlink:href="#DejaVuSans-71"/>
      <use x="214.132812" xlink:href="#DejaVuSans-75"/>
      <use x="277.511719" xlink:href="#DejaVuSans-65"/>
      <use x="339.035156" xlink:href="#DejaVuSans-6e"/>
      <use x="402.414062" xlink:href="#DejaVuSans-63"/>
      <use x="457.394531" xlink:href="#DejaVuSans-79"/>
      <use x="516.574219" xlink:href="#DejaVuSans-20"/>
      <use x="548.361328" xlink:href="#DejaVuSans-2f"/>
      <use x="582.052734" xlink:href="#DejaVuSans-20"/>
      <use x="613.839844" xlink:href="#DejaVuSans-28"/>
      <use x="652.853516" xlink:href="#DejaVuSans-70"/>
      <use x="716.330078" xlink:href="#DejaVuSans-70"/>
      <use x="779.806641" xlink:href="#DejaVuSans-6d"/>
      <use x="877.21875" xlink:href="#DejaVuSans-29"/>
     </g>
    </g>
   </g>
   <g id="line2d_9">
    <path clip-path="url(#p68306f8629)" d="M 338.413191 235.499996 
L 286.814656 235.405455 
L 286.695948 235.444124 
L 286.379392 235.495599 
L 279.256895 235.499122 
L 275.220813 235.394301 
L 275.102105 235.027031 
L 275.062536 234.887563 
L 275.022966 235.024153 
L 274.825119 235.447286 
L 274.350286 235.492853 
L 266.594678 235.49734 
L 263.706109 235.394244 
L 263.547832 235.188819 
L 263.468693 234.78758 
L 263.349985 232.867758 
L 263.310415 233.446933 
L 263.152137 235.184975 
L 262.95429 235.413262 
L 262.439888 235.481596 
L 258.997347 235.496624 
L 252.310114 235.387948 
L 252.033128 235.190947 
L 251.87485 234.694737 
L 251.756142 232.928308 
L 251.637434 225.972474 
L 251.597864 228.018427 
L 251.439587 234.352177 
L 251.241739 235.187095 
L 250.964753 235.386791 
L 250.371212 235.465369 
L 247.04738 235.491884 
L 241.032827 235.375926 
L 240.597563 235.173376 
L 240.399716 234.862369 
L 240.241438 234.115711 
L 240.12273 232.212095 
L 240.043591 227.983612 
L 239.924883 207.52917 
L 239.885313 213.207811 
L 239.687466 233.050789 
L 239.489619 234.725101 
L 239.252202 235.168206 
L 238.896078 235.354592 
L 238.02555 235.451947 
L 233.949899 235.480225 
L 229.913817 235.368097 
L 229.280706 235.179873 
L 229.00372 234.93018 
L 228.766304 234.361039 
L 228.608026 233.322952 
L 228.489318 231.217404 
L 228.37061 224.120619 
L 228.291471 205.816952 
L 228.212332 168.437098 
L 228.172762 180.097392 
L 227.974915 229.376022 
L 227.777068 233.591555 
L 227.539652 234.689972 
L 227.262666 235.089763 
L 226.787832 235.311295 
L 225.759027 235.427321 
L 221.920793 235.461175 
L 218.6761 235.343463 
L 217.92428 235.154555 
L 217.528586 234.853277 
L 217.2516 234.305706 
L 217.053753 233.349828 
L 216.895475 231.397413 
L 216.776767 227.458001 
L 216.658059 214.239682 
L 216.57892 180.353538 
L 216.499781 109.507448 
L 216.460212 128.286675 
L 216.262364 223.588901 
L 216.064517 231.830237 
L 215.827101 233.951356 
L 215.550115 234.719015 
L 215.15442 235.102984 
L 214.52131 235.306471 
L 213.057241 235.418997 
L 209.693839 235.429496 
L 207.121826 235.266479 
L 206.409577 235.035828 
L 206.013882 234.704129 
L 205.736896 234.195409 
L 205.49948 233.220209 
L 205.301633 231.220214 
L 205.143355 226.911358 
L 205.024647 217.561011 
L 204.905938 180.381529 
L 204.78723 21.5 
L 204.747661 39.815452 
L 204.549813 213.50105 
L 204.351966 228.89477 
L 204.11455 232.747043 
L 203.837564 234.122839 
L 203.481439 234.766366 
L 203.046175 235.082475 
L 202.294356 235.287228 
L 200.948995 235.397099 
L 197.704302 235.429349 
L 195.211428 235.296718 
L 194.499179 235.075364 
L 194.143054 234.769209 
L 193.866068 234.205363 
L 193.668221 233.261018 
L 193.509943 231.485708 
L 193.351665 226.339644 
L 193.232957 212.103532 
L 193.153818 177.091606 
L 193.03511 91.023975 
L 192.837263 219.005787 
L 192.639415 230.688252 
L 192.401999 233.514287 
L 192.125013 234.506502 
L 191.768888 234.970312 
L 191.254485 235.21938 
L 190.344389 235.363628 
L 188.088931 235.436533 
L 184.092419 235.360068 
L 183.024044 235.161496 
L 182.549211 234.861664 
L 182.272225 234.439533 
L 182.034808 233.609927 
L 181.836961 231.845258 
L 181.678684 227.77387 
L 181.559975 217.965442 
L 181.480836 197.195417 
L 181.322559 80.431728 
L 181.282989 127.853549 
L 181.124712 217.797255 
L 180.926864 230.338991 
L 180.689448 233.372079 
L 180.412462 234.4368 
L 180.056337 234.934505 
L 179.581504 235.189151 
L 178.710976 235.349159 
L 176.653366 235.432481 
L 172.459007 235.373171 
L 171.311493 235.182747 
L 170.83666 234.904862 
L 170.559674 234.515377 
L 170.322258 233.750918 
L 170.12441 232.128134 
L 169.966133 228.410957 
L 169.847424 219.552239 
L 169.768286 200.974714 
L 169.610008 88.280396 
L 169.570438 131.37036 
L 169.412161 218.600269 
L 169.214314 230.624622 
L 168.976897 233.497361 
L 168.699911 234.499338 
L 168.343786 234.967449 
L 167.829384 235.217279 
L 166.958856 235.358159 
L 164.861676 235.43036 
L 160.983872 235.353253 
L 159.836359 235.156463 
L 159.282387 234.837308 
L 158.965832 234.387675 
L 158.728415 233.652204 
L 158.530568 232.278435 
L 158.37229 229.685178 
L 158.214012 222.089519 
L 158.095304 200.780389 
L 158.016165 147.513915 
L 157.937026 25.216048 
L 157.897457 36.057843 
L 157.69961 212.946756 
L 157.501763 228.808018 
L 157.264346 232.724675 
L 156.98736 234.114334 
L 156.631235 234.764356 
L 156.195972 235.082131 
L 155.483722 235.282568 
L 153.980084 235.404796 
L 149.983571 235.427369 
L 148.084239 235.287208 
L 147.490697 235.067215 
L 147.134572 234.68491 
L 146.897156 234.042166 
L 146.699309 232.668335 
L 146.541031 229.446686 
L 146.422323 221.49988 
L 146.343184 204.323238 
L 146.224475 114.143728 
L 146.184906 123.628321 
L 145.987059 222.90161 
L 145.789212 231.723532 
L 145.551795 233.924819 
L 145.274809 234.710068 
L 144.918684 235.077608 
L 144.404282 235.277857 
L 143.296338 235.406725 
L 139.893367 235.464543 
L 136.134271 235.353828 
L 135.54073 235.158969 
L 135.224174 234.809995 
L 135.026327 234.207699 
L 134.868049 232.907244 
L 134.749341 230.07767 
L 134.630633 218.753779 
L 134.511925 170.923725 
L 134.472355 177.616208 
L 134.274508 229.009778 
L 134.076661 233.535043 
L 133.839244 234.676267 
L 133.562258 235.085539 
L 133.126995 235.301149 
L 132.296037 235.418047 
L 129.486607 235.477389 
L 124.065595 235.403099 
L 123.511623 235.213563 
L 123.274207 234.878143 
L 123.115929 234.165576 
L 122.997221 232.385802 
L 122.918082 228.498426 
L 122.799374 208.70776 
L 122.759804 212.039507 
L 122.561957 232.878272 
L 122.36411 234.698661 
L 122.126693 235.161982 
L 121.770569 235.353586 
L 120.93961 235.451916 
L 117.932334 235.489264 
L 111.799072 235.40166 
L 111.482517 235.200773 
L 111.324239 234.733857 
L 111.205531 233.117692 
L 111.086823 226.406762 
L 111.047253 227.591088 
L 110.849406 234.61612 
L 110.651559 235.228375 
L 110.374573 235.397168 
L 109.622754 235.473596 
L 105.626242 235.495996 
L 99.730397 235.398206 
L 99.572119 235.206838 
L 99.49298 234.840972 
L 99.374272 232.990436 
L 99.334702 233.327215 
L 99.136855 235.256655 
L 98.899439 235.436522 
L 98.187189 235.488603 
L 90.154595 235.498412 
L 87.819999 235.401768 
L 87.70129 235.071496 
L 87.661721 234.919307 
L 87.622151 234.993368 
L 87.424304 235.442747 
L 86.989041 235.49196 
L 81.172335 235.499297 
L 75.988739 235.415234 
L 75.870031 235.434518 
L 75.593045 235.494417 
L 70.923853 235.499611 
L 14.3 235.499998 
L 14.3 235.499998 
" style="fill:none;stroke:#000000;stroke-linecap:square;stroke-width:1.2;"/>
   </g>
   <g id="patch_3">
    <path d="M 14.3 246.2 
L 14.3 10.8 
" style="fill:none;stroke:#000000;stroke-linecap:square;stroke-linejoin:miter;stroke-width:0.8;"/>
   </g>
   <g id="patch_4">
    <path d="M 338.413191 246.2 
L 338.413191 10.8 
" style="fill:none;stroke:#000000;stroke-linecap:square;stroke-linejoin:miter;stroke-width:0.8;"/>
   </g>
   <g id="patch_5">
    <path d="M 14.3 246.2 
L 338.413191 246.2 
" style="fill:none;stroke:#000000;stroke-linecap:square;stroke-linejoin:miter;stroke-width:0.8;"/>
   </g>
   <g id="patch_6">
    <path d="M 14.3 10.8 
L 338.413191 10.8 
" style="fill:none;stroke:#000000;stroke-linecap:square;stroke-linejoin:miter;stroke-width:0.8;"/>
   </g>
  </g>
 </g>
 <defs>
  <clipPath id="p68306f8629">
   <rect height="235.4" width="324.113191" x="14.3" y="10.8"/>
  </clipPath>
 </defs>
</svg>
