<?xml version="1.0" encoding="utf-8" standalone="no"?>
<!DOCTYPE svg PUBLIC "-//W3C//DTD SVG 1.1//EN"
  "http://www.w3.org/Graphics/SVG/1.1/DTD/svg11.dtd">
<svg height="288pt" version="1.1" viewBox="0 0 360 288" width="360pt" xmlns="http://www.w3.org/2000/svg" xmlns:xlink="http://www.w3.org/1999/xlink">
 <metadata>
  <rdf:RDF xmlns:cc="http://creativecommons.org/ns#" xmlns:dc="http://purl.org/dc/elements/1.1/" xmlns:rdf="http://www.w3.org/1999/02/22-rdf-syntax-ns#">
   <cc:Work>
    <dc:type rdf:resource="http://purl.org/dc/dcmitype/StillImage"/>
    <dc:date>2021-08-08T22:02:20.559292</dc:date>
    <dc:format>image/svg+xml</dc:format>
    <dc:creator>
     <cc:Agent>
      <dc:title>Matplotlib v3.4.2, https://matplotlib.org/</dc:title>
     </cc:Agent>
    </dc:creator>
   </cc:Work>
  </rdf:RDF>
 </metadata>
 <defs>
  <style type="text/css">*{stroke-linecap:butt;stroke-linejoin:round;}</style>
 </defs>
 <g id="figure_1">
  <g id="patch_1">
   <path d="M 0 288 
L 360 288 
L 360 0 
L 0 0 
z
" style="fill:none;"/>
  </g>
  <g id="axes_1">
   <g id="patch_2">
    <path d="M 14.3 246.2 
L 349.2 246.2 
L 349.2 10.8 
L 14.3 10.8 
z
" style="fill:none;"/>
   </g>
   <g id="matplotlib.axis_1">
    <g id="xtick_1">
     <g id="line2d_1">
      <defs>
       <path d="M 0 0 
L 0 3.5 
" id="m4762d6ba46" style="stroke:#000000;stroke-width:0.8;"/>
      </defs>
      <g>
       <use style="stroke:#000000;stroke-width:0.8;" x="324.277569" xlink:href="#m4762d6ba46" y="246.2"/>
      </g>
     </g>
     <g id="text_1">
      <!-- −200 -->
      <g transform="translate(310.543975 260.798437)scale(0.1 -0.1)">
       <defs>
        <path d="M 678 2272 
L 4684 2272 
L 4684 1741 
L 678 1741 
L 678 2272 
z
" id="DejaVuSans-2212" transform="scale(0.015625)"/>
        <path d="M 1228 531 
L 3431 531 
L 3431 0 
L 469 0 
L 469 531 
Q 828 903 1448 1529 
Q 2069 2156 2228 2338 
Q 2531 2678 2651 2914 
Q 2772 3150 2772 3378 
Q 2772 3750 2511 3984 
Q 2250 4219 1831 4219 
Q 1534 4219 1204 4116 
Q 875 4013 500 3803 
L 500 4441 
Q 881 4594 1212 4672 
Q 1544 4750 1819 4750 
Q 2544 4750 2975 4387 
Q 3406 4025 3406 3419 
Q 3406 3131 3298 2873 
Q 3191 2616 2906 2266 
Q 2828 2175 2409 1742 
Q 1991 1309 1228 531 
z
" id="DejaVuSans-32" transform="scale(0.015625)"/>
        <path d="M 2034 4250 
Q 1547 4250 1301 3770 
Q 1056 3291 1056 2328 
Q 1056 1369 1301 889 
Q 1547 409 2034 409 
Q 2525 409 2770 889 
Q 3016 1369 3016 2328 
Q 3016 3291 2770 3770 
Q 2525 4250 2034 4250 
z
M 2034 4750 
Q 2819 4750 3233 4129 
Q 3647 3509 3647 2328 
Q 3647 1150 3233 529 
Q 2819 -91 2034 -91 
Q 1250 -91 836 529 
Q 422 1150 422 2328 
Q 422 3509 836 4129 
Q 1250 4750 2034 4750 
z
" id="DejaVuSans-30" transform="scale(0.015625)"/>
       </defs>
       <use xlink:href="#DejaVuSans-2212"/>
       <use x="83.789062" xlink:href="#DejaVuSans-32"/>
       <use x="147.412109" xlink:href="#DejaVuSans-30"/>
       <use x="211.035156" xlink:href="#DejaVuSans-30"/>
      </g>
     </g>
    </g>
    <g id="xtick_2">
     <g id="line2d_2">
      <g>
       <use style="stroke:#000000;stroke-width:0.8;" x="256.631843" xlink:href="#m4762d6ba46" y="246.2"/>
      </g>
     </g>
     <g id="text_2">
      <!-- −150 -->
      <g transform="translate(242.89825 260.798437)scale(0.1 -0.1)">
       <defs>
        <path d="M 794 531 
L 1825 531 
L 1825 4091 
L 703 3866 
L 703 4441 
L 1819 4666 
L 2450 4666 
L 2450 531 
L 3481 531 
L 3481 0 
L 794 0 
L 794 531 
z
" id="DejaVuSans-31" transform="scale(0.015625)"/>
        <path d="M 691 4666 
L 3169 4666 
L 3169 4134 
L 1269 4134 
L 1269 2991 
Q 1406 3038 1543 3061 
Q 1681 3084 1819 3084 
Q 2600 3084 3056 2656 
Q 3513 2228 3513 1497 
Q 3513 744 3044 326 
Q 2575 -91 1722 -91 
Q 1428 -91 1123 -41 
Q 819 9 494 109 
L 494 744 
Q 775 591 1075 516 
Q 1375 441 1709 441 
Q 2250 441 2565 725 
Q 2881 1009 2881 1497 
Q 2881 1984 2565 2268 
Q 2250 2553 1709 2553 
Q 1456 2553 1204 2497 
Q 953 2441 691 2322 
L 691 4666 
z
" id="DejaVuSans-35" transform="scale(0.015625)"/>
       </defs>
       <use xlink:href="#DejaVuSans-2212"/>
       <use x="83.789062" xlink:href="#DejaVuSans-31"/>
       <use x="147.412109" xlink:href="#DejaVuSans-35"/>
       <use x="211.035156" xlink:href="#DejaVuSans-30"/>
      </g>
     </g>
    </g>
    <g id="xtick_3">
     <g id="line2d_3">
      <g>
       <use style="stroke:#000000;stroke-width:0.8;" x="188.986118" xlink:href="#m4762d6ba46" y="246.2"/>
      </g>
     </g>
     <g id="text_3">
      <!-- −100 -->
      <g transform="translate(175.252524 260.798437)scale(0.1 -0.1)">
       <use xlink:href="#DejaVuSans-2212"/>
       <use x="83.789062" xlink:href="#DejaVuSans-31"/>
       <use x="147.412109" xlink:href="#DejaVuSans-30"/>
       <use x="211.035156" xlink:href="#DejaVuSans-30"/>
      </g>
     </g>
    </g>
    <g id="xtick_4">
     <g id="line2d_4">
      <g>
       <use style="stroke:#000000;stroke-width:0.8;" x="121.340392" xlink:href="#m4762d6ba46" y="246.2"/>
      </g>
     </g>
     <g id="text_4">
      <!-- −50 -->
      <g transform="translate(110.788049 260.798437)scale(0.1 -0.1)">
       <use xlink:href="#DejaVuSans-2212"/>
       <use x="83.789062" xlink:href="#DejaVuSans-35"/>
       <use x="147.412109" xlink:href="#DejaVuSans-30"/>
      </g>
     </g>
    </g>
    <g id="xtick_5">
     <g id="line2d_5">
      <g>
       <use style="stroke:#000000;stroke-width:0.8;" x="53.694667" xlink:href="#m4762d6ba46" y="246.2"/>
      </g>
     </g>
     <g id="text_5">
      <!-- 0 -->
      <g transform="translate(50.513417 260.798437)scale(0.1 -0.1)">
       <use xlink:href="#DejaVuSans-30"/>
      </g>
     </g>
    </g>
    <g id="text_6">
     <!-- 29Si - Frequency / (ppm) -->
     <g transform="translate(120.029687 274.476562)scale(0.1 -0.1)">
      <defs>
       <path d="M 703 97 
L 703 672 
Q 941 559 1184 500 
Q 1428 441 1663 441 
Q 2288 441 2617 861 
Q 2947 1281 2994 2138 
Q 2813 1869 2534 1725 
Q 2256 1581 1919 1581 
Q 1219 1581 811 2004 
Q 403 2428 403 3163 
Q 403 3881 828 4315 
Q 1253 4750 1959 4750 
Q 2769 4750 3195 4129 
Q 3622 3509 3622 2328 
Q 3622 1225 3098 567 
Q 2575 -91 1691 -91 
Q 1453 -91 1209 -44 
Q 966 3 703 97 
z
M 1959 2075 
Q 2384 2075 2632 2365 
Q 2881 2656 2881 3163 
Q 2881 3666 2632 3958 
Q 2384 4250 1959 4250 
Q 1534 4250 1286 3958 
Q 1038 3666 1038 3163 
Q 1038 2656 1286 2365 
Q 1534 2075 1959 2075 
z
" id="DejaVuSans-39" transform="scale(0.015625)"/>
       <path d="M 3425 4513 
L 3425 3897 
Q 3066 4069 2747 4153 
Q 2428 4238 2131 4238 
Q 1616 4238 1336 4038 
Q 1056 3838 1056 3469 
Q 1056 3159 1242 3001 
Q 1428 2844 1947 2747 
L 2328 2669 
Q 3034 2534 3370 2195 
Q 3706 1856 3706 1288 
Q 3706 609 3251 259 
Q 2797 -91 1919 -91 
Q 1588 -91 1214 -16 
Q 841 59 441 206 
L 441 856 
Q 825 641 1194 531 
Q 1563 422 1919 422 
Q 2459 422 2753 634 
Q 3047 847 3047 1241 
Q 3047 1584 2836 1778 
Q 2625 1972 2144 2069 
L 1759 2144 
Q 1053 2284 737 2584 
Q 422 2884 422 3419 
Q 422 4038 858 4394 
Q 1294 4750 2059 4750 
Q 2388 4750 2728 4690 
Q 3069 4631 3425 4513 
z
" id="DejaVuSans-53" transform="scale(0.015625)"/>
       <path d="M 603 3500 
L 1178 3500 
L 1178 0 
L 603 0 
L 603 3500 
z
M 603 4863 
L 1178 4863 
L 1178 4134 
L 603 4134 
L 603 4863 
z
" id="DejaVuSans-69" transform="scale(0.015625)"/>
       <path id="DejaVuSans-20" transform="scale(0.015625)"/>
       <path d="M 313 2009 
L 1997 2009 
L 1997 1497 
L 313 1497 
L 313 2009 
z
" id="DejaVuSans-2d" transform="scale(0.015625)"/>
       <path d="M 628 4666 
L 3309 4666 
L 3309 4134 
L 1259 4134 
L 1259 2759 
L 3109 2759 
L 3109 2228 
L 1259 2228 
L 1259 0 
L 628 0 
L 628 4666 
z
" id="DejaVuSans-46" transform="scale(0.015625)"/>
       <path d="M 2631 2963 
Q 2534 3019 2420 3045 
Q 2306 3072 2169 3072 
Q 1681 3072 1420 2755 
Q 1159 2438 1159 1844 
L 1159 0 
L 581 0 
L 581 3500 
L 1159 3500 
L 1159 2956 
Q 1341 3275 1631 3429 
Q 1922 3584 2338 3584 
Q 2397 3584 2469 3576 
Q 2541 3569 2628 3553 
L 2631 2963 
z
" id="DejaVuSans-72" transform="scale(0.015625)"/>
       <path d="M 3597 1894 
L 3597 1613 
L 953 1613 
Q 991 1019 1311 708 
Q 1631 397 2203 397 
Q 2534 397 2845 478 
Q 3156 559 3463 722 
L 3463 178 
Q 3153 47 2828 -22 
Q 2503 -91 2169 -91 
Q 1331 -91 842 396 
Q 353 884 353 1716 
Q 353 2575 817 3079 
Q 1281 3584 2069 3584 
Q 2775 3584 3186 3129 
Q 3597 2675 3597 1894 
z
M 3022 2063 
Q 3016 2534 2758 2815 
Q 2500 3097 2075 3097 
Q 1594 3097 1305 2825 
Q 1016 2553 972 2059 
L 3022 2063 
z
" id="DejaVuSans-65" transform="scale(0.015625)"/>
       <path d="M 947 1747 
Q 947 1113 1208 752 
Q 1469 391 1925 391 
Q 2381 391 2643 752 
Q 2906 1113 2906 1747 
Q 2906 2381 2643 2742 
Q 2381 3103 1925 3103 
Q 1469 3103 1208 2742 
Q 947 2381 947 1747 
z
M 2906 525 
Q 2725 213 2448 61 
Q 2172 -91 1784 -91 
Q 1150 -91 751 415 
Q 353 922 353 1747 
Q 353 2572 751 3078 
Q 1150 3584 1784 3584 
Q 2172 3584 2448 3432 
Q 2725 3281 2906 2969 
L 2906 3500 
L 3481 3500 
L 3481 -1331 
L 2906 -1331 
L 2906 525 
z
" id="DejaVuSans-71" transform="scale(0.015625)"/>
       <path d="M 544 1381 
L 544 3500 
L 1119 3500 
L 1119 1403 
Q 1119 906 1312 657 
Q 1506 409 1894 409 
Q 2359 409 2629 706 
Q 2900 1003 2900 1516 
L 2900 3500 
L 3475 3500 
L 3475 0 
L 2900 0 
L 2900 538 
Q 2691 219 2414 64 
Q 2138 -91 1772 -91 
Q 1169 -91 856 284 
Q 544 659 544 1381 
z
M 1991 3584 
L 1991 3584 
z
" id="DejaVuSans-75" transform="scale(0.015625)"/>
       <path d="M 3513 2113 
L 3513 0 
L 2938 0 
L 2938 2094 
Q 2938 2591 2744 2837 
Q 2550 3084 2163 3084 
Q 1697 3084 1428 2787 
Q 1159 2491 1159 1978 
L 1159 0 
L 581 0 
L 581 3500 
L 1159 3500 
L 1159 2956 
Q 1366 3272 1645 3428 
Q 1925 3584 2291 3584 
Q 2894 3584 3203 3211 
Q 3513 2838 3513 2113 
z
" id="DejaVuSans-6e" transform="scale(0.015625)"/>
       <path d="M 3122 3366 
L 3122 2828 
Q 2878 2963 2633 3030 
Q 2388 3097 2138 3097 
Q 1578 3097 1268 2742 
Q 959 2388 959 1747 
Q 959 1106 1268 751 
Q 1578 397 2138 397 
Q 2388 397 2633 464 
Q 2878 531 3122 666 
L 3122 134 
Q 2881 22 2623 -34 
Q 2366 -91 2075 -91 
Q 1284 -91 818 406 
Q 353 903 353 1747 
Q 353 2603 823 3093 
Q 1294 3584 2113 3584 
Q 2378 3584 2631 3529 
Q 2884 3475 3122 3366 
z
" id="DejaVuSans-63" transform="scale(0.015625)"/>
       <path d="M 2059 -325 
Q 1816 -950 1584 -1140 
Q 1353 -1331 966 -1331 
L 506 -1331 
L 506 -850 
L 844 -850 
Q 1081 -850 1212 -737 
Q 1344 -625 1503 -206 
L 1606 56 
L 191 3500 
L 800 3500 
L 1894 763 
L 2988 3500 
L 3597 3500 
L 2059 -325 
z
" id="DejaVuSans-79" transform="scale(0.015625)"/>
       <path d="M 1625 4666 
L 2156 4666 
L 531 -594 
L 0 -594 
L 1625 4666 
z
" id="DejaVuSans-2f" transform="scale(0.015625)"/>
       <path d="M 1984 4856 
Q 1566 4138 1362 3434 
Q 1159 2731 1159 2009 
Q 1159 1288 1364 580 
Q 1569 -128 1984 -844 
L 1484 -844 
Q 1016 -109 783 600 
Q 550 1309 550 2009 
Q 550 2706 781 3412 
Q 1013 4119 1484 4856 
L 1984 4856 
z
" id="DejaVuSans-28" transform="scale(0.015625)"/>
       <path d="M 1159 525 
L 1159 -1331 
L 581 -1331 
L 581 3500 
L 1159 3500 
L 1159 2969 
Q 1341 3281 1617 3432 
Q 1894 3584 2278 3584 
Q 2916 3584 3314 3078 
Q 3713 2572 3713 1747 
Q 3713 922 3314 415 
Q 2916 -91 2278 -91 
Q 1894 -91 1617 61 
Q 1341 213 1159 525 
z
M 3116 1747 
Q 3116 2381 2855 2742 
Q 2594 3103 2138 3103 
Q 1681 3103 1420 2742 
Q 1159 2381 1159 1747 
Q 1159 1113 1420 752 
Q 1681 391 2138 391 
Q 2594 391 2855 752 
Q 3116 1113 3116 1747 
z
" id="DejaVuSans-70" transform="scale(0.015625)"/>
       <path d="M 3328 2828 
Q 3544 3216 3844 3400 
Q 4144 3584 4550 3584 
Q 5097 3584 5394 3201 
Q 5691 2819 5691 2113 
L 5691 0 
L 5113 0 
L 5113 2094 
Q 5113 2597 4934 2840 
Q 4756 3084 4391 3084 
Q 3944 3084 3684 2787 
Q 3425 2491 3425 1978 
L 3425 0 
L 2847 0 
L 2847 2094 
Q 2847 2600 2669 2842 
Q 2491 3084 2119 3084 
Q 1678 3084 1418 2786 
Q 1159 2488 1159 1978 
L 1159 0 
L 581 0 
L 581 3500 
L 1159 3500 
L 1159 2956 
Q 1356 3278 1631 3431 
Q 1906 3584 2284 3584 
Q 2666 3584 2933 3390 
Q 3200 3197 3328 2828 
z
" id="DejaVuSans-6d" transform="scale(0.015625)"/>
       <path d="M 513 4856 
L 1013 4856 
Q 1481 4119 1714 3412 
Q 1947 2706 1947 2009 
Q 1947 1309 1714 600 
Q 1481 -109 1013 -844 
L 513 -844 
Q 928 -128 1133 580 
Q 1338 1288 1338 2009 
Q 1338 2731 1133 3434 
Q 928 4138 513 4856 
z
" id="DejaVuSans-29" transform="scale(0.015625)"/>
      </defs>
      <use xlink:href="#DejaVuSans-32"/>
      <use x="63.623047" xlink:href="#DejaVuSans-39"/>
      <use x="127.246094" xlink:href="#DejaVuSans-53"/>
      <use x="190.722656" xlink:href="#DejaVuSans-69"/>
      <use x="218.505859" xlink:href="#DejaVuSans-20"/>
      <use x="250.292969" xlink:href="#DejaVuSans-2d"/>
      <use x="286.376953" xlink:href="#DejaVuSans-20"/>
      <use x="318.164062" xlink:href="#DejaVuSans-46"/>
      <use x="368.433594" xlink:href="#DejaVuSans-72"/>
      <use x="407.296875" xlink:href="#DejaVuSans-65"/>
      <use x="468.820312" xlink:href="#DejaVuSans-71"/>
      <use x="532.296875" xlink:href="#DejaVuSans-75"/>
      <use x="595.675781" xlink:href="#DejaVuSans-65"/>
      <use x="657.199219" xlink:href="#DejaVuSans-6e"/>
      <use x="720.578125" xlink:href="#DejaVuSans-63"/>
      <use x="775.558594" xlink:href="#DejaVuSans-79"/>
      <use x="834.738281" xlink:href="#DejaVuSans-20"/>
      <use x="866.525391" xlink:href="#DejaVuSans-2f"/>
      <use x="900.216797" xlink:href="#DejaVuSans-20"/>
      <use x="932.003906" xlink:href="#DejaVuSans-28"/>
      <use x="971.017578" xlink:href="#DejaVuSans-70"/>
      <use x="1034.494141" xlink:href="#DejaVuSans-70"/>
      <use x="1097.970703" xlink:href="#DejaVuSans-6d"/>
      <use x="1195.382812" xlink:href="#DejaVuSans-29"/>
     </g>
    </g>
   </g>
   <g id="line2d_6">
    <path clip-path="url(#pcf713150d1)" d="M 349.2 235.223278 
L 345.233333 235.494029 
L 340.133333 235.444334 
L 338.433333 235.2759 
L 336.733333 234.812095 
L 333.333333 235.428202 
L 329.366667 235.460672 
L 324.833333 235.337924 
L 323.133333 235.150841 
L 322 234.817297 
L 321.433333 234.475803 
L 320.866667 233.912602 
L 320.3 233.113515 
L 319.733333 232.636415 
L 319.166667 233.101812 
L 318.6 233.889154 
L 318.033333 234.44031 
L 317.466667 234.769616 
L 316.333333 235.077265 
L 314.633333 235.219621 
L 311.8 235.215576 
L 308.966667 235.022064 
L 307.266667 234.70072 
L 306.133333 234.220244 
L 305.566667 233.786279 
L 305 233.104881 
L 304.433333 231.959119 
L 303.866667 230.066064 
L 303.3 227.379031 
L 302.733333 225.776774 
L 302.166667 227.35144 
L 301.6 230.010733 
L 301.033333 231.87532 
L 300.466667 232.992139 
L 299.9 233.643062 
L 299.333333 234.045664 
L 298.2 234.456934 
L 296.5 234.650617 
L 294.8 234.61935 
L 293.1 234.404687 
L 291.966667 234.119637 
L 290.833333 233.622097 
L 290.266667 233.237805 
L 289.7 232.686964 
L 289.133333 231.898086 
L 288.566667 230.681186 
L 288 228.763745 
L 287.433333 225.534093 
L 286.866667 220.189764 
L 286.3 212.600945 
L 285.733333 208.080718 
L 285.166667 212.550569 
L 284.6 220.088686 
L 284.033333 225.380897 
L 283.466667 228.557399 
L 282.9 230.418708 
L 282.333333 231.577552 
L 281.766667 232.303492 
L 281.2 232.788208 
L 280.066667 233.308186 
L 278.933333 233.494623 
L 277.8 233.469476 
L 276.666667 233.258708 
L 275.533333 232.823356 
L 274.4 232.038353 
L 273.833333 231.423624 
L 273.266667 230.595852 
L 272.7 229.40298 
L 272.133333 227.686307 
L 271.566667 225.030603 
L 271 220.835269 
L 270.433333 213.758975 
L 269.866667 202.036677 
L 269.3 185.385862 
L 268.733333 175.475662 
L 268.166667 185.317189 
L 267.6 201.89883 
L 267.033333 213.549919 
L 266.466667 220.553415 
L 265.9 224.67166 
L 265.333333 227.247319 
L 264.766667 228.876897 
L 264.2 229.977797 
L 263.633333 230.702877 
L 263.066667 231.20712 
L 261.933333 231.72669 
L 260.8 231.815444 
L 259.666667 231.549234 
L 258.533333 230.876875 
L 257.966667 230.323153 
L 257.4 229.592206 
L 256.833333 228.565775 
L 256.266667 227.171486 
L 255.7 225.1499 
L 255.133333 222.226849 
L 254.566667 217.690855 
L 254 210.507656 
L 253.433333 198.374235 
L 252.866667 178.254234 
L 252.3 149.665178 
L 251.733333 132.663302 
L 251.166667 149.6181 
L 250.6 178.159758 
L 250.033333 198.23104 
L 249.466667 210.314728 
L 248.9 217.445409 
L 248.333333 221.927 
L 247.766667 224.791077 
L 247.2 226.750578 
L 246.633333 228.075845 
L 246.066667 229.028279 
L 245.5 229.67491 
L 244.933333 230.136334 
L 243.8 230.579973 
L 242.666667 230.533881 
L 241.533333 229.991647 
L 240.966667 229.473457 
L 240.4 228.762363 
L 239.833333 227.731885 
L 239.266667 226.310667 
L 238.7 224.22404 
L 238.133333 221.187519 
L 237.566667 216.451727 
L 237 208.93277 
L 236.433333 196.209334 
L 235.866667 175.093368 
L 235.3 145.076637 
L 234.733333 127.233632 
L 234.166667 145.066566 
L 233.6 175.07321 
L 233.033333 196.178973 
L 232.466667 208.892153 
L 231.9 216.400611 
L 231.333333 221.125808 
L 230.766667 224.151344 
L 230.2 226.226824 
L 229.633333 227.636327 
L 229.066667 228.654825 
L 228.5 229.35313 
L 227.933333 229.858099 
L 226.8 230.370862 
L 225.666667 230.382134 
L 225.1 230.197184 
L 224.533333 229.89495 
L 223.966667 229.406289 
L 223.4 228.727993 
L 222.833333 227.735904 
L 222.266667 226.361409 
L 221.7 224.33572 
L 221.133333 221.381709 
L 220.566667 216.767001 
L 220 209.433274 
L 219.433333 197.015009 
L 218.866667 176.398106 
L 218.3 147.086137 
L 217.733333 129.666985 
L 217.166667 147.10034 
L 216.6 176.426724 
L 216.033333 197.058809 
L 215.466667 209.492926 
L 214.9 216.844132 
L 214.333333 221.477567 
L 213.766667 224.453008 
L 213.2 226.502189 
L 212.633333 227.904338 
L 212.066667 228.927386 
L 211.5 229.642941 
L 210.933333 230.17418 
L 209.8 230.774577 
L 208.666667 230.930783 
L 207.533333 230.67831 
L 206.966667 230.362044 
L 206.4 229.905595 
L 205.833333 229.216703 
L 205.266667 228.251753 
L 204.7 226.815229 
L 204.133333 224.714139 
L 203.566667 221.422218 
L 203 216.188859 
L 202.433333 207.322747 
L 201.866667 192.606664 
L 201.3 171.682346 
L 200.733333 159.239334 
L 200.166667 171.65053 
L 199.6 192.542771 
L 199.033333 207.226035 
L 198.466667 216.058508 
L 197.9 221.256652 
L 197.333333 224.511864 
L 196.766667 226.573631 
L 196.2 227.968436 
L 195.633333 228.887641 
L 195.066667 229.527078 
L 194.5 229.927981 
L 193.933333 230.182939 
L 192.8 230.284993 
L 191.666667 229.924549 
L 191.1 229.544563 
L 190.533333 229.029035 
L 189.966667 228.293688 
L 189.4 227.322223 
L 188.833333 225.959522 
L 188.266667 224.107138 
L 187.7 221.422741 
L 187.133333 217.539671 
L 186.566667 211.515519 
L 186 201.973887 
L 185.433333 185.858899 
L 184.866667 159.134869 
L 184.3 121.1641 
L 183.733333 98.580245 
L 183.166667 121.095962 
L 182.6 158.997881 
L 182.033333 185.651345 
L 181.466667 201.69354 
L 180.9 211.158717 
L 180.333333 217.102373 
L 179.766667 220.898823 
L 179.2 223.490159 
L 178.633333 225.239959 
L 178.066667 226.490174 
L 177.5 227.334586 
L 176.933333 227.927624 
L 176.366667 228.278302 
L 175.8 228.46932 
L 175.233333 228.474043 
L 174.666667 228.340074 
L 174.1 228.014446 
L 173.533333 227.518172 
L 172.966667 226.760614 
L 172.4 225.723695 
L 171.833333 224.237034 
L 171.266667 222.186882 
L 170.7 219.191892 
L 170.133333 214.832696 
L 169.566667 208.050107 
L 169 197.280392 
L 168.433333 179.07441 
L 167.866667 148.857749 
L 167.3 105.918853 
L 166.733333 80.382187 
L 166.166667 105.877854 
L 165.6 148.774479 
L 165.033333 178.950214 
L 164.466667 197.111385 
L 163.9 207.839023 
L 163.333333 214.572828 
L 162.766667 218.887456 
L 162.2 221.827969 
L 161.633333 223.829508 
L 161.066667 225.253853 
L 160.5 226.236237 
L 159.933333 226.92089 
L 159.366667 227.354431 
L 158.8 227.593051 
L 158.233333 227.653482 
L 157.666667 227.543418 
L 157.1 227.265826 
L 156.533333 226.787578 
L 155.966667 226.096163 
L 155.4 225.10359 
L 154.833333 223.760286 
L 154.266667 221.871727 
L 153.7 219.27733 
L 153.133333 215.512888 
L 152.566667 210.042491 
L 152 201.549256 
L 151.433333 188.072267 
L 150.866667 165.301981 
L 150.3 127.518604 
L 149.733333 73.830534 
L 149.166667 41.902525 
L 148.6 73.771759 
L 148.033333 127.401338 
L 147.466667 165.122405 
L 146.9 187.831166 
L 146.333333 201.238651 
L 145.766667 209.663447 
L 145.2 215.052497 
L 144.633333 218.736476 
L 144.066667 221.231183 
L 143.5 223.019845 
L 142.933333 224.235294 
L 142.366667 225.096926 
L 141.8 225.616437 
L 141.233333 225.913203 
L 140.666667 225.947383 
L 140.1 225.790248 
L 139.533333 225.363825 
L 138.966667 224.703566 
L 138.4 223.677827 
L 137.833333 222.269237 
L 137.266667 220.234278 
L 136.7 217.424702 
L 136.133333 213.303528 
L 135.566667 207.301427 
L 135 197.942039 
L 134.433333 183.075023 
L 133.866667 157.916267 
L 133.3 116.153193 
L 132.733333 56.786063 
L 132.166667 21.5 
L 131.6 56.793872 
L 131.033333 116.168967 
L 130.466667 157.939876 
L 129.9 183.106939 
L 129.333333 197.98201 
L 128.766667 207.35026 
L 128.2 213.360873 
L 127.633333 217.491739 
L 127.066667 220.310595 
L 126.5 222.35645 
L 125.933333 223.775536 
L 125.366667 224.813933 
L 124.8 225.486596 
L 124.233333 225.928325 
L 123.666667 226.100914 
L 123.1 226.086196 
L 122.533333 225.809967 
L 121.966667 225.316864 
L 121.4 224.484788 
L 120.833333 223.308342 
L 120.266667 221.566699 
L 119.7 219.136458 
L 119.133333 215.537584 
L 118.566667 210.272424 
L 118 202.030101 
L 117.433333 188.912393 
L 116.866667 166.681303 
L 116.3 129.753572 
L 115.733333 77.241477 
L 115.166667 46.044766 
L 114.6 77.318409 
L 114.033333 129.908027 
L 113.466667 166.915439 
L 112.9 189.228075 
L 112.333333 202.43189 
L 111.766667 210.763763 
L 111.2 216.125985 
L 110.633333 219.827548 
L 110.066667 222.371932 
L 109.5 224.236621 
L 108.933333 225.553244 
L 108.366667 226.539632 
L 107.8 227.212932 
L 107.233333 227.692357 
L 106.666667 227.950616 
L 106.1 228.06054 
L 105.533333 227.967413 
L 104.966667 227.713267 
L 104.4 227.209514 
L 103.833333 226.460558 
L 103.266667 225.309328 
L 102.7 223.676462 
L 102.133333 221.225268 
L 101.566667 217.615303 
L 101 211.933541 
L 100.433333 202.866361 
L 99.866667 187.469266 
L 99.3 161.869868 
L 98.733333 125.449756 
L 98.166667 103.826142 
L 97.6 125.565636 
L 97.033333 162.102479 
L 96.466667 187.821992 
L 95.9 203.341897 
L 95.333333 212.539024 
L 94.766667 218.355742 
L 94.2 222.112388 
L 93.633333 224.718504 
L 93.066667 226.524122 
L 92.5 227.861238 
L 91.933333 228.822664 
L 91.366667 229.559899 
L 90.233333 230.488622 
L 89.1 230.919366 
L 87.966667 230.933124 
L 87.4 230.760851 
L 86.833333 230.464004 
L 86.266667 229.962504 
L 85.7 229.224626 
L 85.133333 228.083726 
L 84.566667 226.380705 
L 84 223.670719 
L 83.433333 219.323493 
L 82.866667 211.912781 
L 82.3 199.571072 
L 81.733333 181.996584 
L 81.166667 171.572634 
L 80.6 182.101934 
L 80.033333 199.782506 
L 79.466667 212.233327 
L 78.9 219.755475 
L 78.333333 224.220524 
L 77.766667 227.052657 
L 77.2 228.8883 
L 76.633333 230.168959 
L 76.066667 231.062495 
L 75.5 231.73106 
L 74.366667 232.599912 
L 73.233333 233.10531 
L 72.1 233.385253 
L 70.966667 233.490704 
L 69.833333 233.413258 
L 68.7 233.066135 
L 68.133333 232.715772 
L 67.566667 232.179683 
L 67 231.308728 
L 66.433333 229.898838 
L 65.866667 227.478239 
L 65.3 223.435486 
L 64.733333 217.668905 
L 64.166667 214.254705 
L 63.6 217.731211 
L 63.033333 223.560467 
L 62.466667 227.667561 
L 61.9 230.153673 
L 61.333333 231.632581 
L 60.766667 232.574743 
L 60.2 233.187768 
L 59.066667 233.921133 
L 57.933333 234.318542 
L 56.233333 234.635392 
L 53.966667 234.798323 
L 51.7 234.715391 
L 50.566667 234.480583 
L 50 234.241937 
L 49.433333 233.85207 
L 48.866667 233.17714 
L 48.3 232.046559 
L 47.733333 230.430586 
L 47.166667 229.476109 
L 46.6 230.457634 
L 46.033333 232.100764 
L 45.466667 233.259136 
L 44.9 233.962208 
L 44.333333 234.381543 
L 43.2 234.826014 
L 41.5 235.106832 
L 38.666667 235.275617 
L 34.7 235.30823 
L 33 235.203291 
L 31.866667 234.954038 
L 30.166667 234.077689 
L 29.6 234.313412 
L 28.466667 234.984742 
L 27.333333 235.255329 
L 25.066667 235.417004 
L 19.4 235.48992 
L 15.433333 235.413868 
L 14.3 235.272617 
L 14.3 235.272617 
" style="fill:none;stroke:#000000;stroke-linecap:square;stroke-width:1.2;"/>
   </g>
   <g id="patch_3">
    <path d="M 14.3 246.2 
L 14.3 10.8 
" style="fill:none;stroke:#000000;stroke-linecap:square;stroke-linejoin:miter;stroke-width:0.8;"/>
   </g>
   <g id="patch_4">
    <path d="M 349.2 246.2 
L 349.2 10.8 
" style="fill:none;stroke:#000000;stroke-linecap:square;stroke-linejoin:miter;stroke-width:0.8;"/>
   </g>
   <g id="patch_5">
    <path d="M 14.3 246.2 
L 349.2 246.2 
" style="fill:none;stroke:#000000;stroke-linecap:square;stroke-linejoin:miter;stroke-width:0.8;"/>
   </g>
   <g id="patch_6">
    <path d="M 14.3 10.8 
L 349.2 10.8 
" style="fill:none;stroke:#000000;stroke-linecap:square;stroke-linejoin:miter;stroke-width:0.8;"/>
   </g>
  </g>
 </g>
 <defs>
  <clipPath id="pcf713150d1">
   <rect height="235.4" width="334.9" x="14.3" y="10.8"/>
  </clipPath>
 </defs>
</svg>
