<?xml version="1.0" encoding="utf-8" standalone="no"?>
<!DOCTYPE svg PUBLIC "-//W3C//DTD SVG 1.1//EN"
  "http://www.w3.org/Graphics/SVG/1.1/DTD/svg11.dtd">
<svg height="288pt" version="1.1" viewBox="0 0 360 288" width="360pt" xmlns="http://www.w3.org/2000/svg" xmlns:xlink="http://www.w3.org/1999/xlink">
 <metadata>
  <rdf:RDF xmlns:cc="http://creativecommons.org/ns#" xmlns:dc="http://purl.org/dc/elements/1.1/" xmlns:rdf="http://www.w3.org/1999/02/22-rdf-syntax-ns#">
   <cc:Work>
    <dc:type rdf:resource="http://purl.org/dc/dcmitype/StillImage"/>
    <dc:date>2021-08-08T22:02:20.636485</dc:date>
    <dc:format>image/svg+xml</dc:format>
    <dc:creator>
     <cc:Agent>
      <dc:title>Matplotlib v3.4.2, https://matplotlib.org/</dc:title>
     </cc:Agent>
    </dc:creator>
   </cc:Work>
  </rdf:RDF>
 </metadata>
 <defs>
  <style type="text/css">*{stroke-linecap:butt;stroke-linejoin:round;}</style>
 </defs>
 <g id="figure_1">
  <g id="patch_1">
   <path d="M 0 288 
L 360 288 
L 360 0 
L 0 0 
z
" style="fill:none;"/>
  </g>
  <g id="axes_1">
   <g id="patch_2">
    <path d="M 14.3 246.2 
L 349.2 246.2 
L 349.2 10.8 
L 14.3 10.8 
z
" style="fill:none;"/>
   </g>
   <g id="matplotlib.axis_1">
    <g id="xtick_1">
     <g id="line2d_1">
      <defs>
       <path d="M 0 0 
L 0 3.5 
" id="m948bcd4c14" style="stroke:#000000;stroke-width:0.8;"/>
      </defs>
      <g>
       <use style="stroke:#000000;stroke-width:0.8;" x="328.674706" xlink:href="#m948bcd4c14" y="246.2"/>
      </g>
     </g>
     <g id="text_1">
      <!-- −140 -->
      <g transform="translate(314.941112 260.798437)scale(0.1 -0.1)">
       <defs>
        <path d="M 678 2272 
L 4684 2272 
L 4684 1741 
L 678 1741 
L 678 2272 
z
" id="DejaVuSans-2212" transform="scale(0.015625)"/>
        <path d="M 794 531 
L 1825 531 
L 1825 4091 
L 703 3866 
L 703 4441 
L 1819 4666 
L 2450 4666 
L 2450 531 
L 3481 531 
L 3481 0 
L 794 0 
L 794 531 
z
" id="DejaVuSans-31" transform="scale(0.015625)"/>
        <path d="M 2419 4116 
L 825 1625 
L 2419 1625 
L 2419 4116 
z
M 2253 4666 
L 3047 4666 
L 3047 1625 
L 3713 1625 
L 3713 1100 
L 3047 1100 
L 3047 0 
L 2419 0 
L 2419 1100 
L 313 1100 
L 313 1709 
L 2253 4666 
z
" id="DejaVuSans-34" transform="scale(0.015625)"/>
        <path d="M 2034 4250 
Q 1547 4250 1301 3770 
Q 1056 3291 1056 2328 
Q 1056 1369 1301 889 
Q 1547 409 2034 409 
Q 2525 409 2770 889 
Q 3016 1369 3016 2328 
Q 3016 3291 2770 3770 
Q 2525 4250 2034 4250 
z
M 2034 4750 
Q 2819 4750 3233 4129 
Q 3647 3509 3647 2328 
Q 3647 1150 3233 529 
Q 2819 -91 2034 -91 
Q 1250 -91 836 529 
Q 422 1150 422 2328 
Q 422 3509 836 4129 
Q 1250 4750 2034 4750 
z
" id="DejaVuSans-30" transform="scale(0.015625)"/>
       </defs>
       <use xlink:href="#DejaVuSans-2212"/>
       <use x="83.789062" xlink:href="#DejaVuSans-31"/>
       <use x="147.412109" xlink:href="#DejaVuSans-34"/>
       <use x="211.035156" xlink:href="#DejaVuSans-30"/>
      </g>
     </g>
    </g>
    <g id="xtick_2">
     <g id="line2d_2">
      <g>
       <use style="stroke:#000000;stroke-width:0.8;" x="283.629265" xlink:href="#m948bcd4c14" y="246.2"/>
      </g>
     </g>
     <g id="text_2">
      <!-- −120 -->
      <g transform="translate(269.895671 260.798437)scale(0.1 -0.1)">
       <defs>
        <path d="M 1228 531 
L 3431 531 
L 3431 0 
L 469 0 
L 469 531 
Q 828 903 1448 1529 
Q 2069 2156 2228 2338 
Q 2531 2678 2651 2914 
Q 2772 3150 2772 3378 
Q 2772 3750 2511 3984 
Q 2250 4219 1831 4219 
Q 1534 4219 1204 4116 
Q 875 4013 500 3803 
L 500 4441 
Q 881 4594 1212 4672 
Q 1544 4750 1819 4750 
Q 2544 4750 2975 4387 
Q 3406 4025 3406 3419 
Q 3406 3131 3298 2873 
Q 3191 2616 2906 2266 
Q 2828 2175 2409 1742 
Q 1991 1309 1228 531 
z
" id="DejaVuSans-32" transform="scale(0.015625)"/>
       </defs>
       <use xlink:href="#DejaVuSans-2212"/>
       <use x="83.789062" xlink:href="#DejaVuSans-31"/>
       <use x="147.412109" xlink:href="#DejaVuSans-32"/>
       <use x="211.035156" xlink:href="#DejaVuSans-30"/>
      </g>
     </g>
    </g>
    <g id="xtick_3">
     <g id="line2d_3">
      <g>
       <use style="stroke:#000000;stroke-width:0.8;" x="238.583824" xlink:href="#m948bcd4c14" y="246.2"/>
      </g>
     </g>
     <g id="text_3">
      <!-- −100 -->
      <g transform="translate(224.85023 260.798437)scale(0.1 -0.1)">
       <use xlink:href="#DejaVuSans-2212"/>
       <use x="83.789062" xlink:href="#DejaVuSans-31"/>
       <use x="147.412109" xlink:href="#DejaVuSans-30"/>
       <use x="211.035156" xlink:href="#DejaVuSans-30"/>
      </g>
     </g>
    </g>
    <g id="xtick_4">
     <g id="line2d_4">
      <g>
       <use style="stroke:#000000;stroke-width:0.8;" x="193.538383" xlink:href="#m948bcd4c14" y="246.2"/>
      </g>
     </g>
     <g id="text_4">
      <!-- −80 -->
      <g transform="translate(182.986039 260.798437)scale(0.1 -0.1)">
       <defs>
        <path d="M 2034 2216 
Q 1584 2216 1326 1975 
Q 1069 1734 1069 1313 
Q 1069 891 1326 650 
Q 1584 409 2034 409 
Q 2484 409 2743 651 
Q 3003 894 3003 1313 
Q 3003 1734 2745 1975 
Q 2488 2216 2034 2216 
z
M 1403 2484 
Q 997 2584 770 2862 
Q 544 3141 544 3541 
Q 544 4100 942 4425 
Q 1341 4750 2034 4750 
Q 2731 4750 3128 4425 
Q 3525 4100 3525 3541 
Q 3525 3141 3298 2862 
Q 3072 2584 2669 2484 
Q 3125 2378 3379 2068 
Q 3634 1759 3634 1313 
Q 3634 634 3220 271 
Q 2806 -91 2034 -91 
Q 1263 -91 848 271 
Q 434 634 434 1313 
Q 434 1759 690 2068 
Q 947 2378 1403 2484 
z
M 1172 3481 
Q 1172 3119 1398 2916 
Q 1625 2713 2034 2713 
Q 2441 2713 2670 2916 
Q 2900 3119 2900 3481 
Q 2900 3844 2670 4047 
Q 2441 4250 2034 4250 
Q 1625 4250 1398 4047 
Q 1172 3844 1172 3481 
z
" id="DejaVuSans-38" transform="scale(0.015625)"/>
       </defs>
       <use xlink:href="#DejaVuSans-2212"/>
       <use x="83.789062" xlink:href="#DejaVuSans-38"/>
       <use x="147.412109" xlink:href="#DejaVuSans-30"/>
      </g>
     </g>
    </g>
    <g id="xtick_5">
     <g id="line2d_5">
      <g>
       <use style="stroke:#000000;stroke-width:0.8;" x="148.492942" xlink:href="#m948bcd4c14" y="246.2"/>
      </g>
     </g>
     <g id="text_5">
      <!-- −60 -->
      <g transform="translate(137.940599 260.798437)scale(0.1 -0.1)">
       <defs>
        <path d="M 2113 2584 
Q 1688 2584 1439 2293 
Q 1191 2003 1191 1497 
Q 1191 994 1439 701 
Q 1688 409 2113 409 
Q 2538 409 2786 701 
Q 3034 994 3034 1497 
Q 3034 2003 2786 2293 
Q 2538 2584 2113 2584 
z
M 3366 4563 
L 3366 3988 
Q 3128 4100 2886 4159 
Q 2644 4219 2406 4219 
Q 1781 4219 1451 3797 
Q 1122 3375 1075 2522 
Q 1259 2794 1537 2939 
Q 1816 3084 2150 3084 
Q 2853 3084 3261 2657 
Q 3669 2231 3669 1497 
Q 3669 778 3244 343 
Q 2819 -91 2113 -91 
Q 1303 -91 875 529 
Q 447 1150 447 2328 
Q 447 3434 972 4092 
Q 1497 4750 2381 4750 
Q 2619 4750 2861 4703 
Q 3103 4656 3366 4563 
z
" id="DejaVuSans-36" transform="scale(0.015625)"/>
       </defs>
       <use xlink:href="#DejaVuSans-2212"/>
       <use x="83.789062" xlink:href="#DejaVuSans-36"/>
       <use x="147.412109" xlink:href="#DejaVuSans-30"/>
      </g>
     </g>
    </g>
    <g id="xtick_6">
     <g id="line2d_6">
      <g>
       <use style="stroke:#000000;stroke-width:0.8;" x="103.447501" xlink:href="#m948bcd4c14" y="246.2"/>
      </g>
     </g>
     <g id="text_6">
      <!-- −40 -->
      <g transform="translate(92.895158 260.798437)scale(0.1 -0.1)">
       <use xlink:href="#DejaVuSans-2212"/>
       <use x="83.789062" xlink:href="#DejaVuSans-34"/>
       <use x="147.412109" xlink:href="#DejaVuSans-30"/>
      </g>
     </g>
    </g>
    <g id="xtick_7">
     <g id="line2d_7">
      <g>
       <use style="stroke:#000000;stroke-width:0.8;" x="58.402061" xlink:href="#m948bcd4c14" y="246.2"/>
      </g>
     </g>
     <g id="text_7">
      <!-- −20 -->
      <g transform="translate(47.849717 260.798437)scale(0.1 -0.1)">
       <use xlink:href="#DejaVuSans-2212"/>
       <use x="83.789062" xlink:href="#DejaVuSans-32"/>
       <use x="147.412109" xlink:href="#DejaVuSans-30"/>
      </g>
     </g>
    </g>
    <g id="text_8">
     <!-- 29Si - Frequency / (ppm) -->
     <g transform="translate(120.029687 274.476562)scale(0.1 -0.1)">
      <defs>
       <path d="M 703 97 
L 703 672 
Q 941 559 1184 500 
Q 1428 441 1663 441 
Q 2288 441 2617 861 
Q 2947 1281 2994 2138 
Q 2813 1869 2534 1725 
Q 2256 1581 1919 1581 
Q 1219 1581 811 2004 
Q 403 2428 403 3163 
Q 403 3881 828 4315 
Q 1253 4750 1959 4750 
Q 2769 4750 3195 4129 
Q 3622 3509 3622 2328 
Q 3622 1225 3098 567 
Q 2575 -91 1691 -91 
Q 1453 -91 1209 -44 
Q 966 3 703 97 
z
M 1959 2075 
Q 2384 2075 2632 2365 
Q 2881 2656 2881 3163 
Q 2881 3666 2632 3958 
Q 2384 4250 1959 4250 
Q 1534 4250 1286 3958 
Q 1038 3666 1038 3163 
Q 1038 2656 1286 2365 
Q 1534 2075 1959 2075 
z
" id="DejaVuSans-39" transform="scale(0.015625)"/>
       <path d="M 3425 4513 
L 3425 3897 
Q 3066 4069 2747 4153 
Q 2428 4238 2131 4238 
Q 1616 4238 1336 4038 
Q 1056 3838 1056 3469 
Q 1056 3159 1242 3001 
Q 1428 2844 1947 2747 
L 2328 2669 
Q 3034 2534 3370 2195 
Q 3706 1856 3706 1288 
Q 3706 609 3251 259 
Q 2797 -91 1919 -91 
Q 1588 -91 1214 -16 
Q 841 59 441 206 
L 441 856 
Q 825 641 1194 531 
Q 1563 422 1919 422 
Q 2459 422 2753 634 
Q 3047 847 3047 1241 
Q 3047 1584 2836 1778 
Q 2625 1972 2144 2069 
L 1759 2144 
Q 1053 2284 737 2584 
Q 422 2884 422 3419 
Q 422 4038 858 4394 
Q 1294 4750 2059 4750 
Q 2388 4750 2728 4690 
Q 3069 4631 3425 4513 
z
" id="DejaVuSans-53" transform="scale(0.015625)"/>
       <path d="M 603 3500 
L 1178 3500 
L 1178 0 
L 603 0 
L 603 3500 
z
M 603 4863 
L 1178 4863 
L 1178 4134 
L 603 4134 
L 603 4863 
z
" id="DejaVuSans-69" transform="scale(0.015625)"/>
       <path id="DejaVuSans-20" transform="scale(0.015625)"/>
       <path d="M 313 2009 
L 1997 2009 
L 1997 1497 
L 313 1497 
L 313 2009 
z
" id="DejaVuSans-2d" transform="scale(0.015625)"/>
       <path d="M 628 4666 
L 3309 4666 
L 3309 4134 
L 1259 4134 
L 1259 2759 
L 3109 2759 
L 3109 2228 
L 1259 2228 
L 1259 0 
L 628 0 
L 628 4666 
z
" id="DejaVuSans-46" transform="scale(0.015625)"/>
       <path d="M 2631 2963 
Q 2534 3019 2420 3045 
Q 2306 3072 2169 3072 
Q 1681 3072 1420 2755 
Q 1159 2438 1159 1844 
L 1159 0 
L 581 0 
L 581 3500 
L 1159 3500 
L 1159 2956 
Q 1341 3275 1631 3429 
Q 1922 3584 2338 3584 
Q 2397 3584 2469 3576 
Q 2541 3569 2628 3553 
L 2631 2963 
z
" id="DejaVuSans-72" transform="scale(0.015625)"/>
       <path d="M 3597 1894 
L 3597 1613 
L 953 1613 
Q 991 1019 1311 708 
Q 1631 397 2203 397 
Q 2534 397 2845 478 
Q 3156 559 3463 722 
L 3463 178 
Q 3153 47 2828 -22 
Q 2503 -91 2169 -91 
Q 1331 -91 842 396 
Q 353 884 353 1716 
Q 353 2575 817 3079 
Q 1281 3584 2069 3584 
Q 2775 3584 3186 3129 
Q 3597 2675 3597 1894 
z
M 3022 2063 
Q 3016 2534 2758 2815 
Q 2500 3097 2075 3097 
Q 1594 3097 1305 2825 
Q 1016 2553 972 2059 
L 3022 2063 
z
" id="DejaVuSans-65" transform="scale(0.015625)"/>
       <path d="M 947 1747 
Q 947 1113 1208 752 
Q 1469 391 1925 391 
Q 2381 391 2643 752 
Q 2906 1113 2906 1747 
Q 2906 2381 2643 2742 
Q 2381 3103 1925 3103 
Q 1469 3103 1208 2742 
Q 947 2381 947 1747 
z
M 2906 525 
Q 2725 213 2448 61 
Q 2172 -91 1784 -91 
Q 1150 -91 751 415 
Q 353 922 353 1747 
Q 353 2572 751 3078 
Q 1150 3584 1784 3584 
Q 2172 3584 2448 3432 
Q 2725 3281 2906 2969 
L 2906 3500 
L 3481 3500 
L 3481 -1331 
L 2906 -1331 
L 2906 525 
z
" id="DejaVuSans-71" transform="scale(0.015625)"/>
       <path d="M 544 1381 
L 544 3500 
L 1119 3500 
L 1119 1403 
Q 1119 906 1312 657 
Q 1506 409 1894 409 
Q 2359 409 2629 706 
Q 2900 1003 2900 1516 
L 2900 3500 
L 3475 3500 
L 3475 0 
L 2900 0 
L 2900 538 
Q 2691 219 2414 64 
Q 2138 -91 1772 -91 
Q 1169 -91 856 284 
Q 544 659 544 1381 
z
M 1991 3584 
L 1991 3584 
z
" id="DejaVuSans-75" transform="scale(0.015625)"/>
       <path d="M 3513 2113 
L 3513 0 
L 2938 0 
L 2938 2094 
Q 2938 2591 2744 2837 
Q 2550 3084 2163 3084 
Q 1697 3084 1428 2787 
Q 1159 2491 1159 1978 
L 1159 0 
L 581 0 
L 581 3500 
L 1159 3500 
L 1159 2956 
Q 1366 3272 1645 3428 
Q 1925 3584 2291 3584 
Q 2894 3584 3203 3211 
Q 3513 2838 3513 2113 
z
" id="DejaVuSans-6e" transform="scale(0.015625)"/>
       <path d="M 3122 3366 
L 3122 2828 
Q 2878 2963 2633 3030 
Q 2388 3097 2138 3097 
Q 1578 3097 1268 2742 
Q 959 2388 959 1747 
Q 959 1106 1268 751 
Q 1578 397 2138 397 
Q 2388 397 2633 464 
Q 2878 531 3122 666 
L 3122 134 
Q 2881 22 2623 -34 
Q 2366 -91 2075 -91 
Q 1284 -91 818 406 
Q 353 903 353 1747 
Q 353 2603 823 3093 
Q 1294 3584 2113 3584 
Q 2378 3584 2631 3529 
Q 2884 3475 3122 3366 
z
" id="DejaVuSans-63" transform="scale(0.015625)"/>
       <path d="M 2059 -325 
Q 1816 -950 1584 -1140 
Q 1353 -1331 966 -1331 
L 506 -1331 
L 506 -850 
L 844 -850 
Q 1081 -850 1212 -737 
Q 1344 -625 1503 -206 
L 1606 56 
L 191 3500 
L 800 3500 
L 1894 763 
L 2988 3500 
L 3597 3500 
L 2059 -325 
z
" id="DejaVuSans-79" transform="scale(0.015625)"/>
       <path d="M 1625 4666 
L 2156 4666 
L 531 -594 
L 0 -594 
L 1625 4666 
z
" id="DejaVuSans-2f" transform="scale(0.015625)"/>
       <path d="M 1984 4856 
Q 1566 4138 1362 3434 
Q 1159 2731 1159 2009 
Q 1159 1288 1364 580 
Q 1569 -128 1984 -844 
L 1484 -844 
Q 1016 -109 783 600 
Q 550 1309 550 2009 
Q 550 2706 781 3412 
Q 1013 4119 1484 4856 
L 1984 4856 
z
" id="DejaVuSans-28" transform="scale(0.015625)"/>
       <path d="M 1159 525 
L 1159 -1331 
L 581 -1331 
L 581 3500 
L 1159 3500 
L 1159 2969 
Q 1341 3281 1617 3432 
Q 1894 3584 2278 3584 
Q 2916 3584 3314 3078 
Q 3713 2572 3713 1747 
Q 3713 922 3314 415 
Q 2916 -91 2278 -91 
Q 1894 -91 1617 61 
Q 1341 213 1159 525 
z
M 3116 1747 
Q 3116 2381 2855 2742 
Q 2594 3103 2138 3103 
Q 1681 3103 1420 2742 
Q 1159 2381 1159 1747 
Q 1159 1113 1420 752 
Q 1681 391 2138 391 
Q 2594 391 2855 752 
Q 3116 1113 3116 1747 
z
" id="DejaVuSans-70" transform="scale(0.015625)"/>
       <path d="M 3328 2828 
Q 3544 3216 3844 3400 
Q 4144 3584 4550 3584 
Q 5097 3584 5394 3201 
Q 5691 2819 5691 2113 
L 5691 0 
L 5113 0 
L 5113 2094 
Q 5113 2597 4934 2840 
Q 4756 3084 4391 3084 
Q 3944 3084 3684 2787 
Q 3425 2491 3425 1978 
L 3425 0 
L 2847 0 
L 2847 2094 
Q 2847 2600 2669 2842 
Q 2491 3084 2119 3084 
Q 1678 3084 1418 2786 
Q 1159 2488 1159 1978 
L 1159 0 
L 581 0 
L 581 3500 
L 1159 3500 
L 1159 2956 
Q 1356 3278 1631 3431 
Q 1906 3584 2284 3584 
Q 2666 3584 2933 3390 
Q 3200 3197 3328 2828 
z
" id="DejaVuSans-6d" transform="scale(0.015625)"/>
       <path d="M 513 4856 
L 1013 4856 
Q 1481 4119 1714 3412 
Q 1947 2706 1947 2009 
Q 1947 1309 1714 600 
Q 1481 -109 1013 -844 
L 513 -844 
Q 928 -128 1133 580 
Q 1338 1288 1338 2009 
Q 1338 2731 1133 3434 
Q 928 4138 513 4856 
z
" id="DejaVuSans-29" transform="scale(0.015625)"/>
      </defs>
      <use xlink:href="#DejaVuSans-32"/>
      <use x="63.623047" xlink:href="#DejaVuSans-39"/>
      <use x="127.246094" xlink:href="#DejaVuSans-53"/>
      <use x="190.722656" xlink:href="#DejaVuSans-69"/>
      <use x="218.505859" xlink:href="#DejaVuSans-20"/>
      <use x="250.292969" xlink:href="#DejaVuSans-2d"/>
      <use x="286.376953" xlink:href="#DejaVuSans-20"/>
      <use x="318.164062" xlink:href="#DejaVuSans-46"/>
      <use x="368.433594" xlink:href="#DejaVuSans-72"/>
      <use x="407.296875" xlink:href="#DejaVuSans-65"/>
      <use x="468.820312" xlink:href="#DejaVuSans-71"/>
      <use x="532.296875" xlink:href="#DejaVuSans-75"/>
      <use x="595.675781" xlink:href="#DejaVuSans-65"/>
      <use x="657.199219" xlink:href="#DejaVuSans-6e"/>
      <use x="720.578125" xlink:href="#DejaVuSans-63"/>
      <use x="775.558594" xlink:href="#DejaVuSans-79"/>
      <use x="834.738281" xlink:href="#DejaVuSans-20"/>
      <use x="866.525391" xlink:href="#DejaVuSans-2f"/>
      <use x="900.216797" xlink:href="#DejaVuSans-20"/>
      <use x="932.003906" xlink:href="#DejaVuSans-28"/>
      <use x="971.017578" xlink:href="#DejaVuSans-70"/>
      <use x="1034.494141" xlink:href="#DejaVuSans-70"/>
      <use x="1097.970703" xlink:href="#DejaVuSans-6d"/>
      <use x="1195.382812" xlink:href="#DejaVuSans-29"/>
     </g>
    </g>
   </g>
   <g id="line2d_8">
    <path clip-path="url(#pfc5039f5e6)" d="M 349.2 235.498747 
L 333.162535 235.406566 
L 331.275775 235.298281 
L 330.332394 235.162307 
L 329.389014 234.833534 
L 328.445634 234.304916 
L 327.502254 234.188693 
L 326.558873 232.966046 
L 325.615493 231.200598 
L 324.672113 233.063997 
L 323.728732 234.534772 
L 322.785352 234.957297 
L 321.841972 235.172717 
L 319.955211 235.284583 
L 317.12507 235.268959 
L 315.23831 235.359379 
L 308.634648 235.257207 
L 305.804507 235.109804 
L 303.917746 234.84103 
L 302.974366 234.484713 
L 302.030986 233.956613 
L 301.087606 232.203178 
L 300.144225 230.035876 
L 299.200845 230.827301 
L 298.257465 230.408496 
L 297.314085 224.249139 
L 296.370704 216.287073 
L 295.427324 224.515294 
L 294.483944 231.116999 
L 293.540563 232.963429 
L 292.597183 233.957419 
L 290.710423 234.43327 
L 288.823662 233.779969 
L 286.936901 234.703557 
L 285.050141 234.858986 
L 281.27662 234.710622 
L 278.446479 234.292529 
L 277.503099 234.066981 
L 276.559718 233.702819 
L 275.616338 233.185678 
L 274.672958 232.32635 
L 273.729577 230.728562 
L 272.786197 227.484528 
L 271.842817 218.27501 
L 270.899437 205.034763 
L 269.956056 209.175056 
L 269.012676 196.432183 
L 268.069296 172.774108 
L 267.125915 199.866396 
L 266.182535 221.018645 
L 265.239155 227.202951 
L 264.295775 230.390506 
L 263.352394 231.532286 
L 262.409014 232.189009 
L 261.465634 232.011333 
L 260.522254 230.381585 
L 259.578873 228.003595 
L 258.635493 230.683542 
L 257.692113 232.721708 
L 256.748732 233.345671 
L 255.805352 233.604408 
L 253.918592 233.662461 
L 252.031831 233.422937 
L 251.088451 233.214215 
L 249.20169 232.46329 
L 248.25831 231.807316 
L 247.31493 230.937081 
L 246.371549 229.449684 
L 245.428169 227.219784 
L 244.484789 222.565772 
L 243.541408 213.408338 
L 242.598028 185.702134 
L 241.654648 147.481552 
L 240.711268 166.386238 
L 239.767887 147.49064 
L 238.824507 99.551466 
L 237.881127 158.263046 
L 236.937746 203.532034 
L 235.994366 216.897805 
L 235.050986 223.621631 
L 234.107606 225.609894 
L 233.164225 225.976864 
L 232.220845 221.072365 
L 231.277465 214.476667 
L 230.334085 222.273171 
L 229.390704 228.449163 
L 228.447324 230.311825 
L 227.503944 231.204866 
L 226.560563 231.573024 
L 224.673803 231.629608 
L 223.730423 231.253448 
L 222.787042 231.037532 
L 221.843662 230.199683 
L 220.900282 229.626252 
L 219.956901 227.952193 
L 219.013521 226.531577 
L 218.070141 222.742041 
L 217.126761 218.446288 
L 216.18338 206.52534 
L 215.24 185.517983 
L 214.29662 112.486874 
L 213.353239 21.5 
L 212.409859 99.051146 
L 211.466479 150.82499 
L 210.523099 106.199533 
L 209.579718 36.468336 
L 208.636338 120.293615 
L 207.692958 187.52482 
L 206.749577 206.323302 
L 205.806197 216.637692 
L 204.862817 218.442424 
L 203.919437 217.905308 
L 202.976056 204.829597 
L 202.032676 188.438191 
L 201.089296 206.921107 
L 200.145915 222.102152 
L 199.202535 226.382886 
L 198.259155 228.956163 
L 196.372394 230.51197 
L 194.485634 230.738916 
L 193.542254 230.51193 
L 192.598873 230.127373 
L 191.655493 229.498836 
L 190.712113 228.362066 
L 189.768732 226.883616 
L 188.825352 223.920363 
L 187.881972 219.718973 
L 186.938592 209.686188 
L 185.995211 190.303671 
L 185.051831 126.697383 
L 184.108451 43.503369 
L 183.16507 106.877423 
L 182.22169 122.621821 
L 181.27831 83.262886 
L 180.33493 149.059854 
L 179.391549 197.501489 
L 178.448169 212.88749 
L 177.504789 220.225376 
L 176.561408 223.141422 
L 175.618028 223.521372 
L 174.674648 221.080543 
L 173.731268 208.563354 
L 172.787887 192.362779 
L 171.844507 209.678676 
L 170.901127 223.554132 
L 169.957746 227.541136 
L 169.014366 229.775946 
L 167.127606 231.107355 
L 166.184225 231.064329 
L 165.240845 231.210067 
L 164.297465 230.710907 
L 163.354085 230.465611 
L 162.410704 229.29974 
L 161.467324 228.356379 
L 160.523944 225.57315 
L 159.580563 222.399815 
L 158.637183 213.368279 
L 157.693803 197.226942 
L 156.750423 140.663382 
L 155.807042 70.20541 
L 154.863662 133.334118 
L 153.920282 178.285102 
L 152.976901 158.500635 
L 152.033521 122.832509 
L 151.090141 169.548525 
L 150.146761 207.052759 
L 149.20338 217.387157 
L 148.26 223.076542 
L 147.31662 223.324709 
L 146.373239 221.620369 
L 145.429859 208.85187 
L 144.486479 192.935204 
L 143.543099 210.152128 
L 142.599718 224.223586 
L 141.656338 228.185252 
L 140.712958 230.530899 
L 138.826197 232.013306 
L 136.939437 232.399579 
L 135.052676 232.216836 
L 134.109296 231.871412 
L 133.165915 231.380365 
L 132.222535 230.569001 
L 131.279155 229.158919 
L 130.335775 226.948187 
L 129.392394 222.106346 
L 128.449014 212.491669 
L 127.505634 182.29419 
L 126.562254 141.597713 
L 125.618873 166.988624 
L 124.675493 160.136109 
L 123.732113 124.293673 
L 122.788732 172.42323 
L 121.845352 209.053055 
L 120.901972 220.192332 
L 119.958592 225.792563 
L 119.015211 227.923863 
L 118.071831 228.807981 
L 117.128451 227.972516 
L 116.18507 222.68215 
L 115.24169 215.51144 
L 114.29831 223.489649 
L 113.35493 229.770195 
L 112.411549 231.712246 
L 111.468169 232.740915 
L 110.524789 233.186309 
L 109.581408 233.496145 
L 107.694648 233.725624 
L 105.807887 233.675084 
L 103.921127 233.313965 
L 102.977746 232.933795 
L 102.034366 232.338209 
L 101.090986 231.325125 
L 100.147606 229.381008 
L 99.204225 225.396555 
L 98.260845 214.046271 
L 97.317465 197.638322 
L 96.374085 202.430598 
L 95.430704 185.62522 
L 94.487324 155.101474 
L 93.543944 189.922323 
L 92.600563 217.154222 
L 91.657183 225.101872 
L 90.713803 229.232135 
L 89.770423 230.580091 
L 88.827042 231.258321 
L 87.883662 229.718263 
L 86.940282 227.620689 
L 85.996901 230.528731 
L 85.053521 232.928567 
L 84.110141 233.669679 
L 83.166761 234.148693 
L 81.28 234.528056 
L 78.449859 234.728506 
L 75.619718 234.699263 
L 74.676338 234.652851 
L 72.789577 234.323161 
L 71.846197 233.833562 
L 70.902817 233.076064 
L 69.959437 230.543601 
L 69.016056 227.385466 
L 68.072676 228.397752 
L 67.129296 227.509466 
L 66.185915 217.607508 
L 65.242535 204.828725 
L 64.299155 218.048554 
L 63.355775 228.64607 
L 62.412394 231.651199 
L 61.469014 233.274854 
L 60.525634 233.808499 
L 59.582254 234.190981 
L 57.695493 233.664455 
L 55.808732 234.807608 
L 53.921972 235.10124 
L 48.26169 235.279003 
L 43.544789 235.129378 
L 42.601408 235.025693 
L 41.658028 234.768221 
L 40.714648 234.209217 
L 39.771268 233.218961 
L 38.827887 232.757221 
L 37.884507 229.787242 
L 36.941127 225.714471 
L 35.997746 229.964007 
L 35.054366 233.34851 
L 34.110986 234.318549 
L 33.167606 234.838862 
L 31.280845 235.174967 
L 29.394085 235.210501 
L 28.450704 235.142551 
L 26.563944 235.366421 
L 22.790423 235.458692 
L 14.3 235.5 
L 14.3 235.5 
" style="fill:none;stroke:#000000;stroke-linecap:square;stroke-width:1.2;"/>
   </g>
   <g id="patch_3">
    <path d="M 14.3 246.2 
L 14.3 10.8 
" style="fill:none;stroke:#000000;stroke-linecap:square;stroke-linejoin:miter;stroke-width:0.8;"/>
   </g>
   <g id="patch_4">
    <path d="M 349.2 246.2 
L 349.2 10.8 
" style="fill:none;stroke:#000000;stroke-linecap:square;stroke-linejoin:miter;stroke-width:0.8;"/>
   </g>
   <g id="patch_5">
    <path d="M 14.3 246.2 
L 349.2 246.2 
" style="fill:none;stroke:#000000;stroke-linecap:square;stroke-linejoin:miter;stroke-width:0.8;"/>
   </g>
   <g id="patch_6">
    <path d="M 14.3 10.8 
L 349.2 10.8 
" style="fill:none;stroke:#000000;stroke-linecap:square;stroke-linejoin:miter;stroke-width:0.8;"/>
   </g>
  </g>
 </g>
 <defs>
  <clipPath id="pfc5039f5e6">
   <rect height="235.4" width="334.9" x="14.3" y="10.8"/>
  </clipPath>
 </defs>
</svg>
