<?xml version="1.0" encoding="utf-8" standalone="no"?>
<!DOCTYPE svg PUBLIC "-//W3C//DTD SVG 1.1//EN"
  "http://www.w3.org/Graphics/SVG/1.1/DTD/svg11.dtd">
<svg height="288pt" version="1.1" viewBox="0 0 360 288" width="360pt" xmlns="http://www.w3.org/2000/svg" xmlns:xlink="http://www.w3.org/1999/xlink">
 <metadata>
  <rdf:RDF xmlns:cc="http://creativecommons.org/ns#" xmlns:dc="http://purl.org/dc/elements/1.1/" xmlns:rdf="http://www.w3.org/1999/02/22-rdf-syntax-ns#">
   <cc:Work>
    <dc:type rdf:resource="http://purl.org/dc/dcmitype/StillImage"/>
    <dc:date>2021-08-08T22:02:22.242598</dc:date>
    <dc:format>image/svg+xml</dc:format>
    <dc:creator>
     <cc:Agent>
      <dc:title>Matplotlib v3.4.2, https://matplotlib.org/</dc:title>
     </cc:Agent>
    </dc:creator>
   </cc:Work>
  </rdf:RDF>
 </metadata>
 <defs>
  <style type="text/css">*{stroke-linecap:butt;stroke-linejoin:round;}</style>
 </defs>
 <g id="figure_1">
  <g id="patch_1">
   <path d="M 0 288 
L 360 288 
L 360 0 
L 0 0 
z
" style="fill:none;"/>
  </g>
  <g id="axes_1">
   <g id="patch_2">
    <path d="M 14.3 246.2 
L 349.2 246.2 
L 349.2 10.8 
L 14.3 10.8 
z
" style="fill:none;"/>
   </g>
   <g id="matplotlib.axis_1">
    <g id="xtick_1">
     <g id="line2d_1">
      <defs>
       <path d="M 0 0 
L 0 3.5 
" id="m5b3654195d" style="stroke:#000000;stroke-width:0.8;"/>
      </defs>
      <g>
       <use style="stroke:#000000;stroke-width:0.8;" x="329.899094" xlink:href="#m5b3654195d" y="246.2"/>
      </g>
     </g>
     <g id="text_1">
      <!-- −160 -->
      <g transform="translate(316.1655 260.798437)scale(0.1 -0.1)">
       <defs>
        <path d="M 678 2272 
L 4684 2272 
L 4684 1741 
L 678 1741 
L 678 2272 
z
" id="DejaVuSans-2212" transform="scale(0.015625)"/>
        <path d="M 794 531 
L 1825 531 
L 1825 4091 
L 703 3866 
L 703 4441 
L 1819 4666 
L 2450 4666 
L 2450 531 
L 3481 531 
L 3481 0 
L 794 0 
L 794 531 
z
" id="DejaVuSans-31" transform="scale(0.015625)"/>
        <path d="M 2113 2584 
Q 1688 2584 1439 2293 
Q 1191 2003 1191 1497 
Q 1191 994 1439 701 
Q 1688 409 2113 409 
Q 2538 409 2786 701 
Q 3034 994 3034 1497 
Q 3034 2003 2786 2293 
Q 2538 2584 2113 2584 
z
M 3366 4563 
L 3366 3988 
Q 3128 4100 2886 4159 
Q 2644 4219 2406 4219 
Q 1781 4219 1451 3797 
Q 1122 3375 1075 2522 
Q 1259 2794 1537 2939 
Q 1816 3084 2150 3084 
Q 2853 3084 3261 2657 
Q 3669 2231 3669 1497 
Q 3669 778 3244 343 
Q 2819 -91 2113 -91 
Q 1303 -91 875 529 
Q 447 1150 447 2328 
Q 447 3434 972 4092 
Q 1497 4750 2381 4750 
Q 2619 4750 2861 4703 
Q 3103 4656 3366 4563 
z
" id="DejaVuSans-36" transform="scale(0.015625)"/>
        <path d="M 2034 4250 
Q 1547 4250 1301 3770 
Q 1056 3291 1056 2328 
Q 1056 1369 1301 889 
Q 1547 409 2034 409 
Q 2525 409 2770 889 
Q 3016 1369 3016 2328 
Q 3016 3291 2770 3770 
Q 2525 4250 2034 4250 
z
M 2034 4750 
Q 2819 4750 3233 4129 
Q 3647 3509 3647 2328 
Q 3647 1150 3233 529 
Q 2819 -91 2034 -91 
Q 1250 -91 836 529 
Q 422 1150 422 2328 
Q 422 3509 836 4129 
Q 1250 4750 2034 4750 
z
" id="DejaVuSans-30" transform="scale(0.015625)"/>
       </defs>
       <use xlink:href="#DejaVuSans-2212"/>
       <use x="83.789062" xlink:href="#DejaVuSans-31"/>
       <use x="147.412109" xlink:href="#DejaVuSans-36"/>
       <use x="211.035156" xlink:href="#DejaVuSans-30"/>
      </g>
     </g>
    </g>
    <g id="xtick_2">
     <g id="line2d_2">
      <g>
       <use style="stroke:#000000;stroke-width:0.8;" x="287.705501" xlink:href="#m5b3654195d" y="246.2"/>
      </g>
     </g>
     <g id="text_2">
      <!-- −140 -->
      <g transform="translate(273.971908 260.798437)scale(0.1 -0.1)">
       <defs>
        <path d="M 2419 4116 
L 825 1625 
L 2419 1625 
L 2419 4116 
z
M 2253 4666 
L 3047 4666 
L 3047 1625 
L 3713 1625 
L 3713 1100 
L 3047 1100 
L 3047 0 
L 2419 0 
L 2419 1100 
L 313 1100 
L 313 1709 
L 2253 4666 
z
" id="DejaVuSans-34" transform="scale(0.015625)"/>
       </defs>
       <use xlink:href="#DejaVuSans-2212"/>
       <use x="83.789062" xlink:href="#DejaVuSans-31"/>
       <use x="147.412109" xlink:href="#DejaVuSans-34"/>
       <use x="211.035156" xlink:href="#DejaVuSans-30"/>
      </g>
     </g>
    </g>
    <g id="xtick_3">
     <g id="line2d_3">
      <g>
       <use style="stroke:#000000;stroke-width:0.8;" x="245.511909" xlink:href="#m5b3654195d" y="246.2"/>
      </g>
     </g>
     <g id="text_3">
      <!-- −120 -->
      <g transform="translate(231.778315 260.798437)scale(0.1 -0.1)">
       <defs>
        <path d="M 1228 531 
L 3431 531 
L 3431 0 
L 469 0 
L 469 531 
Q 828 903 1448 1529 
Q 2069 2156 2228 2338 
Q 2531 2678 2651 2914 
Q 2772 3150 2772 3378 
Q 2772 3750 2511 3984 
Q 2250 4219 1831 4219 
Q 1534 4219 1204 4116 
Q 875 4013 500 3803 
L 500 4441 
Q 881 4594 1212 4672 
Q 1544 4750 1819 4750 
Q 2544 4750 2975 4387 
Q 3406 4025 3406 3419 
Q 3406 3131 3298 2873 
Q 3191 2616 2906 2266 
Q 2828 2175 2409 1742 
Q 1991 1309 1228 531 
z
" id="DejaVuSans-32" transform="scale(0.015625)"/>
       </defs>
       <use xlink:href="#DejaVuSans-2212"/>
       <use x="83.789062" xlink:href="#DejaVuSans-31"/>
       <use x="147.412109" xlink:href="#DejaVuSans-32"/>
       <use x="211.035156" xlink:href="#DejaVuSans-30"/>
      </g>
     </g>
    </g>
    <g id="xtick_4">
     <g id="line2d_4">
      <g>
       <use style="stroke:#000000;stroke-width:0.8;" x="203.318316" xlink:href="#m5b3654195d" y="246.2"/>
      </g>
     </g>
     <g id="text_4">
      <!-- −100 -->
      <g transform="translate(189.584722 260.798437)scale(0.1 -0.1)">
       <use xlink:href="#DejaVuSans-2212"/>
       <use x="83.789062" xlink:href="#DejaVuSans-31"/>
       <use x="147.412109" xlink:href="#DejaVuSans-30"/>
       <use x="211.035156" xlink:href="#DejaVuSans-30"/>
      </g>
     </g>
    </g>
    <g id="xtick_5">
     <g id="line2d_5">
      <g>
       <use style="stroke:#000000;stroke-width:0.8;" x="161.124724" xlink:href="#m5b3654195d" y="246.2"/>
      </g>
     </g>
     <g id="text_5">
      <!-- −80 -->
      <g transform="translate(150.57238 260.798437)scale(0.1 -0.1)">
       <defs>
        <path d="M 2034 2216 
Q 1584 2216 1326 1975 
Q 1069 1734 1069 1313 
Q 1069 891 1326 650 
Q 1584 409 2034 409 
Q 2484 409 2743 651 
Q 3003 894 3003 1313 
Q 3003 1734 2745 1975 
Q 2488 2216 2034 2216 
z
M 1403 2484 
Q 997 2584 770 2862 
Q 544 3141 544 3541 
Q 544 4100 942 4425 
Q 1341 4750 2034 4750 
Q 2731 4750 3128 4425 
Q 3525 4100 3525 3541 
Q 3525 3141 3298 2862 
Q 3072 2584 2669 2484 
Q 3125 2378 3379 2068 
Q 3634 1759 3634 1313 
Q 3634 634 3220 271 
Q 2806 -91 2034 -91 
Q 1263 -91 848 271 
Q 434 634 434 1313 
Q 434 1759 690 2068 
Q 947 2378 1403 2484 
z
M 1172 3481 
Q 1172 3119 1398 2916 
Q 1625 2713 2034 2713 
Q 2441 2713 2670 2916 
Q 2900 3119 2900 3481 
Q 2900 3844 2670 4047 
Q 2441 4250 2034 4250 
Q 1625 4250 1398 4047 
Q 1172 3844 1172 3481 
z
" id="DejaVuSans-38" transform="scale(0.015625)"/>
       </defs>
       <use xlink:href="#DejaVuSans-2212"/>
       <use x="83.789062" xlink:href="#DejaVuSans-38"/>
       <use x="147.412109" xlink:href="#DejaVuSans-30"/>
      </g>
     </g>
    </g>
    <g id="xtick_6">
     <g id="line2d_6">
      <g>
       <use style="stroke:#000000;stroke-width:0.8;" x="118.931131" xlink:href="#m5b3654195d" y="246.2"/>
      </g>
     </g>
     <g id="text_6">
      <!-- −60 -->
      <g transform="translate(108.378787 260.798437)scale(0.1 -0.1)">
       <use xlink:href="#DejaVuSans-2212"/>
       <use x="83.789062" xlink:href="#DejaVuSans-36"/>
       <use x="147.412109" xlink:href="#DejaVuSans-30"/>
      </g>
     </g>
    </g>
    <g id="xtick_7">
     <g id="line2d_7">
      <g>
       <use style="stroke:#000000;stroke-width:0.8;" x="76.737539" xlink:href="#m5b3654195d" y="246.2"/>
      </g>
     </g>
     <g id="text_7">
      <!-- −40 -->
      <g transform="translate(66.185195 260.798437)scale(0.1 -0.1)">
       <use xlink:href="#DejaVuSans-2212"/>
       <use x="83.789062" xlink:href="#DejaVuSans-34"/>
       <use x="147.412109" xlink:href="#DejaVuSans-30"/>
      </g>
     </g>
    </g>
    <g id="xtick_8">
     <g id="line2d_8">
      <g>
       <use style="stroke:#000000;stroke-width:0.8;" x="34.543946" xlink:href="#m5b3654195d" y="246.2"/>
      </g>
     </g>
     <g id="text_8">
      <!-- −20 -->
      <g transform="translate(23.991602 260.798437)scale(0.1 -0.1)">
       <use xlink:href="#DejaVuSans-2212"/>
       <use x="83.789062" xlink:href="#DejaVuSans-32"/>
       <use x="147.412109" xlink:href="#DejaVuSans-30"/>
      </g>
     </g>
    </g>
    <g id="text_9">
     <!-- 29Si - Frequency / (ppm) -->
     <g transform="translate(120.029687 274.476562)scale(0.1 -0.1)">
      <defs>
       <path d="M 703 97 
L 703 672 
Q 941 559 1184 500 
Q 1428 441 1663 441 
Q 2288 441 2617 861 
Q 2947 1281 2994 2138 
Q 2813 1869 2534 1725 
Q 2256 1581 1919 1581 
Q 1219 1581 811 2004 
Q 403 2428 403 3163 
Q 403 3881 828 4315 
Q 1253 4750 1959 4750 
Q 2769 4750 3195 4129 
Q 3622 3509 3622 2328 
Q 3622 1225 3098 567 
Q 2575 -91 1691 -91 
Q 1453 -91 1209 -44 
Q 966 3 703 97 
z
M 1959 2075 
Q 2384 2075 2632 2365 
Q 2881 2656 2881 3163 
Q 2881 3666 2632 3958 
Q 2384 4250 1959 4250 
Q 1534 4250 1286 3958 
Q 1038 3666 1038 3163 
Q 1038 2656 1286 2365 
Q 1534 2075 1959 2075 
z
" id="DejaVuSans-39" transform="scale(0.015625)"/>
       <path d="M 3425 4513 
L 3425 3897 
Q 3066 4069 2747 4153 
Q 2428 4238 2131 4238 
Q 1616 4238 1336 4038 
Q 1056 3838 1056 3469 
Q 1056 3159 1242 3001 
Q 1428 2844 1947 2747 
L 2328 2669 
Q 3034 2534 3370 2195 
Q 3706 1856 3706 1288 
Q 3706 609 3251 259 
Q 2797 -91 1919 -91 
Q 1588 -91 1214 -16 
Q 841 59 441 206 
L 441 856 
Q 825 641 1194 531 
Q 1563 422 1919 422 
Q 2459 422 2753 634 
Q 3047 847 3047 1241 
Q 3047 1584 2836 1778 
Q 2625 1972 2144 2069 
L 1759 2144 
Q 1053 2284 737 2584 
Q 422 2884 422 3419 
Q 422 4038 858 4394 
Q 1294 4750 2059 4750 
Q 2388 4750 2728 4690 
Q 3069 4631 3425 4513 
z
" id="DejaVuSans-53" transform="scale(0.015625)"/>
       <path d="M 603 3500 
L 1178 3500 
L 1178 0 
L 603 0 
L 603 3500 
z
M 603 4863 
L 1178 4863 
L 1178 4134 
L 603 4134 
L 603 4863 
z
" id="DejaVuSans-69" transform="scale(0.015625)"/>
       <path id="DejaVuSans-20" transform="scale(0.015625)"/>
       <path d="M 313 2009 
L 1997 2009 
L 1997 1497 
L 313 1497 
L 313 2009 
z
" id="DejaVuSans-2d" transform="scale(0.015625)"/>
       <path d="M 628 4666 
L 3309 4666 
L 3309 4134 
L 1259 4134 
L 1259 2759 
L 3109 2759 
L 3109 2228 
L 1259 2228 
L 1259 0 
L 628 0 
L 628 4666 
z
" id="DejaVuSans-46" transform="scale(0.015625)"/>
       <path d="M 2631 2963 
Q 2534 3019 2420 3045 
Q 2306 3072 2169 3072 
Q 1681 3072 1420 2755 
Q 1159 2438 1159 1844 
L 1159 0 
L 581 0 
L 581 3500 
L 1159 3500 
L 1159 2956 
Q 1341 3275 1631 3429 
Q 1922 3584 2338 3584 
Q 2397 3584 2469 3576 
Q 2541 3569 2628 3553 
L 2631 2963 
z
" id="DejaVuSans-72" transform="scale(0.015625)"/>
       <path d="M 3597 1894 
L 3597 1613 
L 953 1613 
Q 991 1019 1311 708 
Q 1631 397 2203 397 
Q 2534 397 2845 478 
Q 3156 559 3463 722 
L 3463 178 
Q 3153 47 2828 -22 
Q 2503 -91 2169 -91 
Q 1331 -91 842 396 
Q 353 884 353 1716 
Q 353 2575 817 3079 
Q 1281 3584 2069 3584 
Q 2775 3584 3186 3129 
Q 3597 2675 3597 1894 
z
M 3022 2063 
Q 3016 2534 2758 2815 
Q 2500 3097 2075 3097 
Q 1594 3097 1305 2825 
Q 1016 2553 972 2059 
L 3022 2063 
z
" id="DejaVuSans-65" transform="scale(0.015625)"/>
       <path d="M 947 1747 
Q 947 1113 1208 752 
Q 1469 391 1925 391 
Q 2381 391 2643 752 
Q 2906 1113 2906 1747 
Q 2906 2381 2643 2742 
Q 2381 3103 1925 3103 
Q 1469 3103 1208 2742 
Q 947 2381 947 1747 
z
M 2906 525 
Q 2725 213 2448 61 
Q 2172 -91 1784 -91 
Q 1150 -91 751 415 
Q 353 922 353 1747 
Q 353 2572 751 3078 
Q 1150 3584 1784 3584 
Q 2172 3584 2448 3432 
Q 2725 3281 2906 2969 
L 2906 3500 
L 3481 3500 
L 3481 -1331 
L 2906 -1331 
L 2906 525 
z
" id="DejaVuSans-71" transform="scale(0.015625)"/>
       <path d="M 544 1381 
L 544 3500 
L 1119 3500 
L 1119 1403 
Q 1119 906 1312 657 
Q 1506 409 1894 409 
Q 2359 409 2629 706 
Q 2900 1003 2900 1516 
L 2900 3500 
L 3475 3500 
L 3475 0 
L 2900 0 
L 2900 538 
Q 2691 219 2414 64 
Q 2138 -91 1772 -91 
Q 1169 -91 856 284 
Q 544 659 544 1381 
z
M 1991 3584 
L 1991 3584 
z
" id="DejaVuSans-75" transform="scale(0.015625)"/>
       <path d="M 3513 2113 
L 3513 0 
L 2938 0 
L 2938 2094 
Q 2938 2591 2744 2837 
Q 2550 3084 2163 3084 
Q 1697 3084 1428 2787 
Q 1159 2491 1159 1978 
L 1159 0 
L 581 0 
L 581 3500 
L 1159 3500 
L 1159 2956 
Q 1366 3272 1645 3428 
Q 1925 3584 2291 3584 
Q 2894 3584 3203 3211 
Q 3513 2838 3513 2113 
z
" id="DejaVuSans-6e" transform="scale(0.015625)"/>
       <path d="M 3122 3366 
L 3122 2828 
Q 2878 2963 2633 3030 
Q 2388 3097 2138 3097 
Q 1578 3097 1268 2742 
Q 959 2388 959 1747 
Q 959 1106 1268 751 
Q 1578 397 2138 397 
Q 2388 397 2633 464 
Q 2878 531 3122 666 
L 3122 134 
Q 2881 22 2623 -34 
Q 2366 -91 2075 -91 
Q 1284 -91 818 406 
Q 353 903 353 1747 
Q 353 2603 823 3093 
Q 1294 3584 2113 3584 
Q 2378 3584 2631 3529 
Q 2884 3475 3122 3366 
z
" id="DejaVuSans-63" transform="scale(0.015625)"/>
       <path d="M 2059 -325 
Q 1816 -950 1584 -1140 
Q 1353 -1331 966 -1331 
L 506 -1331 
L 506 -850 
L 844 -850 
Q 1081 -850 1212 -737 
Q 1344 -625 1503 -206 
L 1606 56 
L 191 3500 
L 800 3500 
L 1894 763 
L 2988 3500 
L 3597 3500 
L 2059 -325 
z
" id="DejaVuSans-79" transform="scale(0.015625)"/>
       <path d="M 1625 4666 
L 2156 4666 
L 531 -594 
L 0 -594 
L 1625 4666 
z
" id="DejaVuSans-2f" transform="scale(0.015625)"/>
       <path d="M 1984 4856 
Q 1566 4138 1362 3434 
Q 1159 2731 1159 2009 
Q 1159 1288 1364 580 
Q 1569 -128 1984 -844 
L 1484 -844 
Q 1016 -109 783 600 
Q 550 1309 550 2009 
Q 550 2706 781 3412 
Q 1013 4119 1484 4856 
L 1984 4856 
z
" id="DejaVuSans-28" transform="scale(0.015625)"/>
       <path d="M 1159 525 
L 1159 -1331 
L 581 -1331 
L 581 3500 
L 1159 3500 
L 1159 2969 
Q 1341 3281 1617 3432 
Q 1894 3584 2278 3584 
Q 2916 3584 3314 3078 
Q 3713 2572 3713 1747 
Q 3713 922 3314 415 
Q 2916 -91 2278 -91 
Q 1894 -91 1617 61 
Q 1341 213 1159 525 
z
M 3116 1747 
Q 3116 2381 2855 2742 
Q 2594 3103 2138 3103 
Q 1681 3103 1420 2742 
Q 1159 2381 1159 1747 
Q 1159 1113 1420 752 
Q 1681 391 2138 391 
Q 2594 391 2855 752 
Q 3116 1113 3116 1747 
z
" id="DejaVuSans-70" transform="scale(0.015625)"/>
       <path d="M 3328 2828 
Q 3544 3216 3844 3400 
Q 4144 3584 4550 3584 
Q 5097 3584 5394 3201 
Q 5691 2819 5691 2113 
L 5691 0 
L 5113 0 
L 5113 2094 
Q 5113 2597 4934 2840 
Q 4756 3084 4391 3084 
Q 3944 3084 3684 2787 
Q 3425 2491 3425 1978 
L 3425 0 
L 2847 0 
L 2847 2094 
Q 2847 2600 2669 2842 
Q 2491 3084 2119 3084 
Q 1678 3084 1418 2786 
Q 1159 2488 1159 1978 
L 1159 0 
L 581 0 
L 581 3500 
L 1159 3500 
L 1159 2956 
Q 1356 3278 1631 3431 
Q 1906 3584 2284 3584 
Q 2666 3584 2933 3390 
Q 3200 3197 3328 2828 
z
" id="DejaVuSans-6d" transform="scale(0.015625)"/>
       <path d="M 513 4856 
L 1013 4856 
Q 1481 4119 1714 3412 
Q 1947 2706 1947 2009 
Q 1947 1309 1714 600 
Q 1481 -109 1013 -844 
L 513 -844 
Q 928 -128 1133 580 
Q 1338 1288 1338 2009 
Q 1338 2731 1133 3434 
Q 928 4138 513 4856 
z
" id="DejaVuSans-29" transform="scale(0.015625)"/>
      </defs>
      <use xlink:href="#DejaVuSans-32"/>
      <use x="63.623047" xlink:href="#DejaVuSans-39"/>
      <use x="127.246094" xlink:href="#DejaVuSans-53"/>
      <use x="190.722656" xlink:href="#DejaVuSans-69"/>
      <use x="218.505859" xlink:href="#DejaVuSans-20"/>
      <use x="250.292969" xlink:href="#DejaVuSans-2d"/>
      <use x="286.376953" xlink:href="#DejaVuSans-20"/>
      <use x="318.164062" xlink:href="#DejaVuSans-46"/>
      <use x="368.433594" xlink:href="#DejaVuSans-72"/>
      <use x="407.296875" xlink:href="#DejaVuSans-65"/>
      <use x="468.820312" xlink:href="#DejaVuSans-71"/>
      <use x="532.296875" xlink:href="#DejaVuSans-75"/>
      <use x="595.675781" xlink:href="#DejaVuSans-65"/>
      <use x="657.199219" xlink:href="#DejaVuSans-6e"/>
      <use x="720.578125" xlink:href="#DejaVuSans-63"/>
      <use x="775.558594" xlink:href="#DejaVuSans-79"/>
      <use x="834.738281" xlink:href="#DejaVuSans-20"/>
      <use x="866.525391" xlink:href="#DejaVuSans-2f"/>
      <use x="900.216797" xlink:href="#DejaVuSans-20"/>
      <use x="932.003906" xlink:href="#DejaVuSans-28"/>
      <use x="971.017578" xlink:href="#DejaVuSans-70"/>
      <use x="1034.494141" xlink:href="#DejaVuSans-70"/>
      <use x="1097.970703" xlink:href="#DejaVuSans-6d"/>
      <use x="1195.382812" xlink:href="#DejaVuSans-29"/>
     </g>
    </g>
   </g>
   <g id="line2d_9">
    <path clip-path="url(#pb9afece3b3)" d="M 349.2 235.474717 
L 346.549077 235.24359 
L 345.665435 234.985039 
L 343.898153 233.552509 
L 342.130871 234.842196 
L 338.596306 235.437083 
L 333.294459 235.481189 
L 327.992612 235.247507 
L 326.22533 234.896168 
L 325.341689 234.427057 
L 324.458047 233.533467 
L 322.690765 228.666295 
L 320.923483 232.763581 
L 320.039842 233.157925 
L 319.156201 234.05773 
L 318.272559 234.679787 
L 317.388918 234.978056 
L 315.621636 235.188198 
L 312.087071 235.214182 
L 308.552507 234.960893 
L 306.785224 234.59726 
L 305.901583 234.194856 
L 305.017942 233.65578 
L 304.134301 232.396006 
L 303.25066 230.005835 
L 301.483377 217.005834 
L 299.716095 228.586126 
L 298.832454 228.938057 
L 297.948813 228.15159 
L 296.18153 232.894396 
L 295.297889 233.737845 
L 294.414248 234.237369 
L 292.646966 234.55946 
L 289.112401 234.449604 
L 287.345119 234.092078 
L 285.577836 233.301653 
L 284.694195 232.425005 
L 283.810554 231.24578 
L 282.926913 228.511622 
L 282.043272 223.348621 
L 280.275989 195.313781 
L 278.508707 218.258574 
L 277.625066 215.997325 
L 276.741425 211.263695 
L 274.974142 227.477797 
L 274.090501 230.426071 
L 273.20686 232.070344 
L 271.439578 233.236887 
L 269.672296 233.55114 
L 267.905013 233.459357 
L 266.137731 232.980034 
L 264.370449 231.820946 
L 263.486807 230.513746 
L 262.603166 228.790672 
L 261.719525 224.799993 
L 260.835884 217.407865 
L 259.068602 177.328263 
L 258.18496 192.575944 
L 257.301319 204.279878 
L 256.417678 192.403247 
L 255.534037 176.999613 
L 253.766755 217.09046 
L 252.883113 224.422749 
L 251.999472 228.356828 
L 251.115831 229.976708 
L 250.23219 231.203174 
L 248.464908 232.108473 
L 246.697625 232.217046 
L 244.930343 231.711567 
L 243.163061 230.289465 
L 242.27942 228.646558 
L 241.395778 226.550621 
L 240.512137 221.704743 
L 239.628496 213.011529 
L 237.861214 165.990448 
L 236.977573 179.541528 
L 236.093931 185.864438 
L 235.21029 154.558438 
L 234.326649 119.129003 
L 232.559367 200.20447 
L 231.675726 215.099668 
L 230.792084 222.920458 
L 229.908443 226.259586 
L 229.024802 228.695308 
L 227.25752 230.772476 
L 225.490237 231.534578 
L 224.606596 231.478161 
L 223.722955 231.552759 
L 221.955673 230.796867 
L 221.072032 229.732747 
L 220.188391 228.475109 
L 219.304749 225.420884 
L 218.421108 220.237326 
L 216.653826 192.078312 
L 215.770185 196.219866 
L 214.886544 193.286628 
L 213.119261 121.701567 
L 211.351979 201.106346 
L 210.468338 215.652256 
L 209.584697 223.207094 
L 208.701055 226.384123 
L 207.817414 228.674478 
L 206.050132 230.527386 
L 204.28285 231.0555 
L 203.399208 230.837325 
L 202.515567 230.737561 
L 200.748285 229.344953 
L 199.864644 227.619947 
L 198.981003 225.396185 
L 198.097361 220.17277 
L 197.21372 210.712064 
L 195.446438 159.40044 
L 194.562797 175.298018 
L 193.679156 184.064135 
L 192.795515 154.264064 
L 191.911873 119.937788 
L 190.144591 199.852417 
L 189.26095 214.524151 
L 188.377309 222.208417 
L 187.493668 225.478677 
L 186.610026 227.816771 
L 184.842744 229.702411 
L 183.075462 230.180766 
L 181.308179 229.741247 
L 180.424538 229.072843 
L 179.540897 228.188109 
L 178.657256 226.665406 
L 177.773615 224.346055 
L 176.889974 220.444992 
L 176.006332 213.138254 
L 175.122691 198.496196 
L 174.23905 163.218685 
L 173.355409 121.304599 
L 172.471768 130.631943 
L 171.588127 102.80138 
L 170.704485 55.142518 
L 168.937203 180.553532 
L 168.053562 203.752036 
L 167.169921 215.531679 
L 166.28628 220.894922 
L 165.402639 224.467809 
L 164.518997 226.251503 
L 163.635356 227.63482 
L 161.868074 228.702687 
L 160.100792 228.533937 
L 159.21715 227.920592 
L 158.333509 227.04474 
L 157.449868 225.46746 
L 156.566227 223.04665 
L 155.682586 218.913355 
L 154.798945 211.268768 
L 153.915303 195.919531 
L 153.031662 159.456556 
L 152.148021 115.115715 
L 151.26438 120.34296 
L 150.380739 80.989448 
L 149.497098 21.5 
L 147.729815 170.77838 
L 146.846174 198.397149 
L 145.962533 212.42525 
L 145.078892 218.802652 
L 144.195251 223.066901 
L 143.311609 225.226392 
L 142.427968 226.9118 
L 141.544327 227.700812 
L 140.660686 228.338678 
L 139.777045 228.438419 
L 138.893404 228.407919 
L 138.009763 227.907142 
L 137.126121 227.109934 
L 136.24248 225.648043 
L 135.358839 223.279151 
L 134.475198 219.255619 
L 133.591557 211.528105 
L 132.707916 195.994536 
L 131.824274 158.225974 
L 130.940633 113.651489 
L 130.056992 124.925998 
L 129.173351 98.078136 
L 128.28971 49.825734 
L 126.522427 179.104127 
L 125.638786 203.096569 
L 124.755145 215.292469 
L 123.871504 220.943773 
L 122.987863 224.706235 
L 122.104222 226.690564 
L 121.22058 228.221117 
L 120.336939 229.019589 
L 119.453298 229.655203 
L 118.569657 229.879391 
L 117.686016 229.968467 
L 116.802375 229.728529 
L 115.918734 229.226559 
L 115.035092 228.281001 
L 114.151451 226.597091 
L 113.26781 223.762768 
L 112.384169 217.999175 
L 111.500528 206.395102 
L 110.616887 177.249063 
L 109.733245 144.287779 
L 108.849604 159.217311 
L 107.965963 153.302976 
L 107.082322 130.29598 
L 105.31504 203.007521 
L 104.431398 216.572201 
L 103.547757 223.470045 
L 102.664116 226.770979 
L 101.780475 228.939576 
L 100.896834 230.142105 
L 100.013193 231.037995 
L 99.129551 231.547886 
L 98.24591 231.924219 
L 97.362269 232.094044 
L 96.478628 232.145193 
L 95.594987 232.037683 
L 94.711346 231.725349 
L 93.827704 231.187809 
L 92.944063 230.123836 
L 92.060422 228.392756 
L 91.176781 224.649183 
L 90.29314 217.135811 
L 88.525858 176.550377 
L 87.642216 190.745167 
L 86.758575 196.821626 
L 85.874934 191.076025 
L 84.991293 207.263825 
L 84.107652 221.344628 
L 83.224011 227.055304 
L 82.340369 229.960085 
L 81.456728 231.446498 
L 80.573087 232.397811 
L 79.689446 232.978834 
L 78.805805 233.387764 
L 77.038522 233.843221 
L 75.27124 234.007467 
L 74.387599 234.011563 
L 72.620317 233.738933 
L 71.736675 233.32578 
L 70.853034 232.692956 
L 69.969393 231.186802 
L 69.085752 228.220286 
L 67.31847 211.99848 
L 65.551187 226.135693 
L 64.667546 225.903963 
L 63.783905 224.195453 
L 62.016623 231.718905 
L 61.132982 233.134136 
L 60.24934 233.93231 
L 58.482058 234.586757 
L 55.831135 234.928607 
L 53.180211 235.031576 
L 50.529288 234.839466 
L 49.645646 234.650935 
L 48.762005 234.18334 
L 47.878364 233.256744 
L 46.111082 228.158797 
L 44.343799 232.816949 
L 43.460158 233.043182 
L 42.576517 232.803095 
L 40.809235 234.599801 
L 39.925594 234.942916 
L 38.158311 235.238581 
L 35.507388 235.389 
L 30.205541 235.42641 
L 28.438259 235.346552 
L 27.554617 235.227315 
L 26.670976 234.980421 
L 24.903694 233.635156 
L 23.136412 234.903262 
L 22.25277 235.024094 
L 21.369129 235.01419 
L 19.601847 235.369451 
L 16.950923 235.492605 
L 14.3 235.486475 
L 14.3 235.486475 
" style="fill:none;stroke:#000000;stroke-linecap:square;stroke-width:1.2;"/>
   </g>
   <g id="patch_3">
    <path d="M 14.3 246.2 
L 14.3 10.8 
" style="fill:none;stroke:#000000;stroke-linecap:square;stroke-linejoin:miter;stroke-width:0.8;"/>
   </g>
   <g id="patch_4">
    <path d="M 349.2 246.2 
L 349.2 10.8 
" style="fill:none;stroke:#000000;stroke-linecap:square;stroke-linejoin:miter;stroke-width:0.8;"/>
   </g>
   <g id="patch_5">
    <path d="M 14.3 246.2 
L 349.2 246.2 
" style="fill:none;stroke:#000000;stroke-linecap:square;stroke-linejoin:miter;stroke-width:0.8;"/>
   </g>
   <g id="patch_6">
    <path d="M 14.3 10.8 
L 349.2 10.8 
" style="fill:none;stroke:#000000;stroke-linecap:square;stroke-linejoin:miter;stroke-width:0.8;"/>
   </g>
  </g>
 </g>
 <defs>
  <clipPath id="pb9afece3b3">
   <rect height="235.4" width="334.9" x="14.3" y="10.8"/>
  </clipPath>
 </defs>
</svg>
