<?xml version="1.0" encoding="utf-8" standalone="no"?>
<!DOCTYPE svg PUBLIC "-//W3C//DTD SVG 1.1//EN"
  "http://www.w3.org/Graphics/SVG/1.1/DTD/svg11.dtd">
<svg height="288pt" version="1.1" viewBox="0 0 360 288" width="360pt" xmlns="http://www.w3.org/2000/svg" xmlns:xlink="http://www.w3.org/1999/xlink">
 <metadata>
  <rdf:RDF xmlns:cc="http://creativecommons.org/ns#" xmlns:dc="http://purl.org/dc/elements/1.1/" xmlns:rdf="http://www.w3.org/1999/02/22-rdf-syntax-ns#">
   <cc:Work>
    <dc:type rdf:resource="http://purl.org/dc/dcmitype/StillImage"/>
    <dc:date>2021-08-08T22:02:20.724314</dc:date>
    <dc:format>image/svg+xml</dc:format>
    <dc:creator>
     <cc:Agent>
      <dc:title>Matplotlib v3.4.2, https://matplotlib.org/</dc:title>
     </cc:Agent>
    </dc:creator>
   </cc:Work>
  </rdf:RDF>
 </metadata>
 <defs>
  <style type="text/css">*{stroke-linecap:butt;stroke-linejoin:round;}</style>
 </defs>
 <g id="figure_1">
  <g id="patch_1">
   <path d="M 0 288 
L 360 288 
L 360 0 
L 0 0 
z
" style="fill:none;"/>
  </g>
  <g id="axes_1">
   <g id="patch_2">
    <path d="M 14.3 246.2 
L 349.2 246.2 
L 349.2 10.8 
L 14.3 10.8 
z
" style="fill:none;"/>
   </g>
   <g id="matplotlib.axis_1">
    <g id="xtick_1">
     <g id="line2d_1">
      <defs>
       <path d="M 0 0 
L 0 3.5 
" id="m3e6fe797ce" style="stroke:#000000;stroke-width:0.8;"/>
      </defs>
      <g>
       <use style="stroke:#000000;stroke-width:0.8;" x="297.647354" xlink:href="#m3e6fe797ce" y="246.2"/>
      </g>
     </g>
     <g id="text_1">
      <!-- −140 -->
      <g transform="translate(283.91376 260.798437)scale(0.1 -0.1)">
       <defs>
        <path d="M 678 2272 
L 4684 2272 
L 4684 1741 
L 678 1741 
L 678 2272 
z
" id="DejaVuSans-2212" transform="scale(0.015625)"/>
        <path d="M 794 531 
L 1825 531 
L 1825 4091 
L 703 3866 
L 703 4441 
L 1819 4666 
L 2450 4666 
L 2450 531 
L 3481 531 
L 3481 0 
L 794 0 
L 794 531 
z
" id="DejaVuSans-31" transform="scale(0.015625)"/>
        <path d="M 2419 4116 
L 825 1625 
L 2419 1625 
L 2419 4116 
z
M 2253 4666 
L 3047 4666 
L 3047 1625 
L 3713 1625 
L 3713 1100 
L 3047 1100 
L 3047 0 
L 2419 0 
L 2419 1100 
L 313 1100 
L 313 1709 
L 2253 4666 
z
" id="DejaVuSans-34" transform="scale(0.015625)"/>
        <path d="M 2034 4250 
Q 1547 4250 1301 3770 
Q 1056 3291 1056 2328 
Q 1056 1369 1301 889 
Q 1547 409 2034 409 
Q 2525 409 2770 889 
Q 3016 1369 3016 2328 
Q 3016 3291 2770 3770 
Q 2525 4250 2034 4250 
z
M 2034 4750 
Q 2819 4750 3233 4129 
Q 3647 3509 3647 2328 
Q 3647 1150 3233 529 
Q 2819 -91 2034 -91 
Q 1250 -91 836 529 
Q 422 1150 422 2328 
Q 422 3509 836 4129 
Q 1250 4750 2034 4750 
z
" id="DejaVuSans-30" transform="scale(0.015625)"/>
       </defs>
       <use xlink:href="#DejaVuSans-2212"/>
       <use x="83.789062" xlink:href="#DejaVuSans-31"/>
       <use x="147.412109" xlink:href="#DejaVuSans-34"/>
       <use x="211.035156" xlink:href="#DejaVuSans-30"/>
      </g>
     </g>
    </g>
    <g id="xtick_2">
     <g id="line2d_2">
      <g>
       <use style="stroke:#000000;stroke-width:0.8;" x="245.659501" xlink:href="#m3e6fe797ce" y="246.2"/>
      </g>
     </g>
     <g id="text_2">
      <!-- −120 -->
      <g transform="translate(231.925907 260.798437)scale(0.1 -0.1)">
       <defs>
        <path d="M 1228 531 
L 3431 531 
L 3431 0 
L 469 0 
L 469 531 
Q 828 903 1448 1529 
Q 2069 2156 2228 2338 
Q 2531 2678 2651 2914 
Q 2772 3150 2772 3378 
Q 2772 3750 2511 3984 
Q 2250 4219 1831 4219 
Q 1534 4219 1204 4116 
Q 875 4013 500 3803 
L 500 4441 
Q 881 4594 1212 4672 
Q 1544 4750 1819 4750 
Q 2544 4750 2975 4387 
Q 3406 4025 3406 3419 
Q 3406 3131 3298 2873 
Q 3191 2616 2906 2266 
Q 2828 2175 2409 1742 
Q 1991 1309 1228 531 
z
" id="DejaVuSans-32" transform="scale(0.015625)"/>
       </defs>
       <use xlink:href="#DejaVuSans-2212"/>
       <use x="83.789062" xlink:href="#DejaVuSans-31"/>
       <use x="147.412109" xlink:href="#DejaVuSans-32"/>
       <use x="211.035156" xlink:href="#DejaVuSans-30"/>
      </g>
     </g>
    </g>
    <g id="xtick_3">
     <g id="line2d_3">
      <g>
       <use style="stroke:#000000;stroke-width:0.8;" x="193.671647" xlink:href="#m3e6fe797ce" y="246.2"/>
      </g>
     </g>
     <g id="text_3">
      <!-- −100 -->
      <g transform="translate(179.938053 260.798437)scale(0.1 -0.1)">
       <use xlink:href="#DejaVuSans-2212"/>
       <use x="83.789062" xlink:href="#DejaVuSans-31"/>
       <use x="147.412109" xlink:href="#DejaVuSans-30"/>
       <use x="211.035156" xlink:href="#DejaVuSans-30"/>
      </g>
     </g>
    </g>
    <g id="xtick_4">
     <g id="line2d_4">
      <g>
       <use style="stroke:#000000;stroke-width:0.8;" x="141.683794" xlink:href="#m3e6fe797ce" y="246.2"/>
      </g>
     </g>
     <g id="text_4">
      <!-- −80 -->
      <g transform="translate(131.13145 260.798437)scale(0.1 -0.1)">
       <defs>
        <path d="M 2034 2216 
Q 1584 2216 1326 1975 
Q 1069 1734 1069 1313 
Q 1069 891 1326 650 
Q 1584 409 2034 409 
Q 2484 409 2743 651 
Q 3003 894 3003 1313 
Q 3003 1734 2745 1975 
Q 2488 2216 2034 2216 
z
M 1403 2484 
Q 997 2584 770 2862 
Q 544 3141 544 3541 
Q 544 4100 942 4425 
Q 1341 4750 2034 4750 
Q 2731 4750 3128 4425 
Q 3525 4100 3525 3541 
Q 3525 3141 3298 2862 
Q 3072 2584 2669 2484 
Q 3125 2378 3379 2068 
Q 3634 1759 3634 1313 
Q 3634 634 3220 271 
Q 2806 -91 2034 -91 
Q 1263 -91 848 271 
Q 434 634 434 1313 
Q 434 1759 690 2068 
Q 947 2378 1403 2484 
z
M 1172 3481 
Q 1172 3119 1398 2916 
Q 1625 2713 2034 2713 
Q 2441 2713 2670 2916 
Q 2900 3119 2900 3481 
Q 2900 3844 2670 4047 
Q 2441 4250 2034 4250 
Q 1625 4250 1398 4047 
Q 1172 3844 1172 3481 
z
" id="DejaVuSans-38" transform="scale(0.015625)"/>
       </defs>
       <use xlink:href="#DejaVuSans-2212"/>
       <use x="83.789062" xlink:href="#DejaVuSans-38"/>
       <use x="147.412109" xlink:href="#DejaVuSans-30"/>
      </g>
     </g>
    </g>
    <g id="xtick_5">
     <g id="line2d_5">
      <g>
       <use style="stroke:#000000;stroke-width:0.8;" x="89.69594" xlink:href="#m3e6fe797ce" y="246.2"/>
      </g>
     </g>
     <g id="text_5">
      <!-- −60 -->
      <g transform="translate(79.143596 260.798437)scale(0.1 -0.1)">
       <defs>
        <path d="M 2113 2584 
Q 1688 2584 1439 2293 
Q 1191 2003 1191 1497 
Q 1191 994 1439 701 
Q 1688 409 2113 409 
Q 2538 409 2786 701 
Q 3034 994 3034 1497 
Q 3034 2003 2786 2293 
Q 2538 2584 2113 2584 
z
M 3366 4563 
L 3366 3988 
Q 3128 4100 2886 4159 
Q 2644 4219 2406 4219 
Q 1781 4219 1451 3797 
Q 1122 3375 1075 2522 
Q 1259 2794 1537 2939 
Q 1816 3084 2150 3084 
Q 2853 3084 3261 2657 
Q 3669 2231 3669 1497 
Q 3669 778 3244 343 
Q 2819 -91 2113 -91 
Q 1303 -91 875 529 
Q 447 1150 447 2328 
Q 447 3434 972 4092 
Q 1497 4750 2381 4750 
Q 2619 4750 2861 4703 
Q 3103 4656 3366 4563 
z
" id="DejaVuSans-36" transform="scale(0.015625)"/>
       </defs>
       <use xlink:href="#DejaVuSans-2212"/>
       <use x="83.789062" xlink:href="#DejaVuSans-36"/>
       <use x="147.412109" xlink:href="#DejaVuSans-30"/>
      </g>
     </g>
    </g>
    <g id="xtick_6">
     <g id="line2d_6">
      <g>
       <use style="stroke:#000000;stroke-width:0.8;" x="37.708087" xlink:href="#m3e6fe797ce" y="246.2"/>
      </g>
     </g>
     <g id="text_6">
      <!-- −40 -->
      <g transform="translate(27.155743 260.798437)scale(0.1 -0.1)">
       <use xlink:href="#DejaVuSans-2212"/>
       <use x="83.789062" xlink:href="#DejaVuSans-34"/>
       <use x="147.412109" xlink:href="#DejaVuSans-30"/>
      </g>
     </g>
    </g>
    <g id="text_7">
     <!-- 29Si - Frequency / (ppm) -->
     <g transform="translate(120.029687 274.476562)scale(0.1 -0.1)">
      <defs>
       <path d="M 703 97 
L 703 672 
Q 941 559 1184 500 
Q 1428 441 1663 441 
Q 2288 441 2617 861 
Q 2947 1281 2994 2138 
Q 2813 1869 2534 1725 
Q 2256 1581 1919 1581 
Q 1219 1581 811 2004 
Q 403 2428 403 3163 
Q 403 3881 828 4315 
Q 1253 4750 1959 4750 
Q 2769 4750 3195 4129 
Q 3622 3509 3622 2328 
Q 3622 1225 3098 567 
Q 2575 -91 1691 -91 
Q 1453 -91 1209 -44 
Q 966 3 703 97 
z
M 1959 2075 
Q 2384 2075 2632 2365 
Q 2881 2656 2881 3163 
Q 2881 3666 2632 3958 
Q 2384 4250 1959 4250 
Q 1534 4250 1286 3958 
Q 1038 3666 1038 3163 
Q 1038 2656 1286 2365 
Q 1534 2075 1959 2075 
z
" id="DejaVuSans-39" transform="scale(0.015625)"/>
       <path d="M 3425 4513 
L 3425 3897 
Q 3066 4069 2747 4153 
Q 2428 4238 2131 4238 
Q 1616 4238 1336 4038 
Q 1056 3838 1056 3469 
Q 1056 3159 1242 3001 
Q 1428 2844 1947 2747 
L 2328 2669 
Q 3034 2534 3370 2195 
Q 3706 1856 3706 1288 
Q 3706 609 3251 259 
Q 2797 -91 1919 -91 
Q 1588 -91 1214 -16 
Q 841 59 441 206 
L 441 856 
Q 825 641 1194 531 
Q 1563 422 1919 422 
Q 2459 422 2753 634 
Q 3047 847 3047 1241 
Q 3047 1584 2836 1778 
Q 2625 1972 2144 2069 
L 1759 2144 
Q 1053 2284 737 2584 
Q 422 2884 422 3419 
Q 422 4038 858 4394 
Q 1294 4750 2059 4750 
Q 2388 4750 2728 4690 
Q 3069 4631 3425 4513 
z
" id="DejaVuSans-53" transform="scale(0.015625)"/>
       <path d="M 603 3500 
L 1178 3500 
L 1178 0 
L 603 0 
L 603 3500 
z
M 603 4863 
L 1178 4863 
L 1178 4134 
L 603 4134 
L 603 4863 
z
" id="DejaVuSans-69" transform="scale(0.015625)"/>
       <path id="DejaVuSans-20" transform="scale(0.015625)"/>
       <path d="M 313 2009 
L 1997 2009 
L 1997 1497 
L 313 1497 
L 313 2009 
z
" id="DejaVuSans-2d" transform="scale(0.015625)"/>
       <path d="M 628 4666 
L 3309 4666 
L 3309 4134 
L 1259 4134 
L 1259 2759 
L 3109 2759 
L 3109 2228 
L 1259 2228 
L 1259 0 
L 628 0 
L 628 4666 
z
" id="DejaVuSans-46" transform="scale(0.015625)"/>
       <path d="M 2631 2963 
Q 2534 3019 2420 3045 
Q 2306 3072 2169 3072 
Q 1681 3072 1420 2755 
Q 1159 2438 1159 1844 
L 1159 0 
L 581 0 
L 581 3500 
L 1159 3500 
L 1159 2956 
Q 1341 3275 1631 3429 
Q 1922 3584 2338 3584 
Q 2397 3584 2469 3576 
Q 2541 3569 2628 3553 
L 2631 2963 
z
" id="DejaVuSans-72" transform="scale(0.015625)"/>
       <path d="M 3597 1894 
L 3597 1613 
L 953 1613 
Q 991 1019 1311 708 
Q 1631 397 2203 397 
Q 2534 397 2845 478 
Q 3156 559 3463 722 
L 3463 178 
Q 3153 47 2828 -22 
Q 2503 -91 2169 -91 
Q 1331 -91 842 396 
Q 353 884 353 1716 
Q 353 2575 817 3079 
Q 1281 3584 2069 3584 
Q 2775 3584 3186 3129 
Q 3597 2675 3597 1894 
z
M 3022 2063 
Q 3016 2534 2758 2815 
Q 2500 3097 2075 3097 
Q 1594 3097 1305 2825 
Q 1016 2553 972 2059 
L 3022 2063 
z
" id="DejaVuSans-65" transform="scale(0.015625)"/>
       <path d="M 947 1747 
Q 947 1113 1208 752 
Q 1469 391 1925 391 
Q 2381 391 2643 752 
Q 2906 1113 2906 1747 
Q 2906 2381 2643 2742 
Q 2381 3103 1925 3103 
Q 1469 3103 1208 2742 
Q 947 2381 947 1747 
z
M 2906 525 
Q 2725 213 2448 61 
Q 2172 -91 1784 -91 
Q 1150 -91 751 415 
Q 353 922 353 1747 
Q 353 2572 751 3078 
Q 1150 3584 1784 3584 
Q 2172 3584 2448 3432 
Q 2725 3281 2906 2969 
L 2906 3500 
L 3481 3500 
L 3481 -1331 
L 2906 -1331 
L 2906 525 
z
" id="DejaVuSans-71" transform="scale(0.015625)"/>
       <path d="M 544 1381 
L 544 3500 
L 1119 3500 
L 1119 1403 
Q 1119 906 1312 657 
Q 1506 409 1894 409 
Q 2359 409 2629 706 
Q 2900 1003 2900 1516 
L 2900 3500 
L 3475 3500 
L 3475 0 
L 2900 0 
L 2900 538 
Q 2691 219 2414 64 
Q 2138 -91 1772 -91 
Q 1169 -91 856 284 
Q 544 659 544 1381 
z
M 1991 3584 
L 1991 3584 
z
" id="DejaVuSans-75" transform="scale(0.015625)"/>
       <path d="M 3513 2113 
L 3513 0 
L 2938 0 
L 2938 2094 
Q 2938 2591 2744 2837 
Q 2550 3084 2163 3084 
Q 1697 3084 1428 2787 
Q 1159 2491 1159 1978 
L 1159 0 
L 581 0 
L 581 3500 
L 1159 3500 
L 1159 2956 
Q 1366 3272 1645 3428 
Q 1925 3584 2291 3584 
Q 2894 3584 3203 3211 
Q 3513 2838 3513 2113 
z
" id="DejaVuSans-6e" transform="scale(0.015625)"/>
       <path d="M 3122 3366 
L 3122 2828 
Q 2878 2963 2633 3030 
Q 2388 3097 2138 3097 
Q 1578 3097 1268 2742 
Q 959 2388 959 1747 
Q 959 1106 1268 751 
Q 1578 397 2138 397 
Q 2388 397 2633 464 
Q 2878 531 3122 666 
L 3122 134 
Q 2881 22 2623 -34 
Q 2366 -91 2075 -91 
Q 1284 -91 818 406 
Q 353 903 353 1747 
Q 353 2603 823 3093 
Q 1294 3584 2113 3584 
Q 2378 3584 2631 3529 
Q 2884 3475 3122 3366 
z
" id="DejaVuSans-63" transform="scale(0.015625)"/>
       <path d="M 2059 -325 
Q 1816 -950 1584 -1140 
Q 1353 -1331 966 -1331 
L 506 -1331 
L 506 -850 
L 844 -850 
Q 1081 -850 1212 -737 
Q 1344 -625 1503 -206 
L 1606 56 
L 191 3500 
L 800 3500 
L 1894 763 
L 2988 3500 
L 3597 3500 
L 2059 -325 
z
" id="DejaVuSans-79" transform="scale(0.015625)"/>
       <path d="M 1625 4666 
L 2156 4666 
L 531 -594 
L 0 -594 
L 1625 4666 
z
" id="DejaVuSans-2f" transform="scale(0.015625)"/>
       <path d="M 1984 4856 
Q 1566 4138 1362 3434 
Q 1159 2731 1159 2009 
Q 1159 1288 1364 580 
Q 1569 -128 1984 -844 
L 1484 -844 
Q 1016 -109 783 600 
Q 550 1309 550 2009 
Q 550 2706 781 3412 
Q 1013 4119 1484 4856 
L 1984 4856 
z
" id="DejaVuSans-28" transform="scale(0.015625)"/>
       <path d="M 1159 525 
L 1159 -1331 
L 581 -1331 
L 581 3500 
L 1159 3500 
L 1159 2969 
Q 1341 3281 1617 3432 
Q 1894 3584 2278 3584 
Q 2916 3584 3314 3078 
Q 3713 2572 3713 1747 
Q 3713 922 3314 415 
Q 2916 -91 2278 -91 
Q 1894 -91 1617 61 
Q 1341 213 1159 525 
z
M 3116 1747 
Q 3116 2381 2855 2742 
Q 2594 3103 2138 3103 
Q 1681 3103 1420 2742 
Q 1159 2381 1159 1747 
Q 1159 1113 1420 752 
Q 1681 391 2138 391 
Q 2594 391 2855 752 
Q 3116 1113 3116 1747 
z
" id="DejaVuSans-70" transform="scale(0.015625)"/>
       <path d="M 3328 2828 
Q 3544 3216 3844 3400 
Q 4144 3584 4550 3584 
Q 5097 3584 5394 3201 
Q 5691 2819 5691 2113 
L 5691 0 
L 5113 0 
L 5113 2094 
Q 5113 2597 4934 2840 
Q 4756 3084 4391 3084 
Q 3944 3084 3684 2787 
Q 3425 2491 3425 1978 
L 3425 0 
L 2847 0 
L 2847 2094 
Q 2847 2600 2669 2842 
Q 2491 3084 2119 3084 
Q 1678 3084 1418 2786 
Q 1159 2488 1159 1978 
L 1159 0 
L 581 0 
L 581 3500 
L 1159 3500 
L 1159 2956 
Q 1356 3278 1631 3431 
Q 1906 3584 2284 3584 
Q 2666 3584 2933 3390 
Q 3200 3197 3328 2828 
z
" id="DejaVuSans-6d" transform="scale(0.015625)"/>
       <path d="M 513 4856 
L 1013 4856 
Q 1481 4119 1714 3412 
Q 1947 2706 1947 2009 
Q 1947 1309 1714 600 
Q 1481 -109 1013 -844 
L 513 -844 
Q 928 -128 1133 580 
Q 1338 1288 1338 2009 
Q 1338 2731 1133 3434 
Q 928 4138 513 4856 
z
" id="DejaVuSans-29" transform="scale(0.015625)"/>
      </defs>
      <use xlink:href="#DejaVuSans-32"/>
      <use x="63.623047" xlink:href="#DejaVuSans-39"/>
      <use x="127.246094" xlink:href="#DejaVuSans-53"/>
      <use x="190.722656" xlink:href="#DejaVuSans-69"/>
      <use x="218.505859" xlink:href="#DejaVuSans-20"/>
      <use x="250.292969" xlink:href="#DejaVuSans-2d"/>
      <use x="286.376953" xlink:href="#DejaVuSans-20"/>
      <use x="318.164062" xlink:href="#DejaVuSans-46"/>
      <use x="368.433594" xlink:href="#DejaVuSans-72"/>
      <use x="407.296875" xlink:href="#DejaVuSans-65"/>
      <use x="468.820312" xlink:href="#DejaVuSans-71"/>
      <use x="532.296875" xlink:href="#DejaVuSans-75"/>
      <use x="595.675781" xlink:href="#DejaVuSans-65"/>
      <use x="657.199219" xlink:href="#DejaVuSans-6e"/>
      <use x="720.578125" xlink:href="#DejaVuSans-63"/>
      <use x="775.558594" xlink:href="#DejaVuSans-79"/>
      <use x="834.738281" xlink:href="#DejaVuSans-20"/>
      <use x="866.525391" xlink:href="#DejaVuSans-2f"/>
      <use x="900.216797" xlink:href="#DejaVuSans-20"/>
      <use x="932.003906" xlink:href="#DejaVuSans-28"/>
      <use x="971.017578" xlink:href="#DejaVuSans-70"/>
      <use x="1034.494141" xlink:href="#DejaVuSans-70"/>
      <use x="1097.970703" xlink:href="#DejaVuSans-6d"/>
      <use x="1195.382812" xlink:href="#DejaVuSans-29"/>
     </g>
    </g>
   </g>
   <g id="line2d_7">
    <path clip-path="url(#p589d6d6d5d)" d="M 349.2 235.489889 
L 345.280494 235.373488 
L 344.409493 235.156039 
L 343.538492 234.802437 
L 341.796489 235.38325 
L 339.618986 235.479354 
L 329.602471 235.494156 
L 320.892458 235.376565 
L 319.150455 235.193147 
L 318.279454 234.909121 
L 317.843953 234.601081 
L 317.408453 234.055259 
L 316.537451 232.493928 
L 315.66645 233.40778 
L 315.230949 233.328992 
L 314.795449 233.091152 
L 314.359948 233.417933 
L 313.488947 234.604659 
L 312.617945 235.064461 
L 311.311443 235.26352 
L 309.13394 235.293966 
L 307.391938 235.128656 
L 306.520936 234.837042 
L 306.085436 234.521839 
L 305.649935 233.946228 
L 304.778934 231.799994 
L 304.343433 231.689054 
L 303.472432 233.855457 
L 303.036931 234.47537 
L 302.60143 234.81643 
L 301.730429 235.131281 
L 300.423927 235.299204 
L 297.375423 235.39352 
L 289.536411 235.353651 
L 284.310403 235.143623 
L 282.1329 234.836371 
L 281.261899 234.569815 
L 280.390897 234.075474 
L 279.955397 233.651404 
L 279.519896 232.985301 
L 279.084395 231.880487 
L 278.648895 229.916515 
L 277.777893 222.420646 
L 277.342393 221.108987 
L 276.906892 223.329084 
L 276.471391 224.727041 
L 276.035891 223.365114 
L 275.60039 222.39466 
L 274.293888 231.405216 
L 273.858388 232.638398 
L 273.422887 233.330331 
L 272.987386 233.758695 
L 272.116385 234.185089 
L 271.245384 234.323826 
L 270.374382 234.279828 
L 269.503381 234.041577 
L 268.63238 233.475796 
L 268.196879 232.964998 
L 267.761378 232.137089 
L 267.325878 230.790638 
L 266.890377 228.359945 
L 266.454876 223.934314 
L 265.583875 210.07066 
L 265.148375 213.529848 
L 264.712874 221.333619 
L 264.277373 226.895166 
L 263.841873 230.019984 
L 263.406372 231.736513 
L 262.970871 232.765936 
L 262.535371 233.403082 
L 261.664369 234.128534 
L 260.793368 234.500374 
L 259.486866 234.785445 
L 257.309363 234.97077 
L 253.825358 235.010782 
L 249.905852 234.85364 
L 247.292848 234.568852 
L 245.550845 234.192017 
L 244.244343 233.683222 
L 243.373342 233.129717 
L 242.502341 232.23521 
L 242.06684 231.571953 
L 241.631339 230.639417 
L 241.195839 229.335225 
L 240.760338 227.341725 
L 240.324837 224.226397 
L 239.889337 218.836893 
L 239.453836 209.284185 
L 238.582835 178.053709 
L 238.147334 180.082668 
L 237.711834 188.730212 
L 237.276333 188.466142 
L 236.840832 181.578401 
L 236.405332 183.562907 
L 235.53433 212.223378 
L 235.09883 220.346386 
L 234.663329 224.901184 
L 234.227828 227.568029 
L 233.792328 229.231288 
L 233.356827 230.312152 
L 232.921326 231.025601 
L 232.485826 231.500164 
L 232.050325 231.787797 
L 231.614824 231.940396 
L 231.179324 231.951425 
L 230.743823 231.841671 
L 230.308322 231.560489 
L 229.872822 231.093797 
L 229.437321 230.309429 
L 229.001821 229.088564 
L 228.56632 227.035994 
L 228.130819 223.568343 
L 227.695319 217.179823 
L 227.259818 205.717699 
L 226.824317 189.027286 
L 226.388817 180.853256 
L 225.953316 193.947238 
L 225.517815 210.411412 
L 225.082315 220.01081 
L 224.646814 225.309526 
L 224.211313 228.257238 
L 223.775813 230.09772 
L 223.340312 231.253222 
L 222.904811 232.065445 
L 222.03381 233.041108 
L 221.162809 233.587793 
L 219.856307 234.031259 
L 218.114304 234.310819 
L 215.936801 234.42889 
L 212.888296 234.345796 
L 210.710793 234.130091 
L 208.53329 233.691756 
L 207.226788 233.251918 
L 205.920286 232.530724 
L 205.049285 231.790644 
L 204.178283 230.667794 
L 203.742783 229.892376 
L 203.307282 228.835607 
L 202.871782 227.474012 
L 202.436281 225.516504 
L 202.00078 222.773919 
L 201.56528 218.479577 
L 201.129779 211.678425 
L 200.694278 199.654634 
L 200.258778 178.612372 
L 199.823277 146.376431 
L 199.387776 125.153255 
L 198.516775 150.453291 
L 197.645774 125.335342 
L 197.210273 142.563593 
L 196.774772 174.185943 
L 196.339272 196.606457 
L 195.903771 209.410445 
L 195.46827 216.530559 
L 195.03277 220.844936 
L 194.597269 223.471066 
L 194.161769 225.19121 
L 193.726268 226.233123 
L 193.290767 226.862898 
L 192.855267 227.103799 
L 192.419766 227.049183 
L 191.984265 226.648368 
L 191.548765 225.884316 
L 191.113264 224.624045 
L 190.677763 222.677491 
L 190.242263 219.679624 
L 189.806762 214.924066 
L 189.371261 207.10953 
L 188.935761 193.350012 
L 188.50026 168.202139 
L 187.629259 78.513292 
L 187.193758 80.464891 
L 186.322757 170.176671 
L 185.887256 194.767152 
L 185.451756 208.317251 
L 185.016255 216.135498 
L 184.580754 221.004316 
L 184.145254 224.184639 
L 183.709753 226.387273 
L 182.838752 229.120289 
L 181.96775 230.6831 
L 181.096749 231.651207 
L 180.225748 232.283848 
L 178.919246 232.868848 
L 177.612744 233.201278 
L 175.870741 233.400821 
L 173.693238 233.377191 
L 171.951235 233.156577 
L 170.644733 232.844625 
L 169.338231 232.339045 
L 168.46723 231.849999 
L 167.596229 231.175077 
L 166.725228 230.219578 
L 165.854226 228.815066 
L 165.418726 227.862008 
L 164.983225 226.638031 
L 164.547724 225.080772 
L 164.112224 222.999388 
L 163.676723 220.193851 
L 163.241222 216.206085 
L 162.805722 210.350812 
L 162.370221 201.179468 
L 161.93472 185.907783 
L 161.49922 158.889527 
L 160.628218 59.671139 
L 160.192718 45.485895 
L 159.757217 67.918123 
L 159.321717 71.10787 
L 158.886216 37.435075 
L 158.450715 21.5 
L 157.144213 172.829473 
L 156.708713 193.312892 
L 156.273212 204.965849 
L 155.837711 212.344342 
L 155.402211 217.051796 
L 154.96671 220.34054 
L 154.531209 222.571908 
L 154.095709 224.187727 
L 153.660208 225.270346 
L 153.224707 225.990234 
L 152.789207 226.351819 
L 152.353706 226.381739 
L 151.918205 226.037037 
L 151.482705 225.183754 
L 151.047204 223.653963 
L 150.611704 220.919032 
L 150.176203 216.242103 
L 149.740702 207.526565 
L 149.305202 191.449786 
L 148.4342 142.650012 
L 147.9987 158.455657 
L 147.563199 186.838613 
L 147.127698 205.495492 
L 146.692198 215.931038 
L 146.256697 221.699005 
L 145.821196 225.232328 
L 145.385696 227.445653 
L 144.950195 228.982005 
L 144.079194 230.838261 
L 143.208192 231.891571 
L 142.337191 232.546095 
L 141.030689 233.135375 
L 139.724187 233.479097 
L 137.546684 233.742873 
L 135.369181 233.774369 
L 133.191678 233.589285 
L 131.449675 233.241896 
L 130.143173 232.799959 
L 128.836671 232.075095 
L 127.96567 231.345224 
L 127.094668 230.279719 
L 126.659168 229.571522 
L 125.788166 227.510956 
L 125.352666 225.976342 
L 124.917165 223.98591 
L 124.481664 221.155395 
L 124.046164 217.198897 
L 123.610663 211.091332 
L 123.175163 201.542987 
L 122.739662 184.887965 
L 122.304161 155.374384 
L 121.43316 61.760522 
L 120.997659 72.429261 
L 120.562159 97.082281 
L 120.126658 90.865677 
L 119.691157 68.440446 
L 119.255657 79.239447 
L 118.384655 167.635324 
L 117.949155 191.854513 
L 117.513654 205.500226 
L 117.078153 213.644313 
L 116.642653 218.822266 
L 116.207152 222.323349 
L 115.771651 224.773122 
L 114.90065 227.90477 
L 114.029649 229.71154 
L 113.158648 230.768523 
L 112.723147 231.093354 
L 112.287646 231.269282 
L 111.852146 231.295332 
L 111.416645 231.079283 
L 110.981144 230.497317 
L 110.545644 229.199753 
L 110.110143 226.720135 
L 109.674642 223.308249 
L 109.239142 222.110137 
L 107.93264 230.894688 
L 107.497139 232.095627 
L 107.061638 232.795301 
L 106.190637 233.565298 
L 105.319636 233.968296 
L 104.013134 234.312252 
L 101.835631 234.60833 
L 98.787126 234.808272 
L 93.996619 234.870885 
L 90.948114 234.735511 
L 88.770611 234.424975 
L 87.464109 234.024064 
L 86.593108 233.541155 
L 85.722107 232.689677 
L 85.286606 231.988092 
L 84.851105 230.985777 
L 84.415605 229.400487 
L 83.980104 226.837556 
L 83.544603 222.272598 
L 83.109103 214.300345 
L 82.673602 202.965968 
L 82.238101 196.73879 
L 81.3671 206.797675 
L 80.496099 199.679806 
L 80.060598 206.506153 
L 79.625098 216.932494 
L 79.189597 223.809556 
L 78.754096 227.748621 
L 78.318596 229.978129 
L 77.883095 231.384358 
L 77.447594 232.281215 
L 76.576593 233.361674 
L 75.705592 233.950077 
L 74.83459 234.298764 
L 73.528088 234.575463 
L 72.221586 234.57579 
L 71.786086 234.455414 
L 71.350585 234.184869 
L 70.479584 233.193466 
L 70.044083 233.323294 
L 69.173082 234.421162 
L 68.302081 234.886607 
L 66.995579 235.112126 
L 64.382575 235.257303 
L 57.850065 235.357369 
L 50.011053 235.281917 
L 47.398049 235.048467 
L 46.527048 234.836309 
L 45.656047 234.396166 
L 45.220546 233.978662 
L 44.785046 233.267996 
L 44.349545 232.000995 
L 43.478544 227.528429 
L 43.043043 227.300178 
L 42.607542 228.645952 
L 42.172042 229.147467 
L 41.736541 228.342554 
L 41.30104 228.200353 
L 40.430039 232.1586 
L 39.994538 233.36778 
L 39.559038 234.053784 
L 38.688036 234.709422 
L 37.817035 234.99936 
L 36.075033 235.242849 
L 33.026528 235.355076 
L 29.978023 235.385557 
L 26.929519 235.460859 
L 14.3 235.491513 
L 14.3 235.491513 
" style="fill:none;stroke:#000000;stroke-linecap:square;stroke-width:1.2;"/>
   </g>
   <g id="patch_3">
    <path d="M 14.3 246.2 
L 14.3 10.8 
" style="fill:none;stroke:#000000;stroke-linecap:square;stroke-linejoin:miter;stroke-width:0.8;"/>
   </g>
   <g id="patch_4">
    <path d="M 349.2 246.2 
L 349.2 10.8 
" style="fill:none;stroke:#000000;stroke-linecap:square;stroke-linejoin:miter;stroke-width:0.8;"/>
   </g>
   <g id="patch_5">
    <path d="M 14.3 246.2 
L 349.2 246.2 
" style="fill:none;stroke:#000000;stroke-linecap:square;stroke-linejoin:miter;stroke-width:0.8;"/>
   </g>
   <g id="patch_6">
    <path d="M 14.3 10.8 
L 349.2 10.8 
" style="fill:none;stroke:#000000;stroke-linecap:square;stroke-linejoin:miter;stroke-width:0.8;"/>
   </g>
  </g>
 </g>
 <defs>
  <clipPath id="p589d6d6d5d">
   <rect height="235.4" width="334.9" x="14.3" y="10.8"/>
  </clipPath>
 </defs>
</svg>
