<?xml version="1.0" encoding="utf-8" standalone="no"?>
<!DOCTYPE svg PUBLIC "-//W3C//DTD SVG 1.1//EN"
  "http://www.w3.org/Graphics/SVG/1.1/DTD/svg11.dtd">
<svg height="288pt" version="1.1" viewBox="0 0 360 288" width="360pt" xmlns="http://www.w3.org/2000/svg" xmlns:xlink="http://www.w3.org/1999/xlink">
 <metadata>
  <rdf:RDF xmlns:cc="http://creativecommons.org/ns#" xmlns:dc="http://purl.org/dc/elements/1.1/" xmlns:rdf="http://www.w3.org/1999/02/22-rdf-syntax-ns#">
   <cc:Work>
    <dc:type rdf:resource="http://purl.org/dc/dcmitype/StillImage"/>
    <dc:date>2021-08-08T22:02:20.864706</dc:date>
    <dc:format>image/svg+xml</dc:format>
    <dc:creator>
     <cc:Agent>
      <dc:title>Matplotlib v3.4.2, https://matplotlib.org/</dc:title>
     </cc:Agent>
    </dc:creator>
   </cc:Work>
  </rdf:RDF>
 </metadata>
 <defs>
  <style type="text/css">*{stroke-linecap:butt;stroke-linejoin:round;}</style>
 </defs>
 <g id="figure_1">
  <g id="patch_1">
   <path d="M 0 288 
L 360 288 
L 360 0 
L 0 0 
z
" style="fill:none;"/>
  </g>
  <g id="axes_1">
   <g id="patch_2">
    <path d="M 14.3 246.2 
L 349.2 246.2 
L 349.2 10.8 
L 14.3 10.8 
z
" style="fill:none;"/>
   </g>
   <g id="matplotlib.axis_1">
    <g id="xtick_1">
     <g id="line2d_1">
      <defs>
       <path d="M 0 0 
L 0 3.5 
" id="mcd985e71fb" style="stroke:#000000;stroke-width:0.8;"/>
      </defs>
      <g>
       <use style="stroke:#000000;stroke-width:0.8;" x="321.564894" xlink:href="#mcd985e71fb" y="246.2"/>
      </g>
     </g>
     <g id="text_1">
      <!-- −2000 -->
      <g transform="translate(304.65005 260.798437)scale(0.1 -0.1)">
       <defs>
        <path d="M 678 2272 
L 4684 2272 
L 4684 1741 
L 678 1741 
L 678 2272 
z
" id="DejaVuSans-2212" transform="scale(0.015625)"/>
        <path d="M 1228 531 
L 3431 531 
L 3431 0 
L 469 0 
L 469 531 
Q 828 903 1448 1529 
Q 2069 2156 2228 2338 
Q 2531 2678 2651 2914 
Q 2772 3150 2772 3378 
Q 2772 3750 2511 3984 
Q 2250 4219 1831 4219 
Q 1534 4219 1204 4116 
Q 875 4013 500 3803 
L 500 4441 
Q 881 4594 1212 4672 
Q 1544 4750 1819 4750 
Q 2544 4750 2975 4387 
Q 3406 4025 3406 3419 
Q 3406 3131 3298 2873 
Q 3191 2616 2906 2266 
Q 2828 2175 2409 1742 
Q 1991 1309 1228 531 
z
" id="DejaVuSans-32" transform="scale(0.015625)"/>
        <path d="M 2034 4250 
Q 1547 4250 1301 3770 
Q 1056 3291 1056 2328 
Q 1056 1369 1301 889 
Q 1547 409 2034 409 
Q 2525 409 2770 889 
Q 3016 1369 3016 2328 
Q 3016 3291 2770 3770 
Q 2525 4250 2034 4250 
z
M 2034 4750 
Q 2819 4750 3233 4129 
Q 3647 3509 3647 2328 
Q 3647 1150 3233 529 
Q 2819 -91 2034 -91 
Q 1250 -91 836 529 
Q 422 1150 422 2328 
Q 422 3509 836 4129 
Q 1250 4750 2034 4750 
z
" id="DejaVuSans-30" transform="scale(0.015625)"/>
       </defs>
       <use xlink:href="#DejaVuSans-2212"/>
       <use x="83.789062" xlink:href="#DejaVuSans-32"/>
       <use x="147.412109" xlink:href="#DejaVuSans-30"/>
       <use x="211.035156" xlink:href="#DejaVuSans-30"/>
       <use x="274.658203" xlink:href="#DejaVuSans-30"/>
      </g>
     </g>
    </g>
    <g id="xtick_2">
     <g id="line2d_2">
      <g>
       <use style="stroke:#000000;stroke-width:0.8;" x="251.678712" xlink:href="#mcd985e71fb" y="246.2"/>
      </g>
     </g>
     <g id="text_2">
      <!-- −1000 -->
      <g transform="translate(234.763869 260.798437)scale(0.1 -0.1)">
       <defs>
        <path d="M 794 531 
L 1825 531 
L 1825 4091 
L 703 3866 
L 703 4441 
L 1819 4666 
L 2450 4666 
L 2450 531 
L 3481 531 
L 3481 0 
L 794 0 
L 794 531 
z
" id="DejaVuSans-31" transform="scale(0.015625)"/>
       </defs>
       <use xlink:href="#DejaVuSans-2212"/>
       <use x="83.789062" xlink:href="#DejaVuSans-31"/>
       <use x="147.412109" xlink:href="#DejaVuSans-30"/>
       <use x="211.035156" xlink:href="#DejaVuSans-30"/>
       <use x="274.658203" xlink:href="#DejaVuSans-30"/>
      </g>
     </g>
    </g>
    <g id="xtick_3">
     <g id="line2d_3">
      <g>
       <use style="stroke:#000000;stroke-width:0.8;" x="181.792531" xlink:href="#mcd985e71fb" y="246.2"/>
      </g>
     </g>
     <g id="text_3">
      <!-- 0 -->
      <g transform="translate(178.611281 260.798437)scale(0.1 -0.1)">
       <use xlink:href="#DejaVuSans-30"/>
      </g>
     </g>
    </g>
    <g id="xtick_4">
     <g id="line2d_4">
      <g>
       <use style="stroke:#000000;stroke-width:0.8;" x="111.90635" xlink:href="#mcd985e71fb" y="246.2"/>
      </g>
     </g>
     <g id="text_4">
      <!-- 1000 -->
      <g transform="translate(99.18135 260.798437)scale(0.1 -0.1)">
       <use xlink:href="#DejaVuSans-31"/>
       <use x="63.623047" xlink:href="#DejaVuSans-30"/>
       <use x="127.246094" xlink:href="#DejaVuSans-30"/>
       <use x="190.869141" xlink:href="#DejaVuSans-30"/>
      </g>
     </g>
    </g>
    <g id="xtick_5">
     <g id="line2d_5">
      <g>
       <use style="stroke:#000000;stroke-width:0.8;" x="42.020168" xlink:href="#mcd985e71fb" y="246.2"/>
      </g>
     </g>
     <g id="text_5">
      <!-- 2000 -->
      <g transform="translate(29.295168 260.798437)scale(0.1 -0.1)">
       <use xlink:href="#DejaVuSans-32"/>
       <use x="63.623047" xlink:href="#DejaVuSans-30"/>
       <use x="127.246094" xlink:href="#DejaVuSans-30"/>
       <use x="190.869141" xlink:href="#DejaVuSans-30"/>
      </g>
     </g>
    </g>
    <g id="text_6">
     <!-- Frequency / (ppm) -->
     <g transform="translate(135.9375 274.476562)scale(0.1 -0.1)">
      <defs>
       <path d="M 628 4666 
L 3309 4666 
L 3309 4134 
L 1259 4134 
L 1259 2759 
L 3109 2759 
L 3109 2228 
L 1259 2228 
L 1259 0 
L 628 0 
L 628 4666 
z
" id="DejaVuSans-46" transform="scale(0.015625)"/>
       <path d="M 2631 2963 
Q 2534 3019 2420 3045 
Q 2306 3072 2169 3072 
Q 1681 3072 1420 2755 
Q 1159 2438 1159 1844 
L 1159 0 
L 581 0 
L 581 3500 
L 1159 3500 
L 1159 2956 
Q 1341 3275 1631 3429 
Q 1922 3584 2338 3584 
Q 2397 3584 2469 3576 
Q 2541 3569 2628 3553 
L 2631 2963 
z
" id="DejaVuSans-72" transform="scale(0.015625)"/>
       <path d="M 3597 1894 
L 3597 1613 
L 953 1613 
Q 991 1019 1311 708 
Q 1631 397 2203 397 
Q 2534 397 2845 478 
Q 3156 559 3463 722 
L 3463 178 
Q 3153 47 2828 -22 
Q 2503 -91 2169 -91 
Q 1331 -91 842 396 
Q 353 884 353 1716 
Q 353 2575 817 3079 
Q 1281 3584 2069 3584 
Q 2775 3584 3186 3129 
Q 3597 2675 3597 1894 
z
M 3022 2063 
Q 3016 2534 2758 2815 
Q 2500 3097 2075 3097 
Q 1594 3097 1305 2825 
Q 1016 2553 972 2059 
L 3022 2063 
z
" id="DejaVuSans-65" transform="scale(0.015625)"/>
       <path d="M 947 1747 
Q 947 1113 1208 752 
Q 1469 391 1925 391 
Q 2381 391 2643 752 
Q 2906 1113 2906 1747 
Q 2906 2381 2643 2742 
Q 2381 3103 1925 3103 
Q 1469 3103 1208 2742 
Q 947 2381 947 1747 
z
M 2906 525 
Q 2725 213 2448 61 
Q 2172 -91 1784 -91 
Q 1150 -91 751 415 
Q 353 922 353 1747 
Q 353 2572 751 3078 
Q 1150 3584 1784 3584 
Q 2172 3584 2448 3432 
Q 2725 3281 2906 2969 
L 2906 3500 
L 3481 3500 
L 3481 -1331 
L 2906 -1331 
L 2906 525 
z
" id="DejaVuSans-71" transform="scale(0.015625)"/>
       <path d="M 544 1381 
L 544 3500 
L 1119 3500 
L 1119 1403 
Q 1119 906 1312 657 
Q 1506 409 1894 409 
Q 2359 409 2629 706 
Q 2900 1003 2900 1516 
L 2900 3500 
L 3475 3500 
L 3475 0 
L 2900 0 
L 2900 538 
Q 2691 219 2414 64 
Q 2138 -91 1772 -91 
Q 1169 -91 856 284 
Q 544 659 544 1381 
z
M 1991 3584 
L 1991 3584 
z
" id="DejaVuSans-75" transform="scale(0.015625)"/>
       <path d="M 3513 2113 
L 3513 0 
L 2938 0 
L 2938 2094 
Q 2938 2591 2744 2837 
Q 2550 3084 2163 3084 
Q 1697 3084 1428 2787 
Q 1159 2491 1159 1978 
L 1159 0 
L 581 0 
L 581 3500 
L 1159 3500 
L 1159 2956 
Q 1366 3272 1645 3428 
Q 1925 3584 2291 3584 
Q 2894 3584 3203 3211 
Q 3513 2838 3513 2113 
z
" id="DejaVuSans-6e" transform="scale(0.015625)"/>
       <path d="M 3122 3366 
L 3122 2828 
Q 2878 2963 2633 3030 
Q 2388 3097 2138 3097 
Q 1578 3097 1268 2742 
Q 959 2388 959 1747 
Q 959 1106 1268 751 
Q 1578 397 2138 397 
Q 2388 397 2633 464 
Q 2878 531 3122 666 
L 3122 134 
Q 2881 22 2623 -34 
Q 2366 -91 2075 -91 
Q 1284 -91 818 406 
Q 353 903 353 1747 
Q 353 2603 823 3093 
Q 1294 3584 2113 3584 
Q 2378 3584 2631 3529 
Q 2884 3475 3122 3366 
z
" id="DejaVuSans-63" transform="scale(0.015625)"/>
       <path d="M 2059 -325 
Q 1816 -950 1584 -1140 
Q 1353 -1331 966 -1331 
L 506 -1331 
L 506 -850 
L 844 -850 
Q 1081 -850 1212 -737 
Q 1344 -625 1503 -206 
L 1606 56 
L 191 3500 
L 800 3500 
L 1894 763 
L 2988 3500 
L 3597 3500 
L 2059 -325 
z
" id="DejaVuSans-79" transform="scale(0.015625)"/>
       <path id="DejaVuSans-20" transform="scale(0.015625)"/>
       <path d="M 1625 4666 
L 2156 4666 
L 531 -594 
L 0 -594 
L 1625 4666 
z
" id="DejaVuSans-2f" transform="scale(0.015625)"/>
       <path d="M 1984 4856 
Q 1566 4138 1362 3434 
Q 1159 2731 1159 2009 
Q 1159 1288 1364 580 
Q 1569 -128 1984 -844 
L 1484 -844 
Q 1016 -109 783 600 
Q 550 1309 550 2009 
Q 550 2706 781 3412 
Q 1013 4119 1484 4856 
L 1984 4856 
z
" id="DejaVuSans-28" transform="scale(0.015625)"/>
       <path d="M 1159 525 
L 1159 -1331 
L 581 -1331 
L 581 3500 
L 1159 3500 
L 1159 2969 
Q 1341 3281 1617 3432 
Q 1894 3584 2278 3584 
Q 2916 3584 3314 3078 
Q 3713 2572 3713 1747 
Q 3713 922 3314 415 
Q 2916 -91 2278 -91 
Q 1894 -91 1617 61 
Q 1341 213 1159 525 
z
M 3116 1747 
Q 3116 2381 2855 2742 
Q 2594 3103 2138 3103 
Q 1681 3103 1420 2742 
Q 1159 2381 1159 1747 
Q 1159 1113 1420 752 
Q 1681 391 2138 391 
Q 2594 391 2855 752 
Q 3116 1113 3116 1747 
z
" id="DejaVuSans-70" transform="scale(0.015625)"/>
       <path d="M 3328 2828 
Q 3544 3216 3844 3400 
Q 4144 3584 4550 3584 
Q 5097 3584 5394 3201 
Q 5691 2819 5691 2113 
L 5691 0 
L 5113 0 
L 5113 2094 
Q 5113 2597 4934 2840 
Q 4756 3084 4391 3084 
Q 3944 3084 3684 2787 
Q 3425 2491 3425 1978 
L 3425 0 
L 2847 0 
L 2847 2094 
Q 2847 2600 2669 2842 
Q 2491 3084 2119 3084 
Q 1678 3084 1418 2786 
Q 1159 2488 1159 1978 
L 1159 0 
L 581 0 
L 581 3500 
L 1159 3500 
L 1159 2956 
Q 1356 3278 1631 3431 
Q 1906 3584 2284 3584 
Q 2666 3584 2933 3390 
Q 3200 3197 3328 2828 
z
" id="DejaVuSans-6d" transform="scale(0.015625)"/>
       <path d="M 513 4856 
L 1013 4856 
Q 1481 4119 1714 3412 
Q 1947 2706 1947 2009 
Q 1947 1309 1714 600 
Q 1481 -109 1013 -844 
L 513 -844 
Q 928 -128 1133 580 
Q 1338 1288 1338 2009 
Q 1338 2731 1133 3434 
Q 928 4138 513 4856 
z
" id="DejaVuSans-29" transform="scale(0.015625)"/>
      </defs>
      <use xlink:href="#DejaVuSans-46"/>
      <use x="50.269531" xlink:href="#DejaVuSans-72"/>
      <use x="89.132812" xlink:href="#DejaVuSans-65"/>
      <use x="150.65625" xlink:href="#DejaVuSans-71"/>
      <use x="214.132812" xlink:href="#DejaVuSans-75"/>
      <use x="277.511719" xlink:href="#DejaVuSans-65"/>
      <use x="339.035156" xlink:href="#DejaVuSans-6e"/>
      <use x="402.414062" xlink:href="#DejaVuSans-63"/>
      <use x="457.394531" xlink:href="#DejaVuSans-79"/>
      <use x="516.574219" xlink:href="#DejaVuSans-20"/>
      <use x="548.361328" xlink:href="#DejaVuSans-2f"/>
      <use x="582.052734" xlink:href="#DejaVuSans-20"/>
      <use x="613.839844" xlink:href="#DejaVuSans-28"/>
      <use x="652.853516" xlink:href="#DejaVuSans-70"/>
      <use x="716.330078" xlink:href="#DejaVuSans-70"/>
      <use x="779.806641" xlink:href="#DejaVuSans-6d"/>
      <use x="877.21875" xlink:href="#DejaVuSans-29"/>
     </g>
    </g>
   </g>
   <g id="line2d_6">
    <path clip-path="url(#p7f53f2bb66)" d="M 349.2 235.496126 
L 347.155433 235.493326 
L 346.991868 235.309739 
L 346.74652 234.833745 
L 346.582955 234.917556 
L 346.174042 235.230675 
L 345.437998 235.266587 
L 344.538388 235.25549 
L 343.720562 234.934512 
L 343.311648 235.440151 
L 340.531038 235.498709 
L 340.367473 235.451569 
L 340.122125 235.015458 
L 339.876777 233.896529 
L 339.794994 233.936227 
L 339.713211 233.957027 
L 339.549646 233.665581 
L 339.467863 233.969121 
L 339.222515 235.471106 
L 338.813602 235.499444 
L 336.850818 235.451551 
L 336.60547 234.822415 
L 336.441905 234.604562 
L 336.032991 235.206767 
L 335.296947 235.235131 
L 335.0516 235.278898 
L 334.642686 235.231509 
L 333.906642 235.175853 
L 333.497729 235.089615 
L 333.170598 235.432526 
L 332.189206 235.471142 
L 330.226422 235.486749 
L 330.062857 235.306481 
L 329.817509 234.793564 
L 329.572161 234.099364 
L 329.408596 233.766062 
L 329.326813 233.871354 
L 328.999683 235.489846 
L 327.936508 235.499373 
L 326.627985 235.459763 
L 326.46442 235.079596 
L 326.300855 234.563224 
L 326.219072 234.595082 
L 325.973724 235.143248 
L 325.155897 235.271024 
L 324.910549 235.259911 
L 324.665201 235.13391 
L 324.419853 235.236792 
L 323.847375 235.164541 
L 323.274896 234.947335 
L 322.865983 235.454801 
L 321.393895 235.471277 
L 319.921807 235.408833 
L 319.594676 234.716742 
L 319.431111 234.12064 
L 319.267546 234.008773 
L 319.10398 233.595198 
L 318.940415 234.749305 
L 318.77685 235.474358 
L 318.367937 235.499398 
L 316.405153 235.420036 
L 316.078022 234.586018 
L 315.587326 235.214441 
L 314.687717 235.173987 
L 314.524151 234.759597 
L 314.197021 235.249277 
L 313.788107 235.205537 
L 313.542759 235.182572 
L 313.052063 235.048281 
L 312.64315 235.465896 
L 310.925714 235.454665 
L 310.353236 235.499341 
L 309.780757 235.468987 
L 309.453626 235.065305 
L 309.126496 234.077333 
L 308.881148 233.851091 
L 308.472234 235.498154 
L 306.264103 235.484747 
L 306.100537 235.230796 
L 305.855189 234.620935 
L 305.364493 235.24895 
L 304.546667 235.195329 
L 304.464884 234.95448 
L 304.301319 233.794315 
L 303.974188 235.216976 
L 303.483492 235.14959 
L 303.156361 235.08228 
L 302.911013 234.894314 
L 302.338535 235.469751 
L 299.476142 235.356558 
L 299.149011 234.798247 
L 298.985446 234.124447 
L 298.740098 234.123058 
L 298.249402 235.499034 
L 295.959487 235.443727 
L 295.550574 234.767902 
L 295.468791 234.887339 
L 295.223443 235.201387 
L 294.323834 235.109705 
L 294.242051 234.519835 
L 294.078486 231.8058 
L 293.751355 235.224396 
L 292.606398 234.96558 
L 292.197485 235.469122 
L 289.253309 235.341422 
L 288.926178 234.691083 
L 288.762613 234.071138 
L 288.68083 234.100445 
L 288.517265 233.485563 
L 288.435482 233.521327 
L 288.108352 235.478359 
L 287.617656 235.499341 
L 285.736654 235.416572 
L 285.327741 234.717606 
L 284.837045 235.151988 
L 284.346349 235.258562 
L 284.182784 235.222544 
L 284.101001 235.021272 
L 284.019219 233.795245 
L 283.855653 228.367669 
L 283.528523 235.206124 
L 283.119609 235.141678 
L 282.383565 235.02947 
L 282.056435 235.459764 
L 279.194042 235.49001 
L 279.030476 235.32558 
L 278.703346 234.672059 
L 278.53978 234.029355 
L 278.376215 234.1461 
L 278.21265 233.349722 
L 278.130867 233.537491 
L 277.885519 235.460289 
L 277.558388 235.499283 
L 275.513822 235.423561 
L 275.186691 234.484872 
L 275.104908 234.533882 
L 274.777778 235.041266 
L 274.287082 235.246252 
L 273.959951 235.159741 
L 273.878168 234.829682 
L 273.796386 232.811456 
L 273.632821 223.927772 
L 273.30569 235.162728 
L 272.733211 235.155341 
L 272.160733 234.89014 
L 271.833602 235.458834 
L 270.279731 235.474499 
L 268.889426 235.423742 
L 268.480513 234.757411 
L 268.316947 234.113299 
L 268.235165 234.159529 
L 267.989817 233.717077 
L 267.826252 234.748438 
L 267.662686 235.471803 
L 267.253773 235.499427 
L 265.372772 235.471173 
L 265.209206 235.155009 
L 264.963858 234.504567 
L 264.800293 234.728293 
L 264.39138 235.141355 
L 264.064249 235.226882 
L 263.737118 235.170804 
L 263.655336 234.701712 
L 263.573553 231.970145 
L 263.409988 220.397712 
L 263.082857 235.177895 
L 262.428596 235.160279 
L 261.9379 235.076398 
L 261.610769 235.466871 
L 259.729768 235.452264 
L 259.157289 235.499404 
L 258.666593 235.397152 
L 258.25768 234.726511 
L 258.094115 234.171012 
L 257.930549 234.367852 
L 257.766984 234.378908 
L 257.439853 235.489213 
L 256.458462 235.499417 
L 255.149939 235.451901 
L 254.659243 234.764368 
L 254.413895 234.938219 
L 254.086764 235.144887 
L 253.677851 235.179366 
L 253.514286 235.111166 
L 253.432503 234.425259 
L 253.268938 223.997673 
L 253.187155 220.028937 
L 252.860024 235.179812 
L 251.960415 234.969916 
L 251.79685 234.841869 
L 251.633284 235.111571 
L 251.387937 235.468969 
L 248.525543 235.467928 
L 248.11663 235.065297 
L 247.871282 234.105401 
L 247.707717 234.121283 
L 247.625934 234.033013 
L 247.544151 234.182095 
L 247.298803 235.45812 
L 246.971673 235.499292 
L 244.927106 235.456251 
L 244.43641 234.812384 
L 243.945714 235.160877 
L 243.455018 235.265729 
L 243.373236 235.23715 
L 243.291453 235.068588 
L 243.20967 233.880383 
L 242.964322 219.331358 
L 242.718974 234.822205 
L 242.555409 235.20886 
L 241.819365 235.062279 
L 241.6558 234.879502 
L 241.492234 235.110114 
L 241.246886 235.452135 
L 240.42906 235.482518 
L 238.220928 235.370442 
L 237.812015 234.68643 
L 237.648449 234.124466 
L 237.484884 234.338446 
L 237.321319 234.051958 
L 236.994188 235.490162 
L 235.849231 235.49938 
L 234.704274 235.455894 
L 234.213578 234.822883 
L 233.559316 235.24802 
L 233.150403 235.200042 
L 233.06862 234.807205 
L 232.986838 232.154992 
L 232.823272 214.68782 
L 232.74149 215.448229 
L 232.496142 234.887342 
L 232.332576 235.222074 
L 231.596532 235.122706 
L 231.351184 234.901063 
L 230.860488 235.459775 
L 228.079878 235.460654 
L 227.670965 235.054911 
L 227.425617 234.093544 
L 227.262051 234.323359 
L 227.098486 234.114135 
L 226.689573 235.498567 
L 224.481441 235.460162 
L 224.072527 234.825177 
L 223.990745 234.915008 
L 223.663614 235.122782 
L 223.172918 235.248439 
L 222.92757 235.220315 
L 222.845788 234.422998 
L 222.764005 229.153779 
L 222.60044 199.085426 
L 222.518657 203.958384 
L 222.273309 234.84233 
L 222.109744 235.24822 
L 221.3737 235.133213 
L 221.210134 234.96423 
L 221.046569 235.132774 
L 220.801221 235.437534 
L 219.983394 235.484311 
L 217.775263 235.350591 
L 217.366349 234.5542 
L 217.202784 234.13626 
L 216.630305 235.461446 
L 216.303175 235.499446 
L 214.258608 235.462881 
L 214.095043 235.140604 
L 213.849695 234.754998 
L 212.868303 235.271215 
L 212.704737 235.196156 
L 212.622955 234.097622 
L 212.541172 226.868437 
L 212.377607 187.476781 
L 212.295824 195.504723 
L 212.050476 234.787127 
L 211.886911 235.28481 
L 211.23265 235.178514 
L 210.905519 234.993319 
L 210.496606 235.462422 
L 209.351648 235.481035 
L 207.55243 235.31705 
L 207.388864 235.188675 
L 207.307082 235.186326 
L 207.143516 234.573906 
L 206.979951 234.104669 
L 206.243907 235.499319 
L 204.035775 235.468867 
L 203.87221 235.183335 
L 203.708645 234.861656 
L 203.545079 234.977037 
L 203.299731 235.139157 
L 202.481905 235.230319 
L 202.400122 234.123474 
L 202.318339 226.729426 
L 202.154774 187.536774 
L 202.072991 196.650325 
L 201.827643 234.864226 
L 201.664078 235.301991 
L 200.928034 235.157749 
L 200.682686 234.981657 
L 200.273773 235.464313 
L 199.210598 235.446816 
L 198.883468 235.348619 
L 198.474554 235.422087 
L 197.329597 235.339164 
L 197.166032 235.19099 
L 197.084249 235.192391 
L 196.920684 234.657997 
L 196.757118 234.14166 
L 196.021074 235.499351 
L 193.73116 235.417364 
L 193.404029 234.984453 
L 192.586203 235.269022 
L 192.259072 235.217514 
L 192.177289 233.819121 
L 192.095507 224.574002 
L 191.931941 178.054645 
L 191.523028 235.208868 
L 191.27768 235.302043 
L 190.868767 235.254522 
L 190.459853 235.000276 
L 190.05094 235.463002 
L 188.49707 235.378331 
L 187.433895 235.15675 
L 187.106764 234.915397 
L 186.861416 235.165522 
L 186.697851 234.541149 
L 186.534286 234.142831 
L 185.880024 235.497718 
L 183.59011 235.467973 
L 183.099414 235.084693 
L 182.690501 235.306192 
L 182.118022 235.179653 
L 182.036239 232.849074 
L 181.954457 214.832829 
L 181.709109 21.5 
L 181.463761 229.201658 
L 181.300195 235.21269 
L 180.973065 235.299041 
L 180.727717 235.26564 
L 180.237021 235.098986 
L 180.073455 235.160368 
L 179.664542 233.535603 
L 179.010281 233.22172 
L 178.928498 233.052054 
L 178.846716 232.057745 
L 178.68315 220.714018 
L 178.519585 211.28658 
L 178.192454 220.506384 
L 177.947106 221.816553 
L 177.783541 221.851938 
L 177.619976 221.429799 
L 177.45641 220.321128 
L 177.292845 217.902009 
L 177.12928 211.47298 
L 176.965714 206.139516 
L 176.638584 234.853432 
L 176.556801 234.839281 
L 176.393236 234.111285 
L 176.311453 234.160362 
L 176.066105 234.570572 
L 175.984322 234.595422 
L 175.738974 235.477242 
L 175.248278 235.499443 
L 173.367277 235.472566 
L 173.203712 235.182219 
L 173.040147 234.843022 
L 172.876581 235.048239 
L 172.631233 235.275936 
L 172.140537 235.291521 
L 171.813407 235.241137 
L 171.731624 233.740045 
L 171.649841 223.816857 
L 171.486276 176.61586 
L 171.159145 235.018295 
L 170.99558 235.218147 
L 170.177753 235.060697 
L 170.014188 235.017493 
L 169.605275 235.46062 
L 168.787448 235.439983 
L 167.233578 235.287128 
L 166.906447 235.07163 
L 166.742882 234.88698 
L 166.579316 235.054825 
L 166.415751 235.155445 
L 166.08862 234.169375 
L 165.516142 235.485907 
L 164.780098 235.499287 
L 163.144444 235.463565 
L 162.735531 234.926596 
L 162.326618 235.274848 
L 161.754139 235.313218 
L 161.590574 235.26701 
L 161.508791 233.947805 
L 161.427009 225.30324 
L 161.263443 184.855557 
L 160.936313 235.063451 
L 160.772747 235.25099 
L 160.282051 235.209982 
L 159.873138 235.03003 
L 159.709573 235.169585 
L 159.464225 235.448877 
L 158.728181 235.482784 
L 158.237485 235.378868 
L 157.992137 235.365448 
L 157.501441 235.420997 
L 156.928962 235.482041 
L 156.520049 235.388827 
L 156.274701 235.214404 
L 156.192918 235.184832 
L 155.865788 234.15834 
L 155.293309 235.488525 
L 154.311917 235.499527 
L 152.921612 235.463087 
L 152.430916 234.992669 
L 152.103785 235.201098 
L 151.367741 235.199315 
L 151.285958 233.681479 
L 151.204176 224.471042 
L 151.040611 184.186505 
L 150.71348 235.046753 
L 150.549915 235.243615 
L 149.977436 235.239775 
L 149.568523 235.028135 
L 149.241392 235.456292 
L 148.26 235.481434 
L 146.297216 235.374231 
L 146.051868 235.211691 
L 145.970085 235.152855 
L 145.724737 234.15585 
L 145.642955 234.189059 
L 144.988694 235.499033 
L 142.698779 235.445966 
L 142.371648 234.725268 
L 142.289866 234.782276 
L 141.962735 235.156645 
L 141.308474 235.252371 
L 141.226691 235.237591 
L 141.144908 234.885727 
L 141.063126 232.025333 
L 140.817778 199.171358 
L 140.57243 234.24962 
L 140.408864 235.253272 
L 139.999951 235.260614 
L 139.591038 235.115817 
L 139.427473 234.918645 
L 139.263907 235.144402 
L 139.018559 235.459825 
L 137.873602 235.477805 
L 135.992601 235.287593 
L 135.747253 235.128698 
L 135.501905 234.124324 
L 135.092991 234.795491 
L 134.847643 235.485916 
L 134.1116 235.499409 
L 132.475946 235.406163 
L 132.148816 234.739399 
L 131.65812 235.127432 
L 131.330989 235.221891 
L 131.085641 235.276736 
L 131.003858 235.243329 
L 130.922076 234.901705 
L 130.840293 232.560717 
L 130.594945 214.757047 
L 130.349597 234.799976 
L 130.186032 235.246242 
L 129.777118 235.206789 
L 129.286422 234.969747 
L 129.20464 234.912382 
L 129.041074 235.157942 
L 128.795726 235.45488 
L 127.896117 235.48136 
L 125.851551 235.398752 
L 125.606203 235.212918 
L 125.52442 235.144346 
L 125.279072 234.142759 
L 125.197289 234.19487 
L 125.033724 234.326254 
L 124.870159 234.11315 
L 124.624811 235.466262 
L 124.29768 235.499277 
L 122.334896 235.47664 
L 122.171331 235.17941 
L 121.925983 234.819822 
L 121.762418 234.920128 
L 121.435287 235.158386 
L 120.781026 235.251403 
L 120.699243 235.121459 
L 120.61746 234.037344 
L 120.372112 219.088927 
L 120.126764 234.817949 
L 119.963199 235.206323 
L 119.308938 235.19906 
L 118.981807 234.937229 
L 118.491111 235.464304 
L 117.019023 235.47615 
L 115.628718 235.397081 
L 115.38337 235.214403 
L 115.301587 235.143575 
L 115.056239 234.121978 
L 114.974457 234.242383 
L 114.892674 234.375791 
L 114.810891 234.304591 
L 114.729109 234.163928 
L 114.647326 234.391198 
L 114.401978 235.481021 
L 113.829499 235.499358 
L 112.112063 235.473204 
L 111.948498 235.215634 
L 111.70315 234.813596 
L 111.539585 234.884936 
L 110.967106 235.204967 
L 110.558193 235.195175 
L 110.47641 235.14009 
L 110.394628 234.530936 
L 110.231062 224.13248 
L 110.14928 219.72344 
L 109.822149 235.185407 
L 109.167888 235.183692 
L 109.004322 235.126712 
L 108.758974 234.831264 
L 108.595409 235.077892 
L 108.350061 235.449234 
L 106.959756 235.47615 
L 105.405885 235.399046 
L 104.996972 234.719005 
L 104.833407 234.085732 
L 104.669841 234.140595 
L 104.588059 234.079646 
L 104.506276 234.200507 
L 104.179145 235.49165 
L 102.870623 235.499448 
L 101.889231 235.470193 
L 101.725665 235.167033 
L 101.480317 234.747113 
L 101.316752 234.830883 
L 100.989621 235.055396 
L 100.498926 235.211409 
L 100.253578 235.162674 
L 100.171795 234.693899 
L 100.090012 231.962821 
L 99.926447 220.384163 
L 99.599316 235.168284 
L 99.353968 235.182969 
L 98.536142 234.94452 
L 98.127228 235.463805 
L 95.183053 235.403877 
L 94.774139 234.734738 
L 94.610574 234.170011 
L 94.447009 234.373105 
L 94.283443 234.358896 
L 93.87453 235.498622 
L 91.666398 235.462987 
L 91.093919 234.726105 
L 90.276093 235.199688 
L 90.030745 235.158632 
L 89.948962 234.822775 
L 89.867179 232.776172 
L 89.703614 224.022168 
L 89.376484 235.191434 
L 88.558657 235.035114 
L 88.313309 234.852895 
L 88.149744 235.103737 
L 87.904396 235.465145 
L 84.96022 235.40993 
L 84.551306 234.741386 
L 84.387741 234.136516 
L 84.305958 234.162024 
L 84.060611 233.55156 
L 83.569915 235.499215 
L 81.443565 235.461803 
L 81.28 235.076499 
L 81.034652 234.567537 
L 80.789304 234.816607 
L 80.380391 235.227499 
L 79.971477 235.269983 
L 79.807912 235.185386 
L 79.726129 234.825778 
L 79.480781 228.619732 
L 79.153651 235.195394 
L 78.417607 235.136986 
L 78.090476 234.95431 
L 77.59978 235.471068 
L 75.228083 235.499403 
L 74.737387 235.417274 
L 74.410256 235.011326 
L 74.164908 234.077496 
L 74.083126 234.193601 
L 74.001343 234.04477 
L 73.837778 233.242998 
L 73.428864 235.498207 
L 71.220733 235.477896 
L 71.057167 235.17572 
L 70.811819 234.439867 
L 70.239341 235.211944 
L 69.91221 235.308924 
L 69.585079 235.191856 
L 69.503297 234.939903 
L 69.257949 232.023811 
L 69.012601 235.140494 
L 68.767253 235.191795 
L 68.358339 235.148282 
L 67.785861 234.932975 
L 67.45873 235.4617 
L 65.90486 235.474428 
L 64.514554 235.425247 
L 64.187424 234.975652 
L 63.942076 234.066638 
L 63.860293 234.018614 
L 63.696728 233.509888 
L 63.614945 233.810036 
L 63.369597 235.441508 
L 63.124249 235.49941 
L 60.916117 235.387702 
L 60.588987 234.677248 
L 59.934725 235.23983 
L 59.607595 235.296324 
L 59.362247 235.2346 
L 59.280464 235.10373 
L 59.035116 233.946158 
L 58.789768 235.200246 
L 58.380855 235.191026 
L 57.644811 234.994388 
L 57.072332 235.461481 
L 54.291722 235.432707 
L 53.964591 234.985694 
L 53.719243 234.112172 
L 53.555678 234.109823 
L 53.392112 234.604253 
L 53.146764 235.46992 
L 52.737851 235.4994 
L 50.693284 235.420229 
L 50.284371 234.861903 
L 49.957241 235.209428 
L 49.057631 235.159318 
L 48.812283 234.82992 
L 48.566935 235.260717 
L 48.076239 235.206057 
L 47.667326 235.09014 
L 47.421978 234.987056 
L 46.849499 235.462758 
L 44.068889 235.438705 
L 43.741758 234.932708 
L 43.49641 234.052072 
L 43.414628 234.092987 
L 43.251062 233.670039 
L 43.16928 233.853635 
L 42.923932 235.429537 
L 42.678584 235.499364 
L 40.552234 235.471837 
L 40.388669 235.206592 
L 40.143321 234.827289 
L 39.734408 235.274517 
L 37.362711 234.97511 
L 37.199145 234.923388 
L 36.790232 235.460594 
L 33.927839 235.490099 
L 33.764274 235.32261 
L 33.518926 234.873936 
L 33.273578 234.067803 
L 33.191795 234.050238 
L 33.02823 233.563796 
L 32.946447 233.812776 
L 32.701099 235.455454 
L 32.373968 235.499366 
L 30.329402 235.440169 
L 30.002271 234.737244 
L 29.920488 234.788322 
L 29.593358 235.232673 
L 29.34801 235.210685 
L 29.020879 235.12202 
L 28.530183 235.253577 
L 27.303443 235.133808 
L 26.976313 235.07935 
L 26.485617 235.463757 
L 23.623223 235.449996 
L 23.296093 234.876595 
L 23.050745 234.109095 
L 22.887179 233.83298 
L 22.805397 233.913039 
L 22.478266 235.471472 
L 22.069353 235.49934 
L 20.106569 235.461484 
L 19.943004 235.061751 
L 19.779438 234.592753 
L 19.697656 234.657781 
L 19.452308 235.181919 
L 19.043394 235.207181 
L 18.716264 235.230664 
L 18.30735 235.291931 
L 16.671697 235.052848 
L 16.426349 235.426778 
L 15.935653 235.465028 
L 14.3 235.485672 
L 14.3 235.485672 
" style="fill:none;stroke:#000000;stroke-linecap:square;stroke-width:1.2;"/>
   </g>
   <g id="patch_3">
    <path d="M 14.3 246.2 
L 14.3 10.8 
" style="fill:none;stroke:#000000;stroke-linecap:square;stroke-linejoin:miter;stroke-width:0.8;"/>
   </g>
   <g id="patch_4">
    <path d="M 349.2 246.2 
L 349.2 10.8 
" style="fill:none;stroke:#000000;stroke-linecap:square;stroke-linejoin:miter;stroke-width:0.8;"/>
   </g>
   <g id="patch_5">
    <path d="M 14.3 246.2 
L 349.2 246.2 
" style="fill:none;stroke:#000000;stroke-linecap:square;stroke-linejoin:miter;stroke-width:0.8;"/>
   </g>
   <g id="patch_6">
    <path d="M 14.3 10.8 
L 349.2 10.8 
" style="fill:none;stroke:#000000;stroke-linecap:square;stroke-linejoin:miter;stroke-width:0.8;"/>
   </g>
  </g>
 </g>
 <defs>
  <clipPath id="p7f53f2bb66">
   <rect height="235.4" width="334.9" x="14.3" y="10.8"/>
  </clipPath>
 </defs>
</svg>
