<svg xmlns="http://www.w3.org/2000/svg" viewBox="0 0 230.5 89.1"><g style="isolation:isolate"><text transform="translate(46 80.9)" font-size="35.54" fill="#f3f3f3" stroke="#333" stroke-miterlimit="10" stroke-width="0.57" font-family="Kefa-Regular, Kefa" style="mix-blend-mode:difference"><tspan xml:space="preserve">rsimu   ator</tspan></text><path d="M135.2,85.9l3.8-.2-.3.3c-.3-7-.5-14-.7-21l-.4-21c-.1-7-.1-14-.1-21V2a2,2,0,0,1,2-2,2.2,2.2,0,0,1,2.1,2h0c.1,5.8.1,11.6.1,17.3V53.9c.1,1.5.1,2.9.2,4.3l.3,4.3a26.6,26.6,0,0,0,1.8,8h0l.4.9h-.1l.5.7h-.1l.6.8.6.8h-.1l1.2,1.1h0l1.7,1.2,1.9.9a26,26,0,0,0,4.2,1.5,80.6,80.6,0,0,0,8.8,1.8h0c.2,0,.3.2.3.4l.3,4h0l.3,1.8h.7c.1,0,.1.1.1.2a.1.1,0,0,1-.1.1h-1l-.4-1.9h0l-.4-3.9h.1a87,87,0,0,1-8.9-1.5l-4.4-1.3a22.4,22.4,0,0,1-4-2.2h0a14.2,14.2,0,0,1-1.3-1.2h0c-.4-.5-.9-1-1.3-1.6h0l-.4-.7h0l-.4-.8h-.1a31.4,31.4,0,0,1-2.1-8.4c-.2-1.5-.3-2.9-.4-4.4s-.2-2.8-.2-4.3l-.3-4.3v-13L139.2,2h.5l-.6,84.1a.1.1,0,0,1-.1.1h-4l.2-.2Z" fill="#333"/><path d="M.2,85.1H8l-.2.2L8,52.2V31.6l.2-4.2.5-8.2a.8.8,0,0,1,.8-.8c.4,0,.7.4.8.8h0L11,35.7l.3,8.2.8,8.2h0l.8,4.5h0l.8,3h0l.8,2.1h-.1l.8,1.4.8,1.3h-.1l1.5,1.8h-.1l1.6,1.2h-.2l1.6.9h-.1l1.5.7h-.1l1.5.5,1.5.3h5.2a1.2,1.2,0,0,1,1.2.8h0l.8,2.1v-.2l.8,1.3-1.4-.5.9-.4a2.5,2.5,0,0,0,.9-.4l1.8-1h-.2l1.6-1.3h-.2l.8-1v.2l.8-1.3h-.1l.8-1.5H38l.8-2.3h0l.7-3.6h0l.7-7.1v.2l.5-43.6a1.7,1.7,0,0,1,1.7-1.7,1.8,1.8,0,0,1,1.8,1.7h0c.1,6.3.1,12.5.2,18.8s.1,12.5.1,18.8V66.5c0,6.3,0,12.5-.1,18.8l-1.1-1.1,18.8.4,18.7.5.2.2a.2.2,0,0,1-.2.2L62,86.1l-18.8.4a1.1,1.1,0,0,1-1.1-1.1h0c-.3-6.2-.4-12.5-.5-18.8l-.5-18.8-.3-18.8c-.1-6.2-.1-12.5-.1-18.8h3.5L43,53.7h0v.2l-.8,7h0l-.8,3.7h0c0,.1-.1.1-.1.2l-.8,2.3h0l-.8,1.6h-.1l-.8,1.3h-.1l-.8.9h-.1l-1.6,1.4H36a9.5,9.5,0,0,1-2,1.1l-1.1.4-1,.4a1.2,1.2,0,0,1-1.5-.5L29.6,73h0a.3.3,0,0,1-.1-.2l-.7-2.1,1.2.8H25.9l-1.7-.2-1.7-.4-1.6-.4h-.1l-1.5-.6h-.1l-1.6-.9h-.1l-1.6-1.3h0a.1.1,0,0,1-.1-.1c-.6-.6-1.1-1.3-1.6-1.9h-.1l-.9-1.5-.7-1.4h0c0-.1,0-.1-.1-.1l-.7-2.2h-.1l-.7-3h0l-.8-4.5h0l-.7-8.2-.2-8.3L8.8,19.2h1.6l-.6,8.2-.3,4.1v4.2L9,52.3l-.8,33c0,.1-.1.2-.2.3H.2a.2.2,0,0,1-.2-.2Z" fill="#333"/><path d="M229.7,82.8c.3,0,.2-.3.2-.4S229.7,82.9,229.7,82.8Z" fill="#333"/><polygon points="225.1 83.5 225.2 83.4 224.5 83.7 225.1 83.5" fill="#333"/><path d="M220.8,83.5c.4.5,1.6-.1,2.4.1h.1l.3-.4A14.2,14.2,0,0,1,220.8,83.5Z" fill="#333"/><path d="M218.5,82.4c.2.2-.5.2.6.1h-.6Z" fill="#333"/><path d="M219,82.4c.4,0-.3-.2,0,0Z" fill="#333"/><path d="M216.9,82.5l.6-.2c-.2-.1-.7-.1-.5-.2S216.5,82.3,216.9,82.5Z" fill="#333"/><path d="M216.3,82.9h0Z" fill="#333"/><path d="M217.3,82.7h-.7c.1.1.1.3.3,0S217,82.8,217.3,82.7Z" fill="#333"/><path d="M217.6,82.7c.4.2.8.2.2.4C219,83,218.8,82.7,217.6,82.7Z" fill="#333"/><path d="M220.6,84l.5.2.3-.2Z" fill="#333"/><path d="M213.2,82.3c-.1.1.2.3.2.4h.4C213.6,82.5,213.2,82.4,213.2,82.3Z" fill="#333"/><path d="M213.4,82.7l-.7.2C213.3,82.9,213.4,82.8,213.4,82.7Z" fill="#333"/><polygon points="216.2 83.5 217.3 83.1 216 83.5 216.2 83.5" fill="#333"/><polygon points="210.6 82.3 211 82 210.3 82.4 210.6 82.3" fill="#333"/><path d="M209,82.3c.2-.2-.4-.3-.1-.5l-1.2.4A3,3,0,0,1,209,82.3Z" fill="#333"/><path d="M207.1,82.5l.6-.3Z" fill="#333"/><path d="M211.6,82.8a.7.7,0,0,0-.5-.3l.3.3Z" fill="#333"/><path d="M211.4,82.9h0Z" fill="#333"/><path d="M211.7,82.8h-.1C211.6,82.9,211.7,82.9,211.7,82.8Z" fill="#333"/><path d="M214.5,83.2c-.4.2-1.2.4-.4.6S213.9,83.5,214.5,83.2Z" fill="#333"/><path d="M212,83.2h.7c0-.1-.1-.2.1-.3Z" fill="#333"/><polygon points="211.7 83.3 212 83.2 211.8 83.2 211.7 83.3" fill="#333"/><path d="M208.3,82.7a1.6,1.6,0,0,1-1,.2h1.2C208.6,82.9,208.7,82.7,208.3,82.7Z" fill="#333"/><path d="M209.8,82.8h-.1C209.8,82.9,209.8,82.9,209.8,82.8Z" fill="#333"/><path d="M203.6,82.9h0Z" fill="#333"/><path d="M208.6,83.1l.6-.2h-.6Z" fill="#333"/><path d="M206.1,82.6l.5.2Z" fill="#333"/><path d="M209.6,82.8h0Z" fill="#333"/><path d="M209.6,82.8h0Z" fill="#333"/><path d="M202.5,84.9c.1-.3.9-.5,1.5-.2s.3-1.2-.3-1.7,0,.2-.7.4,1.5.4.9.6-.7-.1-1.2-.2-1.1.5-.9,1l.8-.2C202.6,84.7,202.3,84.8,202.5,84.9Z" fill="#333"/><path d="M205,83h.3l-1-.4c-.5.1-.6.2-.6.3H205Z" fill="#333"/><path d="M206.6,83c-.3.3-.9.4-.5.7s.6-.2,1.1-.4c-1.4.1.3-.1-.6-.3h0c.1,0,.1.1.1,0h-.1V83c-.4-.1-.1-.1,0-.2h0l-1.3.2Z" fill="#333"/><path d="M213.3,84.5h0C213.2,84.5,213.2,84.5,213.3,84.5Z" fill="#333"/><path d="M212.8,84.3c.1,0,.2-.2.5-.1s0,.1,0,.2.7-.2.1-.4h-.1a2.7,2.7,0,0,1-1.2-.5Z" fill="#333"/><path d="M209.6,83.7l-1.1.2.6.2h0C209.7,84,209.6,83.8,209.6,83.7Z" fill="#333"/><polygon points="203.5 82.8 203.6 82.4 203 82.9 203.5 82.8" fill="#333"/><polygon points="202 82.8 202.1 82.5 201.7 82.7 202 82.8" fill="#333"/><path d="M119.6,86.7h0Z" fill="#333"/><path d="M121.9,86.7h.1A.1.1,0,0,0,121.9,86.7Z" fill="#333"/><path d="M166.1,83c-.5-.3-1-.7-.9-.4V83Z" fill="#333"/><path d="M141.6,85h.1l.3-.3Z" fill="#333"/><path d="M141.2,86.3l-.6-.2Z" fill="#333"/><path d="M106.5,87.1l-.4.3C106.7,87.4,106.4,87.2,106.5,87.1Z" fill="#333"/><path d="M187.1,83l-1.1-.2C186.5,83,186.9,83.3,187.1,83Z" fill="#333"/><path d="M120.5,83.4c-.2,0-.3.1-.3.2Z" fill="#333"/><path d="M184.8,82.8H186A1.7,1.7,0,0,0,184.8,82.8Z" fill="#333"/><path d="M59.1,87h0Z" fill="#333"/><path d="M45.3,83.9h0Z" fill="#333"/><path d="M196.1,82.7Z" fill="#333"/><path d="M197.7,83.9l-.2.2Z" fill="#333"/><path d="M181.7,84.8Z" fill="#333"/><path d="M196.6,82.8h0Z" fill="#333"/><path d="M196.6,82.7h.2C196.9,82.7,196.8,82.6,196.6,82.7Z" fill="#333"/><path d="M195.7,82.7h0Z" fill="#333"/><path d="M84.5,86.1h-.1C84.1,86.2,84.2,86.2,84.5,86.1Z" fill="#333"/><path d="M158.1,86.3Z" fill="#333"/><path d="M157,86.5c.4-.4.7-.3,1.1-.2l-.4-.9Z" fill="#333"/><path d="M113.8,86.8l.8.3c-.9.5-1.6.3-.9.7s3.1-.1,3.2-1.1l.5.2h-.3c1,.5.7-.7,2-.5s.8.2.5.3l1-.2c.2,0,.2.1-.1.1H122l1-.5c.3.1-.2.1-.1.2l.8-.2c.4.2-.3.5-.9.4s.7-.2,2.4.3l-.8.2c.5.5,1.1.3,2,.7s-1.8-.9-.9-1.2a1.4,1.4,0,0,0,1.1,0c0,.3.5.2,1.1.2v.5c.6-.2.6-.4,1-.6a.9.9,0,0,1,1,.7c1.2,0-.8-.6.6-.7a5.5,5.5,0,0,0,2.8-.3c.7.2-.1.3.1.4l.6-.3c.2,0,.2.1.1.1s.1-.4.9-.6,1.6.8,2.6.2-.1.3,0,.5a11.3,11.3,0,0,0,2.2-.8l1,.3c-.7-.4.2-.8,1-1.1l-.7-.4,1.3-.3c.1.1,0,.3-.2.5h.2c.5.1.3.4-.1.6l-.4-.2c-.3.2-.6.6-.5.8h.4c-.1.1-.2.1-.1.2l.4-.2.2.5v-.2l1.6.3a14.8,14.8,0,0,1,4.1-1.5c-.5.4-.1.7-.2,1.1s-1.4.2-2.3.1.3.3.2.3l1.7-.4c0,.4.4.3.8.4s1.3-.5,2-.7-.1.5-1,.5c1,.5,1.2-.9,2.2-.4s-.4-.1-.4.1,1.6-.1,1.4.1H152c1.4.1,4.2,0,4.4-.6s-.1.7-.2.9l2.4-2.1c-.2.5.7,1.8-.5,2.1a3.7,3.7,0,0,0,1.4-.1c-.2,0-.5-.7-.2-.8s.6.3,1.6.8,0-.9.6-.9,0,.8-.2.9l1.3-.8c-.3.2,0,.7.3.9s1.1,0,1.5-.1h-.6c1.5.1,1.5-1.2,2.9-1.1s-.4,1,.4,1.1,1.5-2,2.8-2.3l.2.2,1-.3a17.8,17.8,0,0,1-3.3,2.5c.6.2.2.3,1,.2s-.5.4-.7.4H170c0-.5,1.5-.5,1.5-.9l-2.2.5c0-.4,1.3-1.3,2.6-1.3s-.2.9-.2,1.1,1.3-.4,1.4-.2l-.5.2c.7.2,1.2-.6,2.1-.2s1,.7,1,.4a3.3,3.3,0,0,1-.3-2.7,8,8,0,0,1,2.1.8c.5.4-.8,1-.4,1.4l.5-.4c.3.2-.2.4.6.4s1.4,0,.3-.4c.7-.2.8.1,1.6,0s.7-1,1.4-1.2l.2.4,3.6.2c.2.2.8.3.5.5l.8-.3c.8.5-.9.1-.3.6s1.1-.4,1.7-.6-1.4,0-2,.1,1-1.2,2.5-1.5.5.4.6.3c2.2.1,1.8-1.1,3.6-.6s0,.7.2,1-1.4-.2-2-.2l.7.2a2.5,2.5,0,0,1-1.2.1c.6.3,3.6,0,5.2.4s.8-.3.6-.5h-.6c-.4-.3,1-.4.4-.6a4.3,4.3,0,0,1,2.4-.4l.2.5c0-.2-.7-.3-.9-.2s1.5.6,1.9,0l-.7-.3a4.9,4.9,0,0,1,2.4-.5c-.4-.5-.2,0-.8-.5s-2.2,0-1.3.7c-.7-.6-1.1-.3-1.9-.8s.2.3-.5.2-.1.1-.1.2-.1,0-.1-.1,0,.1.1.1h0l.3.2c-.3.3-1.5.3-1.9.5s.2-.2,0-.3l-.6.2c-.1-.3-1.1-.5-.1-.7h-.9a3.7,3.7,0,0,0-1.8-.1c-.4-.1-1.1.4-.7.1l-1.4.2h0c-1.4,0-2.9.6-4.6,0a4.3,4.3,0,0,1-1.7.1l-.2-.3c-.6.1-1.8-.3-2.1,0s-2.9-.1-4-.3v.4l-2.4.3v.3c-.7.2-2-.2-3.2-.2s.4-.1.6,0c-1.5-.7-3.2.5-4.5,0h-.9l-.5-.2.4.2h-1l-.2-.3h-.1c-.4-.2-.3.1-.1.4l-.5.2c-.3-.6-1,.2-1.4-.4s-2,.2-2.2.8-.1-.1.1-.1-.9-.1-1.2.1l-.2-.5-1,.6c-.5-.2-.8-.4-.2-.7-1.4.5-1.1.2-2.3.7v-.3c-.5,0-1.1.4-1.4.2s-4.6-.1-7-.6c.5.8-1.1-.4-1.2.3s-.5-.3-.1-.5c-1.2.2-1.8-.3-2.7.2s.3-.2.2-.4a.6.6,0,0,1-.6.1c-.1-.1.2-.2.4-.3s-1.4.7-1.4,1.3-1-.3-1.5.1-.5-.4.2-.4-2.6-.3-2.7.2-.6-.1-.7,0H136c-.3.6-.8.2-1.5.2h0c-1.8-.4-.8.2-2.5-.3v.4c-.2.7-1.6-.5-2.6-.2l.3.2c-.5.3-1.5-1-2.1-1.1h.4c-1.5-.5-.2.4-1.3.5s.3-.6-.5-.6-2.1.8-3.1.3.4.4-.1.5-2.1-.7-2.8-.1a.1.1,0,0,1-.1-.1c-.6.1-1.9.2-2.3.6-.5-1.2-3.7.6-3.7-.5h-1.7a2.4,2.4,0,0,0-2,.5c-.3-.1-.1-.2-.1-.3a5.2,5.2,0,0,0-3.3.4v-.3c-.4.2-2.5-.6-4.2-.2h.2c-1.9.4-4.5-1-5.2.3l-1.2.3c1.6.1-.2.6.4.8s-1.6-.4-.8-.4h.1c.3-.7-2-.2-2-.7-3.1.1-6.2-.3-9.2-.3l.4.5H84.4c-.2-.1-.3-.4.4-.4s-1.2.3-1.3.4.6-.6.2-.7h-.5a2.3,2.3,0,0,1-1.4.4c-.6-.1-.3-.3-.5-.4H79.6l.6.4c-.6.2-1.3,0-.7.4s-4.8-.2-5.4-.4a6.9,6.9,0,0,1-2.5.3c.2,0,.3.5-.5.5s-1.6-.5-2.3-1.2-2.4.2-1.4.8c-.7-.1-.1-.3-.6-.6s-3.7-.2-5.8-.1c0,.2.3.4-.1.6l-1.2-.7c-.4.1-.3.8-1.1.3s.3.3,0,.3c-4.1-.6-8.4.6-12.5-.6.5.3.2.3-.3.3s0,.3.1.5l-1.8-.5c-.3.5-1.8.1-2,.5h.5c-.7.6,1.1,1.2,1,1.9s2.1.9,3.5,0-.3.3-.1.4.7-.3,1.5-.2h-.1a53.6,53.6,0,0,1,5.5.3l-.2-.3c.5,0,.7.2.9.2s-1.5,0-.9-.6,3.6,0,4.1.8-.2-.4.6-.4l.2.2.2-.2c.5,0,.8.3.8.5h-.5c.7.3,1.9-.1,2.1,0h-.7c2.1-.2,4.8,0,6.9-.4l-.2-.2c1.6-.3,1.3.2,3.1.1h-.1a2.7,2.7,0,0,1,1.3-.2c-.4.2.9.3.3.6,1.7-.4.8-.3,2-.9l.3.3a1.8,1.8,0,0,1,1.3-.5c-.8.3.5.4-.3.7,1.9.6,2.8-.6,3.6.3.9-.8-1.6-.4-1.1-.6s.7-.5,1.3-.5,1,1,2.5,1H81c.6.2,1.1-.3,1.8,0s.9.1,1-.5H82.5c.7-.1,1.4-.8,2.7-.5l-.7.4c.4.2.7-.1,1.1,0s-1.7.2-2.5.6,1.6-.4,1.2.2,1.4.1,2.4-.5v.3l.7-.2-.5.5c.8-.4,1.6.3,2.4.1-1.7,0-.4-.4-1.1-.7,2-.4,1.2.9,3.4.8-.3,0-1.1-.2-.7-.4a4,4,0,0,1,1.3.4c1.5-.1-.2-.4.4-.6s.7-.2,1.4-.3v.3c1.7.3.5-.7,2-.4l-.7.5.8-.2v.4a3.4,3.4,0,0,1,2-.1c-.2-.2.1-.6.8-.6s-.3.3.8.2a.7.7,0,0,1-1,.2c0,.1-.2.2-.2.4a4.8,4.8,0,0,0,1.7,0h-.4l1.6-.5c.2.2,0,.3-.2.4l1-.3c-.1.3-.1.6-.7.7l1.5-.3c.1.2.7.4.5.5s2-.6,3.1-.4h.4c1,0,1.9.4,3.2,0l.6.5c1-.1-.9-.6.7-.8s.4.4.8.5a3,3,0,0,1,2.5-.3A2.7,2.7,0,0,1,113.8,86.8Zm11.7-.3c-.2.1-.7.3-.8.1S125.1,86.4,125.5,86.5Zm17.8-.9a.9.9,0,0,1-.7,0ZM192.8,83h0Zm1,.2V83h-.1Zm-112.6.6h.2C80.9,84,81,83.9,81.2,83.8Z" fill="#333"/><path d="M141.3,86.1c-.1,0-.1-.1-.1-.2S141.1,86.1,141.3,86.1Z" fill="#333"/><path d="M106.6,87h0Z" fill="#333"/><path d="M177.6,86.2l-.5-.2Z" fill="#333"/><path d="M199.4,82.5h-.1S199.1,82.5,199.4,82.5Z" fill="#333"/><path d="M205.2,84.7h.3C205.1,84.5,204.8,84.6,205.2,84.7Z" fill="#333"/><path d="M200,83.7c0,.3.5.2.9.1h-.1C201,83.4,200.5,83.6,200,83.7Z" fill="#333"/><path d="M201,83.8h.5C201.5,83.6,201.3,83.8,201,83.8Z" fill="#333"/><path d="M195.1,83c.3,0,.2-.4.3-.3S193.9,83.2,195.1,83Z" fill="#333"/><polygon points="200.4 84.7 200.2 84.3 199.9 84.6 200.4 84.7" fill="#333"/><path d="M196.7,84.4h.9C197.1,84.4,196.6,84.3,196.7,84.4Z" fill="#333"/><path d="M197.6,84.4h0Z" fill="#333"/><polygon points="199.3 84.8 199.1 84.7 198.6 84.7 199.3 84.8" fill="#333"/><path d="M188.6,84.4h-.9c0,.1.2.2.5.1S188.7,84.5,188.6,84.4Z" fill="#333"/><path d="M191.1,85.3c-.3,0-.3-.1-.4-.2v.4Z" fill="#333"/><path d="M188.7,85.5c-.1.1-1.2.3-.2.3S189.4,85.6,188.7,85.5Z" fill="#333"/><polygon points="176.3 84.9 176.5 84.9 176.5 84.2 176.3 84.9" fill="#333"/><path d="M165.4,86.7c1,.2.2-.4,1.1-.2s-.7-.2-.5-.3S165.1,86.3,165.4,86.7Z" fill="#333"/><path d="M166,86.2h0Z" fill="#333"/><polygon points="43 83.5 42.3 83.4 42.8 83.6 43 83.5" fill="#333"/><path d="M41.8,84.1l-.2-.5-.3.5Z" fill="#333"/><path d="M127.3,87.5h0c-.1-.2-.2-.2-.5-.2Z" fill="#333"/><polygon points="118.8 87.2 118.9 87.2 118.6 86.8 118.8 87.2" fill="#333"/><path d="M111.7,87.7h.9C111.9,87.7,111.6,87.2,111.7,87.7Z" fill="#333"/></g></svg>
