<svg xmlns="http://www.w3.org/2000/svg" xmlns:xlink="http://www.w3.org/1999/xlink" viewBox="0 0 133.3 50"><defs><linearGradient id="a" x1="77.14" y1="23.81" x2="95.21" y2="23.81" gradientUnits="userSpaceOnUse"><stop offset="0" stop-color="#4d4d4d"/><stop offset="0.01" stop-color="#535353"/><stop offset="0.06" stop-color="#787878"/><stop offset="0.13" stop-color="#999"/><stop offset="0.2" stop-color="#b5b5b5"/><stop offset="0.27" stop-color="#ccc"/><stop offset="0.36" stop-color="#ddd"/><stop offset="0.47" stop-color="#e9e9e9"/><stop offset="0.62" stop-color="#f0f0f0"/><stop offset="1" stop-color="#f2f2f2"/></linearGradient><linearGradient id="b" x1="-0.96" y1="26.85" x2="45.31" y2="26.85" xlink:href="#a"/></defs><title>Artboard 13</title><g style="isolation:isolate"><text transform="translate(25.2 45.5)" font-size="19.51" fill="#e6e6e6" stroke="#4d4d4d" stroke-miterlimit="10" stroke-width="0.27" font-family="Kefa-Bold, Kefa" font-weight="700" style="mix-blend-mode:difference">rsimu</text><g style="mix-blend-mode:difference"><path d="M77.9,47.5l2.2-.2-.3.2c-.2-3.8-.3-7.6-.5-11.5l-.2-11.5c-.2-3.9-.1-7.7-.2-11.5V1.4a1.4,1.4,0,0,1,2.8,0h0c.1,3.2.1,6.4.1,9.6v9.7c0,3.2-.1,6.4,0,9.6a37.1,37.1,0,0,0,.3,4.7,10.5,10.5,0,0,0,1.1,4.3h-.1l.3.4h-.1l.7.9h-.1l.7.6h-.1a6.7,6.7,0,0,0,2,1.2l2.2.8a27.3,27.3,0,0,0,4.8,1h0c.2,0,.3.1.3.2v2.2h0v1h.5a.1.1,0,0,1-.1.1h-.5l-.3-1h0l-.2-2.1h.1a38.5,38.5,0,0,1-4.9-.8A12.5,12.5,0,0,1,84,41.7h0l-.7-.6h0l-.7-.9h0l-.3-.4h0A12.7,12.7,0,0,1,81,35.1a37.3,37.3,0,0,1-.4-4.8c-.3-3.2-.2-6.4-.3-9.6L80.1,1.4h.4l-.4,46.1H77.9Z" fill="url(#a)"/></g><g style="mix-blend-mode:difference"><path d="M.1,47.6H4.4l-.2.2V15.9l.2-4.5a.6.6,0,0,1,.6-.5.5.5,0,0,1,.4.5h0l.4,9L6.3,25l.4,4.5h0l.5,2.5h0l.4,1.7h0L8,34.6H8L8.8,36h0l.8,1h0l.8.7h-.1l.9.5h-.1l.9.3h-.1l1.6.4h2.8a.6.6,0,0,1,.8.5h0l.4,1.1h0l.4.7-.9-.3a9.3,9.3,0,0,0,2-1h-.1l.8-.7h-.1l.4-.6h0l.4-.7h0l.4-.9h0l.4-1.3h-.1l.5-2h-.1l.4-3.9h0l.3-23.9a1.1,1.1,0,0,1,1.1-1.1,1.1,1.1,0,0,1,1,1.1h0c.1,3.4.1,6.9.2,10.3V27c0,6.9,0,13.8-.1,20.7l-.7-.7,10.3.2,10.2.4c.1,0,.1,0,.1.1h-.1L34,48.1l-10.3.3a.7.7,0,0,1-.7-.7h0c-.3-6.9-.4-13.8-.6-20.7-.1-3.4-.1-6.8-.1-10.3s-.1-6.8-.1-10.3h2.1l-.6,23.9h0l-.5,3.9h0l-.4,2h-.1l-.4,1.2h0l-.5.9h0l-.4.7h-.1l-.4.6h0c-.1,0-.1,0-.1.1l-.9.7h-.1l-1.1.6-1.2.5h0a.8.8,0,0,1-.9-.4l-.4-.7h-.1l-.4-1.2.8.5H15.1l-1.9-.2-1.7-.5h-.1l-.9-.4h0l-.9-.5a.1.1,0,0,0-.1-.1l-.8-.7H8.6l-.9-1h0a5.1,5.1,0,0,1-.9-1.6h0l-.5-1.1h0l-.4-1.6h0l-.4-2.5h0L5.1,25V20.5l-.3-9.1h1l-.3,4.5v4.6l-.2,9L4.5,47.7H0C0,47.6,0,47.6.1,47.6Z" fill="url(#b)"/></g><g style="mix-blend-mode:color-burn"><path d="M125.5,47.2h0Z" fill="#bdbdbd"/><polygon points="123 47.2 123.1 47.2 122.7 47.2 123 47.2" fill="#bdbdbd"/><path d="M120.7,47.2h0Z" fill="#bdbdbd"/><path d="M119.5,47.1h0Z" fill="#bdbdbd"/><path d="M119.7,47.1Z" fill="#bdbdbd"/><path d="M118.6,47.1h0Z" fill="#bdbdbd"/><path d="M118.3,47.1h0Z" fill="#bdbdbd"/><path d="M118.8,47.1h0Z" fill="#bdbdbd"/><path d="M119,47.1h0Z" fill="#bdbdbd"/><path d="M120.6,47.2h0Z" fill="#bdbdbd"/><path d="M116.6,47.1h0Z" fill="#bdbdbd"/><path d="M116.7,47.1h0Z" fill="#bdbdbd"/><polygon points="118.2 47.2 118.8 47.1 118.1 47.2 118.2 47.2" fill="#bdbdbd"/><polygon points="115.2 47.1 115.4 47 115.1 47.1 115.2 47.1" fill="#bdbdbd"/><path d="M114.3,47.1c.2-.1-.2-.1,0-.1h0Z" fill="#bdbdbd"/><path d="M113.3,47.1h0Z" fill="#bdbdbd"/><path d="M115.7,47.1h0Z" fill="#bdbdbd"/><path d="M115.6,47.1Z" fill="#bdbdbd"/><path d="M115.8,47.1h0Z" fill="#bdbdbd"/><path d="M117.3,47.1c-.2.1-.7.1-.2.1Z" fill="#bdbdbd"/><path d="M116,47.1h0Z" fill="#bdbdbd"/><polygon points="115.8 47.1 116 47.1 115.8 47.1 115.8 47.1" fill="#bdbdbd"/><path d="M114,47.1h0Z" fill="#bdbdbd"/><path d="M114.8,47.1h0Z" fill="#bdbdbd"/><polygon points="111.4 47.1 111.5 47.1 111.5 47.1 111.4 47.1" fill="#bdbdbd"/><path d="M114.1,47.1h0Z" fill="#bdbdbd"/><path d="M112.8,47.1h0Z" fill="#bdbdbd"/><path d="M114.7,47.1Z" fill="#bdbdbd"/><path d="M114.7,47.1h0Z" fill="#bdbdbd"/><path d="M110.8,47.3h.8c.4-.1.2-.2-.1-.2h-.6c.2,0-.6,0-.5.1h.4Z" fill="#bdbdbd"/><path d="M112.2,47.1h0Z" fill="#bdbdbd"/><path d="M113,47.1c-.1,0-.5,0-.2.1h.2Z" fill="#bdbdbd"/><path d="M116.7,47.2Z" fill="#bdbdbd"/><path d="M116.4,47.2h0Z" fill="#bdbdbd"/><path d="M114.7,47.2h0Z" fill="#bdbdbd"/><polygon points="111.4 47.1 111.4 47 111.1 47.1 111.4 47.1" fill="#bdbdbd"/><polygon points="110.6 47.1 110.6 47 110.4 47 110.6 47.1" fill="#bdbdbd"/><path d="M66,48.2h0Z" fill="#bdbdbd"/><path d="M67.3,48.2h0C67.3,48.2,67.2,48.2,67.3,48.2Z" fill="#bdbdbd"/><path d="M91.2,46.9h0Z" fill="#bdbdbd"/><path d="M77.9,47.4h0Z" fill="#bdbdbd"/><path d="M77.7,47.9h0Z" fill="#bdbdbd"/><path d="M58.9,48.5l-.2.2C59,48.6,58.9,48.6,58.9,48.5Z" fill="#bdbdbd"/><path d="M102.5,47h-.6C102.2,47,102.4,47.1,102.5,47Z" fill="#bdbdbd"/><path d="M66.5,46.8c-.1,0-.2,0-.2.1Z" fill="#bdbdbd"/><path d="M101.3,47h.6A.6.6,0,0,0,101.3,47Z" fill="#bdbdbd"/><path d="M33.3,48.8Z" fill="#bdbdbd"/><path d="M25.8,46.7h0Z" fill="#bdbdbd"/><path d="M107.4,47Z" fill="#bdbdbd"/><path d="M108.2,47.2h0Z" fill="#bdbdbd"/><path d="M99.6,47.3Z" fill="#bdbdbd"/><path d="M107.6,47h0Z" fill="#bdbdbd"/><path d="M107.6,47h0Z" fill="#bdbdbd"/><path d="M107.2,47h0Z" fill="#bdbdbd"/><path d="M47,48.1h0C46.8,48.2,46.9,48.1,47,48.1Z" fill="#bdbdbd"/><polygon points="86.8 47.8 86.8 47.8 86.8 47.8 86.8 47.8" fill="#bdbdbd"/><path d="M86.2,47.9c.3-.2.4-.1.6-.1l-.2-.3Z" fill="#bdbdbd"/><path d="M62.9,48.3h.4c-.5.2-.9.2-.5.4s1.7-.1,1.7-.6h.1c.6.2.4-.3,1.1-.2s.5.1.3.1h.5c.2,0,.2.1,0,.1h.8l.5-.2c.2.1-.1.1,0,.1h.4c.2.1-.2.2-.5.2s.4-.1,1.3.1h-.4c.3.2.6.1,1.1.3s-1-.4-.5-.5h.6c0,.1.3.1.6,0v.2c.3,0,.3-.1.5-.2s.5.1.6.3-.5-.3.3-.3a3.9,3.9,0,0,0,1.5-.1c.4,0,0,.1.1.1h.4c.2,0,0-.1.4-.2s.9.3,1.4.1,0,.1,0,.1l1.2-.3h.6c-.4-.1.1-.2.5-.4h.3c.1,0,0,.1-.1.2h.2c.2.1.1.2-.1.3H78c-.2.1-.4.2-.3.3H78l.2.2h.9a9,9,0,0,1,2.2-.5c-.3.1-.1.2-.1.4s-.8,0-1.3,0,.2.1.2.1H81c0,.1.2.1.4.1s.7-.2,1.1-.2H82c.5.2.6-.3,1.1-.1h-.2a1.9,1.9,0,0,1,.8,0h-.2a5.2,5.2,0,0,0,2.4-.2,1,1,0,0,1-.1.3l1.3-.6c-.1.1.3.5-.3.6h.8c-.1-.1-.3-.2-.1-.3l.8.3c-.1-.1.1-.3.3-.3s.1.2,0,.2l.7-.2c-.2.1-.1.2.1.3s.6,0,.8-.1h-.3c.8,0,.8-.3,1.6-.3s-.2.2.2.3a3.7,3.7,0,0,1,1.5-.6h.7l-1.8.6h.5c.2.1-.2.1-.4.1h1.1c-.1-.1.8-.1.7-.2l-1.1.2c-.1-.2.7-.4,1.4-.4s-.1.2-.1.3h.4c.4,0,.7-.2,1.2-.1h.5c-.2-.1-.3-.5-.1-.6l1.1.2c.3.1-.4.2-.2.3h.2c.2,0,0,.1.4.1s.8,0,.1-.1h.9c-.1-.1.4-.2.8-.2h2.7c.5.1-.5,0-.1.1s.6-.1.9-.1-.8,0-1.1,0,.6-.2,1.3-.3.3.1.4.1a13.4,13.4,0,0,1,1.9-.1c.4.1,0,.1.1.2h1.5c-.2-.1.5-.1.2-.1h2.5c.2.1-1.2,0-.8.1h-2.5s-.6-.1-.1-.1h-2.6a19.1,19.1,0,0,1-2.4,0h-1.1a4,4,0,0,1-1.1,0H95.8A10.7,10.7,0,0,1,94,47c0-.1.2,0,.3,0a19.2,19.2,0,0,0-2.4,0H90.7c-.2,0-.2,0-.1.1h-.3c-.1-.1-.5.1-.7-.1s-1.1.1-1.2.3-.1-.1,0-.1h-.7l-.5.2c-.3-.1-.5-.2-.2-.2a4.3,4.3,0,0,0-1.2.2h0c-.2,0-.6.1-.7,0s-2.5,0-3.8-.2c.3.3-.6-.1-.6.1s-.3-.1-.1-.1-1-.2-1.4,0,.1-.1,0-.1h0c-.7,0-.8.2-.8.4a.8.8,0,0,0-.8.1c-.1-.1-.3-.2.1-.2s-1.4-.1-1.5.1-.3,0-.4,0h-.9c-.2.2-.4,0-.9.1h.1c-1-.1-.5.1-1.4-.1v.2c0,.3-.8-.2-1.3-.1h.2c-.3.1-.9-.4-1.2-.4s.1-.1.2-.1-.1.2-.7.2.2-.2-.2-.3-1.2.4-1.7.2.2.1-.1.2-1.1-.3-1.5-.1h-.1l-1.2.2c-.3-.5-2,.3-2-.2h-.9a2,2,0,0,0-1.1.2c-.2,0-.1,0,0-.1a2.6,2.6,0,0,0-1.8.2v-.2a15.2,15.2,0,0,0-2.2,0c0-.1,0-.1.1-.1s-2.5-.6-2.9.1l-.6.2c.8,0-.2.3.2.4s-.9-.2-.5-.2h.1c.2-.4-1.1-.1-1-.4l-5-.2.2.3H47c-.1-.1-.2-.3.2-.3s-.7.2-.7.2.3-.3.1-.3h-.3c-.2.2-.2.3-.7.3l-.3-.2s0-.1-.2,0h-.7l.3.3c-.3.1-.7,0-.3.2s-2.7-.1-3-.3A3,3,0,0,1,40,47c.2.1.3.4-.2.3s-.8-.2-1.2-.7-1.3.1-.8.5,0-.2-.3-.4-2-.1-3.2-.1.2.2,0,.4l-.6-.5c-.3.1-.2.5-.6.2s.1.2-.1.2c-2.2-.4-4.5.4-6.7-.5.3.2.1.2-.2.2s0,.3.1.4l-1-.4c-.1.4-1,.1-1.1.4h.3c-.4.4.6.9.5,1.4s1.2.7,1.9,0-.1.2,0,.3a.7.7,0,0,1,.8-.2h-.1a15.6,15.6,0,0,1,3,.2v-.2a.6.6,0,0,1,.5.2c.3-.4-.8-.1-.5-.5s2,0,2.2.6-.1-.3.3-.3h.2c.3,0,.5.2.5.3h-.3c.4.2,1-.1,1.2,0h-.4a23.1,23.1,0,0,0,3.7-.3h-.1c.9-.2.7.1,1.7,0h-.1l.7-.2c-.2.1.5.2.2.4s.4-.2,1.1-.6v.2c.2-.2.2-.2.7-.3s.3.3-.1.4,1.5-.3,1.9.2-.8-.3-.6-.4.4-.3.7-.2.5.5,1.3.5h-.1c.3.1.6-.1.9,0s.5,0,.6-.3h-.8c.5-.1.8-.5,1.5-.3s-.2.2-.4.2.4-.1.6,0-.9.1-1.3.4.8-.3.6.1.8,0,1.3-.3v.2l.4-.2-.3.3c.5-.2.9.2,1.3,0s-.2-.2-.6-.3c1.1-.3.7.5,1.9.4s-.6-.1-.4-.2l.7.2c.8-.1-.1-.2.2-.4s.4,0,.8-.1v.2c.9.1.2-.4,1.1-.3l-.4.3h.4v.2a2.2,2.2,0,0,1,1.1-.1c-.1-.1.1-.3.5-.3s-.2.2.4.1-.3.3-.5.1-.1.1-.2.2a3.3,3.3,0,0,0,1,0h-.2l.8-.3c.1.1,0,.1-.1.2h.6a.7.7,0,0,1-.4.3l.8-.2c0,.1.4.2.3.3a7.8,7.8,0,0,1,1.6-.2h.3a4.8,4.8,0,0,0,1.7,0l.3.2c.5-.1-.5-.3.4-.4s.2.2.4.3a1.6,1.6,0,0,1,1.4-.2Zm6.3-.2c-.1,0-.4.1-.4,0S69,48.1,69.2,48.1Zm9.6-.4h0Zm26.8-.7h0Zm.5.1c.1,0,.1-.1,0-.1s-.1.1-.3.1Zm-60.9-.3h.1C45.1,46.9,45.2,46.8,45.2,46.8Z" fill="#bdbdbd"/><path d="M77.7,47.8Z" fill="#bdbdbd"/><path d="M59,48.5h0Z" fill="#bdbdbd"/><path d="M97.3,47.6h0Z" fill="#bdbdbd"/><path d="M109.1,47h0Z" fill="#bdbdbd"/><path d="M112.3,47.3h.1C112.2,47.2,112,47.2,112.3,47.3Z" fill="#bdbdbd"/><path d="M109.5,47.2h.4C110,47.1,109.7,47.1,109.5,47.2Z" fill="#bdbdbd"/><path d="M110,47.2h.3C110.3,47.1,110.2,47.2,110,47.2Z" fill="#bdbdbd"/><path d="M106.8,47c.2.1.1,0,.2,0S106.2,47.1,106.8,47Z" fill="#bdbdbd"/><polygon points="109.7 47.3 109.6 47.2 109.4 47.3 109.7 47.3" fill="#bdbdbd"/><path d="M107.7,47.2h0Z" fill="#bdbdbd"/><path d="M108.2,47.2h0Z" fill="#bdbdbd"/><polygon points="109.1 47.3 109 47.3 108.7 47.3 109.1 47.3" fill="#bdbdbd"/><path d="M103.3,47.2h-.2C103.2,47.3,103.4,47.3,103.3,47.2Z" fill="#bdbdbd"/><path d="M104.6,47.4h0Z" fill="#bdbdbd"/><path d="M103.3,47.4s-.6.1,0,.1S103.7,47.4,103.3,47.4Z" fill="#bdbdbd"/><polygon points="96.7 47.4 96.8 47.4 96.7 47.2 96.7 47.4" fill="#bdbdbd"/><path d="M90.8,47.8c.5.1.1-.1.6,0s-.4-.1-.3-.1S90.6,47.7,90.8,47.8Z" fill="#bdbdbd"/><path d="M91.1,47.7h0Z" fill="#bdbdbd"/><polygon points="24.6 46.4 24.3 46.3 24.5 46.4 24.6 46.4" fill="#bdbdbd"/><path d="M24,46.8v-.4l-.2.3Z" fill="#bdbdbd"/><path d="M70.1,48.5h0Z" fill="#bdbdbd"/><polygon points="65.6 48.4 65.6 48.4 65.5 48.2 65.6 48.4" fill="#bdbdbd"/><path d="M61.7,48.8h.5C61.9,48.8,61.7,48.5,61.7,48.8Z" fill="#bdbdbd"/></g><text transform="translate(95.1 45.5)" font-size="19.51" fill="#e6e6e6" stroke="#4d4d4d" stroke-miterlimit="10" stroke-width="0.27" font-family="Kefa-Bold, Kefa" font-weight="700">ator</text></g></svg>
